<svg width="107" height="19" viewBox="0 0 107 19" fill="none" xmlns="http://www.w3.org/2000/svg">
<path d="M26.6859 13.6245L23.75 6.49932L26.0908 6.49932L27.8365 11.8264L27.3207 11.8801L29.1193 6.49932L31.4337 6.49932L28.3523 13.6245L26.6859 13.6245Z" fill="#3B5B95"/>
<path d="M35.6897 13.7587C34.9139 13.7587 34.2394 13.6021 33.6663 13.289C33.0932 12.967 32.648 12.5331 32.3306 11.9875C32.0132 11.4328 31.8545 10.8022 31.8545 10.0955C31.8545 9.54978 31.9427 9.04882 32.119 8.5926C32.2953 8.13637 32.5422 7.74276 32.8596 7.41177C33.177 7.07184 33.5517 6.81242 33.9837 6.6335C34.4245 6.44565 34.905 6.35172 35.4252 6.35172C35.919 6.35172 36.3686 6.44117 36.7742 6.62009C37.1885 6.799 37.5456 7.04948 37.8454 7.37152C38.1451 7.69356 38.3744 8.07375 38.5331 8.51208C38.6918 8.95042 38.7623 9.42901 38.7447 9.94786L38.7315 10.5249L33.1373 10.5249L32.8331 9.31719L37.0122 9.31719L36.7874 9.57214L36.7874 9.30377C36.7698 9.08013 36.6992 8.88333 36.5758 8.71336C36.4612 8.53445 36.3069 8.39579 36.1129 8.29739C35.919 8.19899 35.6985 8.14979 35.4517 8.14979C35.1078 8.14979 34.8125 8.22135 34.5656 8.36448C34.3276 8.49867 34.1468 8.69994 34.0234 8.96831C33.8999 9.22773 33.8382 9.54978 33.8382 9.93444C33.8382 10.328 33.9176 10.6725 34.0763 10.9677C34.2438 11.2539 34.4818 11.4776 34.7904 11.6386C35.1078 11.7996 35.4825 11.8801 35.9145 11.8801C36.2143 11.8801 36.4788 11.8354 36.708 11.7459C36.9461 11.6565 37.2018 11.5044 37.4751 11.2897L38.467 12.7121C38.1936 12.9536 37.9027 13.1504 37.5941 13.3025C37.2855 13.4545 36.9681 13.5664 36.6419 13.6379C36.3245 13.7184 36.0071 13.7587 35.6897 13.7587Z" fill="#3B5B95"/>
<path d="M42.46 13.7587C41.7724 13.7587 41.164 13.6469 40.635 13.4232C40.1148 13.1996 39.7005 12.8999 39.3919 12.5242L40.6747 11.397C40.948 11.6744 41.2566 11.8801 41.6004 12.0143C41.9443 12.1395 42.2705 12.2022 42.5791 12.2022C42.7025 12.2022 42.8127 12.1887 42.9097 12.1619C43.0067 12.1351 43.086 12.0993 43.1477 12.0546C43.2183 12.0009 43.2712 11.9427 43.3064 11.8801C43.3417 11.8085 43.3593 11.728 43.3593 11.6386C43.3593 11.4597 43.28 11.321 43.1213 11.2226C43.0419 11.1779 42.9097 11.1242 42.7245 11.0616C42.5394 10.999 42.3014 10.9274 42.0104 10.8469C41.596 10.7395 41.2345 10.6143 40.926 10.4712C40.6262 10.3191 40.3793 10.1447 40.1854 9.94786C40.009 9.76 39.8724 9.55425 39.7754 9.33061C39.6784 9.09802 39.6299 8.8386 39.6299 8.55234C39.6299 8.22135 39.7049 7.92167 39.8547 7.65331C40.0134 7.38494 40.2206 7.15235 40.4763 6.95555C40.7408 6.75874 41.0406 6.61114 41.3756 6.51274C41.7195 6.40539 42.0721 6.35172 42.4336 6.35172C42.8215 6.35172 43.1918 6.39644 43.5445 6.4859C43.8972 6.57536 44.2234 6.7006 44.5231 6.86162C44.8317 7.02264 45.105 7.21497 45.3431 7.43861L44.2322 8.69994C44.0735 8.54787 43.8927 8.41368 43.69 8.29739C43.496 8.17215 43.2932 8.07375 43.0816 8.00218C42.87 7.93062 42.6761 7.89484 42.4997 7.89484C42.3675 7.89484 42.2485 7.90826 42.1427 7.93509C42.0457 7.95298 41.9619 7.98877 41.8914 8.04244C41.8208 8.08717 41.7679 8.14531 41.7327 8.21688C41.6974 8.2795 41.6798 8.35554 41.6798 8.44499C41.6798 8.53445 41.7018 8.61943 41.7459 8.69994C41.7988 8.78045 41.8693 8.84755 41.9575 8.90122C42.0457 8.95489 42.1867 9.01751 42.3807 9.08908C42.5747 9.1517 42.8392 9.23221 43.1742 9.33061C43.5886 9.4469 43.9456 9.57661 44.2454 9.71974C44.5452 9.86287 44.7832 10.0328 44.9596 10.2296C45.1006 10.3817 45.2064 10.5606 45.277 10.7664C45.3475 10.9632 45.3828 11.1779 45.3828 11.4105C45.3828 11.8667 45.2549 12.2737 44.9992 12.6315C44.7524 12.9804 44.4085 13.2577 43.9677 13.4635C43.5269 13.6603 43.0243 13.7587 42.46 13.7587Z" fill="#3B5B95"/>
<path d="M46.6407 13.6245L46.6407 6.49932L48.6509 6.49932L48.717 7.94851L48.2938 8.10953C48.3908 7.78749 48.5627 7.49676 48.8096 7.23733C49.0652 6.96896 49.3694 6.75427 49.7221 6.59325C50.0747 6.43223 50.445 6.35172 50.833 6.35172C51.362 6.35172 51.8072 6.46354 52.1687 6.68718C52.5302 6.90187 52.8035 7.22839 52.9886 7.66672C53.1738 8.09611 53.2664 8.6239 53.2664 9.2501L53.2664 13.6245L51.1371 13.6245L51.1371 9.42454C51.1371 9.13828 51.0975 8.90122 51.0181 8.71336C50.9388 8.5255 50.8153 8.38685 50.6478 8.29739C50.4891 8.19899 50.2907 8.15426 50.0527 8.16321C49.8675 8.16321 49.6956 8.19452 49.5369 8.25713C49.3782 8.31081 49.2416 8.39579 49.127 8.51208C49.0123 8.61943 48.9198 8.74467 48.8492 8.8878C48.7875 9.03093 48.7567 9.18748 48.7567 9.35745L48.7567 13.6245L47.7119 13.6245C47.465 13.6245 47.2534 13.6245 47.0771 13.6245C46.9008 13.6245 46.7553 13.6245 46.6407 13.6245Z" fill="#3B5B95"/>
<path d="M57.6275 13.7453C57.0368 13.7453 56.5078 13.5887 56.0405 13.2756C55.582 12.9536 55.2161 12.5153 54.9428 11.9606C54.6695 11.397 54.5328 10.7619 54.5328 10.0552C54.5328 9.33061 54.6695 8.691 54.9428 8.13637C55.2161 7.58174 55.5908 7.14788 56.0669 6.83478C56.543 6.51274 57.0853 6.35172 57.6936 6.35172C58.0286 6.35172 58.3328 6.40092 58.6061 6.49932C58.8882 6.59772 59.1351 6.73638 59.3467 6.91529C59.5583 7.08526 59.7391 7.28653 59.8889 7.51912C60.0388 7.74276 60.149 7.98429 60.2196 8.24372L59.7831 8.19004L59.7831 6.49932L61.8859 6.49932L61.8859 13.6245L59.7435 13.6245L59.7435 11.9069L60.2196 11.8935C60.149 12.144 60.0344 12.3811 59.8757 12.6047C59.717 12.8283 59.523 13.0252 59.2938 13.1951C59.0646 13.3651 58.8089 13.4993 58.5268 13.5977C58.2446 13.6961 57.9449 13.7453 57.6275 13.7453ZM58.2094 11.9338C58.5356 11.9338 58.8177 11.8577 59.0558 11.7057C59.2938 11.5536 59.479 11.3389 59.6112 11.0616C59.7435 10.7753 59.8096 10.4399 59.8096 10.0552C59.8096 9.67054 59.7435 9.33955 59.6112 9.06224C59.479 8.77598 59.2938 8.55681 59.0558 8.40474C58.8177 8.24372 58.5356 8.16321 58.2094 8.16321C57.892 8.16321 57.6143 8.24372 57.3762 8.40474C57.147 8.55681 56.9662 8.77598 56.834 9.06224C56.7017 9.33955 56.6356 9.67054 56.6356 10.0552C56.6356 10.4399 56.7017 10.7753 56.834 11.0616C56.9662 11.3389 57.147 11.5536 57.3762 11.7057C57.6143 11.8577 57.892 11.9338 58.2094 11.9338Z" fill="#3B5B95"/>
<path d="M64.3349 13.6245L64.3349 4.70125L66.4509 4.70125L66.4509 13.6245L64.3349 13.6245ZM63.0917 8.3779L63.0917 6.49932L67.813 6.49932L67.813 8.3779L63.0917 8.3779Z" fill="#3B5B95"/>
<path d="M69.1413 13.6245L69.1413 6.49932L71.2573 6.49932L71.2573 13.6245L69.1413 13.6245ZM70.1993 5.09038C69.8026 5.09038 69.4896 4.99645 69.2603 4.8086C69.0399 4.61179 68.9297 4.33448 68.9297 3.97665C68.9297 3.65461 69.0443 3.39071 69.2736 3.18496C69.5028 2.97922 69.8114 2.87634 70.1993 2.87634C70.5961 2.87634 70.9046 2.97474 71.125 3.17155C71.3455 3.3594 71.4557 3.62777 71.4557 3.97665C71.4557 4.30764 71.3411 4.57601 71.1118 4.78176C70.8914 4.98751 70.5872 5.09038 70.1993 5.09038Z" fill="#3B5B95"/>
<path d="M76.3269 13.7587C75.648 13.7587 75.0397 13.5977 74.5018 13.2756C73.964 12.9536 73.5364 12.5152 73.219 11.9606C72.9104 11.397 72.7562 10.7619 72.7562 10.0552C72.7562 9.3485 72.9104 8.71783 73.219 8.1632C73.5364 7.59963 73.964 7.15682 74.5018 6.83478C75.0397 6.51274 75.648 6.35171 76.3269 6.35171C76.9529 6.35171 77.5259 6.46354 78.0461 6.68718C78.5751 6.91082 78.9939 7.22391 79.3025 7.62647L78.1519 9.02198C78.0285 8.87885 77.883 8.74467 77.7155 8.61943C77.548 8.49419 77.3628 8.39579 77.1601 8.32423C76.9573 8.25266 76.7457 8.21688 76.5253 8.21688C76.1902 8.21688 75.8949 8.29739 75.6392 8.45841C75.3835 8.61048 75.1851 8.82518 75.0441 9.10249C74.903 9.37981 74.8325 9.69738 74.8325 10.0552C74.8325 10.3951 74.903 10.7038 75.0441 10.9811C75.1939 11.2584 75.3967 11.4776 75.6524 11.6386C75.9081 11.7996 76.199 11.8801 76.5253 11.8801C76.7545 11.8801 76.9661 11.8533 77.1601 11.7996C77.354 11.737 77.5303 11.6475 77.689 11.5312C77.8566 11.4149 78.0109 11.2718 78.1519 11.1018L79.2893 12.5108C78.9895 12.8954 78.5707 13.1996 78.0329 13.4232C77.5039 13.6469 76.9352 13.7587 76.3269 13.7587Z" fill="#3B5B95"/>
<path d="M82.4887 11.5312L81.7084 9.92102L84.9882 6.49932L87.7786 6.49932L82.4887 11.5312ZM80.452 13.6245L80.452 3.69487L82.568 3.69487L82.568 13.6245L80.452 13.6245ZM85.213 13.6245L82.7399 10.3772L84.2343 9.19642L87.7125 13.6245L85.213 13.6245Z" fill="#3B5B95"/>
<path d="M91.7794 13.7587C91.0035 13.7587 90.329 13.6021 89.756 13.289C89.1829 12.967 88.7376 12.5331 88.4202 11.9875C88.1028 11.4328 87.9441 10.8022 87.9441 10.0955C87.9441 9.54978 88.0323 9.04882 88.2086 8.59259C88.385 8.13637 88.6318 7.74276 88.9492 7.41177C89.2666 7.07184 89.6413 6.81241 90.0733 6.6335C90.5142 6.44564 90.9947 6.35171 91.5149 6.35171C92.0086 6.35171 92.4582 6.44117 92.8638 6.62008C93.2782 6.799 93.6353 7.04947 93.935 7.37152C94.2348 7.69356 94.464 8.07375 94.6227 8.51208C94.7814 8.95042 94.852 9.42901 94.8343 9.94786L94.8211 10.5248L89.227 10.5248L88.9228 9.31719L93.1019 9.31719L92.877 9.57214L92.877 9.30377C92.8594 9.08013 92.7889 8.88333 92.6654 8.71336C92.5508 8.53445 92.3965 8.39579 92.2026 8.29739C92.0086 8.19899 91.7882 8.14979 91.5413 8.14979C91.1975 8.14979 90.9021 8.22135 90.6552 8.36448C90.4172 8.49866 90.2365 8.69994 90.113 8.96831C89.9896 9.22773 89.9279 9.54978 89.9279 9.93444C89.9279 10.328 90.0072 10.6725 90.1659 10.9677C90.3334 11.2539 90.5715 11.4776 90.8801 11.6386C91.1975 11.7996 91.5722 11.8801 92.0042 11.8801C92.304 11.8801 92.5685 11.8354 92.7977 11.7459C93.0357 11.6565 93.2914 11.5044 93.5647 11.2897L94.5566 12.7121C94.2833 12.9536 93.9923 13.1504 93.6838 13.3025C93.3752 13.4545 93.0578 13.5664 92.7316 13.6379C92.4142 13.7184 92.0968 13.7587 91.7794 13.7587Z" fill="#3B5B95"/>
<path d="M96.7643 13.6245L96.7643 4.70125L98.8803 4.70125L98.8803 13.6245L96.7643 13.6245ZM95.5212 8.3779L95.5212 6.49932L100.242 6.49932L100.242 8.3779L95.5212 8.3779Z" fill="#3B5B95"/>
<path d="M104.077 13.7587C103.39 13.7587 102.781 13.6469 102.252 13.4232C101.732 13.1996 101.318 12.8999 101.009 12.5242L102.292 11.397C102.565 11.6744 102.874 11.8801 103.218 12.0143C103.562 12.1395 103.888 12.2022 104.196 12.2022C104.32 12.2022 104.43 12.1887 104.527 12.1619C104.624 12.1351 104.703 12.0993 104.765 12.0545C104.836 12.0009 104.888 11.9427 104.924 11.8801C104.959 11.8085 104.977 11.728 104.977 11.6386C104.977 11.4597 104.897 11.321 104.739 11.2226C104.659 11.1779 104.527 11.1242 104.342 11.0616C104.157 10.999 103.919 10.9274 103.628 10.8469C103.213 10.7395 102.852 10.6143 102.543 10.4712C102.243 10.3191 101.997 10.1447 101.803 9.94785C101.626 9.76 101.49 9.55425 101.393 9.33061C101.296 9.09802 101.247 8.8386 101.247 8.55234C101.247 8.22135 101.322 7.92167 101.472 7.6533C101.631 7.38493 101.838 7.15235 102.094 6.95554C102.358 6.75874 102.658 6.61114 102.993 6.51274C103.337 6.40539 103.689 6.35171 104.051 6.35171C104.439 6.35171 104.809 6.39644 105.162 6.4859C105.514 6.57535 105.841 6.70059 106.14 6.86161C106.449 7.02264 106.722 7.21497 106.96 7.43861L105.849 8.69994C105.691 8.54787 105.51 8.41368 105.307 8.29739C105.113 8.17215 104.91 8.07375 104.699 8.00218C104.487 7.93062 104.293 7.89483 104.117 7.89483C103.985 7.89483 103.866 7.90825 103.76 7.93509C103.663 7.95298 103.579 7.98876 103.509 8.04244C103.438 8.08717 103.385 8.14531 103.35 8.21688C103.315 8.2795 103.297 8.35553 103.297 8.44499C103.297 8.53445 103.319 8.61943 103.363 8.69994C103.416 8.78045 103.487 8.84754 103.575 8.90122C103.663 8.95489 103.804 9.01751 103.998 9.08907C104.192 9.15169 104.456 9.2322 104.791 9.33061C105.206 9.4469 105.563 9.57661 105.863 9.71974C106.162 9.86287 106.4 10.0328 106.577 10.2296C106.718 10.3817 106.824 10.5606 106.894 10.7664C106.965 10.9632 107 11.1779 107 11.4105C107 11.8667 106.872 12.2737 106.616 12.6315C106.37 12.9804 106.026 13.2577 105.585 13.4635C105.144 13.6603 104.642 13.7587 104.077 13.7587Z" fill="#3B5B95"/>
<ellipse cx="8.72354" cy="8.13012" rx="8.01993" ry="8.13012" fill="white"/>
<path d="M5.33447 4.97545C5.78328 4.73678 6.87585 4.61324 7.65283 6.02721C7.94876 6.56584 8.18104 6.95336 8.35986 7.22643C12.8047 4.73109 17.9525 4.93104 20.02 5.35924C17.5167 5.63326 13.5374 6.65991 9.86865 8.84557C10.6655 10.3844 12.8358 12.6801 13.8999 13.7059C12.9489 13.723 11.5793 12.7227 11.0132 12.2206C11.4378 13.4774 13.9076 16.2592 15.0894 17.493C11.5989 16.2092 8.85163 12.5136 7.63721 10.3602C5.08397 12.341 2.90224 14.9993 1.81006 18.4999C1.96285 16.2292 3.15055 11.3977 6.60596 8.44225C6.4238 8.03377 6.25057 7.40932 6.23975 6.56432C6.22199 5.18621 5.62876 4.9307 5.33447 4.97545Z" fill="#3B5B95"/>
</svg>
