<svg width="107" height="19" viewBox="0 0 107 19" fill="none" xmlns="http://www.w3.org/2000/svg">
<path d="M25.9823 13.6245L23.0464 6.49932H25.3872L27.1329 11.8264L26.6171 11.8801L28.4157 6.49932H30.7301L27.6487 13.6245H25.9823Z" fill="#3B5B95"/>
<path d="M34.9861 13.7587C34.2102 13.7587 33.5358 13.6021 32.9627 13.289C32.3896 12.967 31.9444 12.5331 31.627 11.9875C31.3096 11.4328 31.1509 10.8022 31.1509 10.0955C31.1509 9.54978 31.239 9.04882 31.4154 8.5926C31.5917 8.13637 31.8386 7.74276 32.156 7.41177C32.4734 7.07184 32.8481 6.81242 33.2801 6.6335C33.7209 6.44565 34.2014 6.35172 34.7216 6.35172C35.2153 6.35172 35.665 6.44117 36.0705 6.62009C36.4849 6.799 36.842 7.04948 37.1418 7.37152C37.4415 7.69356 37.6708 8.07375 37.8295 8.51209C37.9882 8.95042 38.0587 9.42901 38.0411 9.94786L38.0278 10.5249H32.4337L32.1295 9.31719H36.3086L36.0838 9.57214V9.30377C36.0661 9.08013 35.9956 8.88333 35.8722 8.71336C35.7576 8.53445 35.6033 8.39579 35.4093 8.29739C35.2153 8.19899 34.9949 8.14979 34.7481 8.14979C34.4042 8.14979 34.1089 8.22135 33.862 8.36448C33.6239 8.49867 33.4432 8.69994 33.3198 8.96831C33.1963 9.22774 33.1346 9.54978 33.1346 9.93444C33.1346 10.328 33.214 10.6725 33.3727 10.9677C33.5402 11.2539 33.7782 11.4776 34.0868 11.6386C34.4042 11.7996 34.7789 11.8801 35.2109 11.8801C35.5107 11.8801 35.7752 11.8354 36.0044 11.7459C36.2425 11.6565 36.4982 11.5044 36.7715 11.2897L37.7633 12.7121C37.49 12.9536 37.1991 13.1504 36.8905 13.3025C36.5819 13.4545 36.2645 13.5664 35.9383 13.6379C35.6209 13.7184 35.3035 13.7587 34.9861 13.7587Z" fill="#3B5B95"/>
<path d="M41.7564 13.7587C41.0687 13.7587 40.4604 13.6469 39.9314 13.4232C39.4112 13.1996 38.9968 12.8999 38.6883 12.5242L39.9711 11.397C40.2444 11.6744 40.553 11.8801 40.8968 12.0143C41.2407 12.1395 41.5669 12.2022 41.8755 12.2022C41.9989 12.2022 42.1091 12.1887 42.2061 12.1619C42.3031 12.1351 42.3824 12.0993 42.4441 12.0546C42.5147 12.0009 42.5676 11.9427 42.6028 11.8801C42.6381 11.8085 42.6557 11.728 42.6557 11.6386C42.6557 11.4597 42.5764 11.321 42.4177 11.2226C42.3383 11.1779 42.2061 11.1242 42.0209 11.0616C41.8358 10.999 41.5977 10.9274 41.3068 10.8469C40.8924 10.7395 40.5309 10.6143 40.2223 10.4712C39.9226 10.3191 39.6757 10.1447 39.4818 9.94786C39.3054 9.76 39.1688 9.55425 39.0718 9.33061C38.9748 9.09802 38.9263 8.8386 38.9263 8.55234C38.9263 8.22135 39.0012 7.92167 39.1511 7.65331C39.3098 7.38494 39.517 7.15235 39.7727 6.95555C40.0372 6.75874 40.337 6.61114 40.672 6.51274C41.0158 6.40539 41.3685 6.35172 41.73 6.35172C42.1179 6.35172 42.4882 6.39645 42.8409 6.4859C43.1935 6.57536 43.5198 6.7006 43.8195 6.86162C44.1281 7.02264 44.4014 7.21497 44.6395 7.43861L43.5286 8.69994C43.3699 8.54787 43.1891 8.41368 42.9864 8.29739C42.7924 8.17215 42.5896 8.07375 42.378 8.00218C42.1664 7.93062 41.9724 7.89484 41.7961 7.89484C41.6639 7.89484 41.5448 7.90826 41.439 7.93509C41.3421 7.95298 41.2583 7.98877 41.1878 8.04244C41.1172 8.08717 41.0643 8.14532 41.0291 8.21688C40.9938 8.2795 40.9762 8.35554 40.9762 8.44499C40.9762 8.53445 40.9982 8.61943 41.0423 8.69994C41.0952 8.78045 41.1657 8.84755 41.2539 8.90122C41.3421 8.95489 41.4831 9.01751 41.6771 9.08908C41.8711 9.1517 42.1355 9.23221 42.4706 9.33061C42.885 9.4469 43.242 9.57661 43.5418 9.71974C43.8416 9.86287 44.0796 10.0328 44.2559 10.2296C44.397 10.3817 44.5028 10.5606 44.5733 10.7664C44.6439 10.9632 44.6791 11.1779 44.6791 11.4105C44.6791 11.8667 44.5513 12.2737 44.2956 12.6315C44.0488 12.9804 43.7049 13.2577 43.2641 13.4635C42.8232 13.6603 42.3207 13.7587 41.7564 13.7587Z" fill="#3B5B95"/>
<path d="M45.9371 13.6245V6.49932H47.9472L48.0134 7.94851L47.5902 8.10953C47.6872 7.78749 47.8591 7.49676 48.1059 7.23733C48.3616 6.96897 48.6658 6.75427 49.0185 6.59325C49.3711 6.43223 49.7414 6.35172 50.1294 6.35172C50.6584 6.35172 51.1036 6.46354 51.4651 6.68718C51.8266 6.90187 52.0999 7.22839 52.285 7.66672C52.4702 8.09611 52.5627 8.62391 52.5627 9.2501V13.6245H50.4335V9.42454C50.4335 9.13828 50.3939 8.90122 50.3145 8.71336C50.2352 8.5255 50.1117 8.38685 49.9442 8.29739C49.7855 8.19899 49.5871 8.15426 49.3491 8.16321C49.1639 8.16321 48.992 8.19452 48.8333 8.25714C48.6746 8.31081 48.538 8.39579 48.4233 8.51209C48.3087 8.61943 48.2162 8.74467 48.1456 8.8878C48.0839 9.03093 48.053 9.18748 48.053 9.35745V13.6245H47.0083C46.7614 13.6245 46.5498 13.6245 46.3735 13.6245C46.1971 13.6245 46.0517 13.6245 45.9371 13.6245Z" fill="#3B5B95"/>
<path d="M56.9239 13.7453C56.3331 13.7453 55.8041 13.5887 55.3369 13.2756C54.8784 12.9536 54.5125 12.5153 54.2392 11.9606C53.9659 11.397 53.8292 10.7619 53.8292 10.0552C53.8292 9.33061 53.9659 8.691 54.2392 8.13637C54.5125 7.58174 54.8872 7.14788 55.3633 6.83478C55.8394 6.51274 56.3816 6.35172 56.99 6.35172C57.325 6.35172 57.6292 6.40092 57.9025 6.49932C58.1846 6.59772 58.4315 6.73638 58.6431 6.91529C58.8547 7.08526 59.0354 7.28654 59.1853 7.51912C59.3352 7.74276 59.4454 7.98429 59.5159 8.24372L59.0795 8.19004V6.49932H61.1823V13.6245H59.0398V11.9069L59.5159 11.8935C59.4454 12.144 59.3308 12.3811 59.1721 12.6047C59.0134 12.8283 58.8194 13.0252 58.5902 13.1951C58.361 13.3651 58.1053 13.4993 57.8232 13.5977C57.541 13.6961 57.2413 13.7453 56.9239 13.7453ZM57.5058 11.9338C57.832 11.9338 58.1141 11.8577 58.3521 11.7057C58.5902 11.5536 58.7753 11.3389 58.9076 11.0616C59.0398 10.7753 59.106 10.4399 59.106 10.0552C59.106 9.67054 59.0398 9.33956 58.9076 9.06224C58.7753 8.77598 58.5902 8.55681 58.3521 8.40474C58.1141 8.24372 57.832 8.16321 57.5058 8.16321C57.1884 8.16321 56.9106 8.24372 56.6726 8.40474C56.4434 8.55681 56.2626 8.77598 56.1304 9.06224C55.9981 9.33956 55.932 9.67054 55.932 10.0552C55.932 10.4399 55.9981 10.7753 56.1304 11.0616C56.2626 11.3389 56.4434 11.5536 56.6726 11.7057C56.9106 11.8577 57.1884 11.9338 57.5058 11.9338Z" fill="#3B5B95"/>
<path d="M63.6313 13.6245V4.70125H65.7473V13.6245H63.6313ZM62.3881 8.3779V6.49932H67.1094V8.3779H62.3881Z" fill="#3B5B95"/>
<path d="M68.4377 13.6245V6.49932H70.5537V13.6245H68.4377ZM69.4957 5.09038C69.0989 5.09038 68.786 4.99646 68.5567 4.8086C68.3363 4.61179 68.2261 4.33448 68.2261 3.97665C68.2261 3.65461 68.3407 3.39072 68.57 3.18497C68.7992 2.97922 69.1078 2.87634 69.4957 2.87634C69.8924 2.87634 70.201 2.97474 70.4214 3.17155C70.6418 3.35941 70.7521 3.62778 70.7521 3.97665C70.7521 4.30764 70.6374 4.57601 70.4082 4.78176C70.1878 4.98751 69.8836 5.09038 69.4957 5.09038Z" fill="#3B5B95"/>
<path d="M75.6233 13.7587C74.9444 13.7587 74.336 13.5977 73.7982 13.2756C73.2604 12.9536 72.8328 12.5153 72.5154 11.9606C72.2068 11.397 72.0525 10.7619 72.0525 10.0552C72.0525 9.3485 72.2068 8.71783 72.5154 8.16321C72.8328 7.59963 73.2604 7.15682 73.7982 6.83478C74.336 6.51274 74.9444 6.35172 75.6233 6.35172C76.2492 6.35172 76.8223 6.46354 77.3425 6.68718C77.8715 6.91082 78.2903 7.22392 78.5989 7.62647L77.4483 9.02199C77.3249 8.87886 77.1794 8.74467 77.0119 8.61943C76.8444 8.49419 76.6592 8.39579 76.4564 8.32423C76.2537 8.25266 76.0421 8.21688 75.8216 8.21688C75.4866 8.21688 75.1913 8.29739 74.9356 8.45841C74.6799 8.61049 74.4815 8.82518 74.3405 9.1025C74.1994 9.37981 74.1289 9.69738 74.1289 10.0552C74.1289 10.3951 74.1994 10.7038 74.3405 10.9811C74.4903 11.2584 74.6931 11.4776 74.9488 11.6386C75.2045 11.7996 75.4954 11.8801 75.8216 11.8801C76.0509 11.8801 76.2625 11.8533 76.4564 11.7996C76.6504 11.737 76.8267 11.6475 76.9854 11.5312C77.153 11.4149 77.3072 11.2718 77.4483 11.1018L78.5856 12.5108C78.2859 12.8954 77.8671 13.1996 77.3293 13.4232C76.8003 13.6469 76.2316 13.7587 75.6233 13.7587Z" fill="#3B5B95"/>
<path d="M81.785 11.5312L81.0048 9.92102L84.2845 6.49932H87.075L81.785 11.5312ZM79.7484 13.6245V3.69487H81.8644V13.6245H79.7484ZM84.5094 13.6245L82.0363 10.3772L83.5307 9.19643L87.0089 13.6245H84.5094Z" fill="#3B5B95"/>
<path d="M91.0758 13.7587C90.2999 13.7587 89.6254 13.6021 89.0523 13.289C88.4793 12.967 88.034 12.5331 87.7166 11.9875C87.3992 11.4328 87.2405 10.8022 87.2405 10.0955C87.2405 9.54978 87.3287 9.04882 87.505 8.5926C87.6814 8.13637 87.9282 7.74276 88.2456 7.41177C88.563 7.07184 88.9377 6.81242 89.3697 6.6335C89.8106 6.44565 90.2911 6.35172 90.8113 6.35172C91.305 6.35172 91.7546 6.44117 92.1602 6.62009C92.5746 6.799 92.9316 7.04948 93.2314 7.37152C93.5312 7.69356 93.7604 8.07375 93.9191 8.51209C94.0778 8.95042 94.1483 9.42901 94.1307 9.94786L94.1175 10.5249H88.5233L88.2192 9.31719H92.3982L92.1734 9.57214V9.30377C92.1558 9.08013 92.0853 8.88333 91.9618 8.71336C91.8472 8.53445 91.6929 8.39579 91.4989 8.29739C91.305 8.19899 91.0846 8.14979 90.8377 8.14979C90.4939 8.14979 90.1985 8.22135 89.9516 8.36448C89.7136 8.49867 89.5328 8.69994 89.4094 8.96831C89.286 9.22774 89.2243 9.54978 89.2243 9.93444C89.2243 10.328 89.3036 10.6725 89.4623 10.9677C89.6298 11.2539 89.8679 11.4776 90.1765 11.6386C90.4939 11.7996 90.8686 11.8801 91.3006 11.8801C91.6003 11.8801 91.8648 11.8354 92.0941 11.7459C92.3321 11.6565 92.5878 11.5044 92.8611 11.2897L93.853 12.7121C93.5797 12.9536 93.2887 13.1504 92.9801 13.3025C92.6716 13.4545 92.3542 13.5664 92.0279 13.6379C91.7105 13.7184 91.3932 13.7587 91.0758 13.7587Z" fill="#3B5B95"/>
<path d="M96.0607 13.6245V4.70125H98.1767V13.6245H96.0607ZM94.8176 8.3779V6.49932H99.5389V8.3779H94.8176Z" fill="#3B5B95"/>
<path d="M103.374 13.7587C102.686 13.7587 102.078 13.6469 101.549 13.4232C101.028 13.1996 100.614 12.8999 100.305 12.5242L101.588 11.397C101.862 11.6744 102.17 11.8801 102.514 12.0143C102.858 12.1395 103.184 12.2022 103.493 12.2022C103.616 12.2022 103.726 12.1887 103.823 12.1619C103.92 12.1351 104 12.0993 104.061 12.0546C104.132 12.0009 104.185 11.9427 104.22 11.8801C104.255 11.8085 104.273 11.728 104.273 11.6386C104.273 11.4597 104.194 11.321 104.035 11.2226C103.956 11.1779 103.823 11.1242 103.638 11.0616C103.453 10.999 103.215 10.9274 102.924 10.8469C102.51 10.7395 102.148 10.6143 101.84 10.4712C101.54 10.3191 101.293 10.1447 101.099 9.94786C100.923 9.76 100.786 9.55425 100.689 9.33061C100.592 9.09802 100.544 8.8386 100.544 8.55234C100.544 8.22135 100.618 7.92167 100.768 7.65331C100.927 7.38494 101.134 7.15235 101.39 6.95555C101.654 6.75874 101.954 6.61114 102.289 6.51274C102.633 6.40539 102.986 6.35172 103.347 6.35172C103.735 6.35172 104.105 6.39645 104.458 6.4859C104.811 6.57536 105.137 6.7006 105.437 6.86162C105.745 7.02264 106.019 7.21497 106.257 7.43861L105.146 8.69994C104.987 8.54787 104.806 8.41368 104.604 8.29739C104.41 8.17215 104.207 8.07375 103.995 8.00218C103.784 7.93062 103.59 7.89484 103.413 7.89484C103.281 7.89484 103.162 7.90826 103.056 7.93509C102.959 7.95298 102.876 7.98877 102.805 8.04244C102.734 8.08717 102.682 8.14532 102.646 8.21688C102.611 8.2795 102.593 8.35554 102.593 8.44499C102.593 8.53445 102.615 8.61943 102.66 8.69994C102.712 8.78045 102.783 8.84755 102.871 8.90122C102.959 8.95489 103.1 9.01751 103.294 9.08908C103.488 9.1517 103.753 9.23221 104.088 9.33061C104.502 9.4469 104.859 9.57661 105.159 9.71974C105.459 9.86287 105.697 10.0328 105.873 10.2296C106.014 10.3817 106.12 10.5606 106.191 10.7664C106.261 10.9632 106.296 11.1779 106.296 11.4105C106.296 11.8667 106.169 12.2737 105.913 12.6315C105.666 12.9804 105.322 13.2577 104.881 13.4635C104.44 13.6603 103.938 13.7587 103.374 13.7587Z" fill="#3B5B95"/>
<ellipse cx="8.01993" cy="8.13012" rx="8.01993" ry="8.13012" fill="#FFE500"/>
<path d="M4.63086 4.97551C5.07966 4.73684 6.17224 4.6133 6.94922 6.02727C7.24515 6.5659 7.47742 6.95342 7.65625 7.22649C12.101 4.73115 17.2489 4.9311 19.3164 5.3593C16.8131 5.63333 12.8338 6.65997 9.16504 8.84563C9.96185 10.3845 12.1322 12.6802 13.1963 13.706C12.2453 13.7231 10.8757 12.7228 10.3096 12.2206C10.7341 13.4774 13.204 16.2592 14.3857 17.4931C10.8953 16.2092 8.14802 12.5137 6.93359 10.3603C4.38036 12.341 2.19863 14.9993 1.10645 18.4999C1.25924 16.2293 2.44694 11.3978 5.90234 8.44231C5.72019 8.03383 5.54696 7.40938 5.53613 6.56438C5.51838 5.18627 4.92515 4.93076 4.63086 4.97551Z" fill="#3B5B95"/>
</svg>
