<svg width="174" height="116" viewBox="0 0 174 116" fill="none" xmlns="http://www.w3.org/2000/svg">
<path d="M37.0758 53.4219C35.6812 53.7875 34.5574 54.4374 33.5283 55.4529C32.0119 56.9829 31.2401 58.892 31.2266 61.1396C31.2266 64.8225 33.3659 67.7335 36.8592 68.8032C38.01 69.1417 40.7722 69.1552 41.7877 68.8032C43.5479 68.2074 44.9154 67.1919 45.9038 65.7296C46.7162 64.5246 46.7704 64.5652 43.927 64.6329C41.6523 64.6871 41.395 64.7141 40.8399 65.012C39.9869 65.4724 38.5381 65.4724 37.5497 65.012C36.8998 64.7141 35.6947 63.6174 35.6947 63.3195C35.6947 63.2518 35.6541 63.1029 35.6135 62.981C35.5322 62.7915 36.1009 62.7644 41.3679 62.7644H47.2036V61.2344C47.2036 58.6889 46.5402 56.9693 44.9695 55.3852C43.9134 54.329 43.0469 53.801 41.6794 53.4083C40.4743 53.0698 38.4298 53.0698 37.0758 53.4219ZM40.7316 57.1724C41.6929 57.4703 43.2906 59.1492 42.9386 59.4877C42.8167 59.6096 35.7489 59.6096 35.627 59.4877C35.5864 59.4471 35.6676 59.1628 35.8166 58.8649C36.6967 57.1453 38.5787 56.4954 40.7316 57.1724Z" fill="#1E1E1E"/>
<path d="M53.9024 53.3682C51.8444 53.9911 50.4633 55.1826 49.7728 56.9292C49.5155 57.5927 49.502 57.9176 49.502 63.1711V68.7225H51.4517H53.415L53.4556 63.7398C53.4962 59.0008 53.5098 58.7436 53.7806 58.2291C53.9295 57.9312 54.3086 57.5114 54.593 57.3083C55.0398 56.9969 55.2835 56.9292 55.9605 56.9157C57.0301 56.9022 57.7071 57.2406 58.0862 57.9718C58.357 58.4728 58.3706 58.7436 58.4112 63.6044L58.4518 68.7225H60.4151H62.3784L62.3378 63.1305C62.2971 57.6333 62.2971 57.5385 61.9857 56.8074C61.3223 55.2367 60.1985 54.1671 58.5466 53.5307C57.5717 53.1516 54.8908 53.0568 53.9024 53.3682Z" fill="#1E1E1E"/>
<path d="M70.5995 53.4075C69.1507 53.8002 68.2029 54.3283 67.1468 55.3573C65.5762 56.8738 64.845 58.4579 64.7096 60.6649C64.6284 62.0189 64.9534 63.7656 65.495 64.8352C66.199 66.2027 67.553 67.5703 68.8664 68.2337C70.0579 68.8295 71.0599 69.0461 72.793 69.0461C74.5125 69.0597 75 68.9649 76.3133 68.342C76.9497 68.0306 78.1818 67.137 78.6557 66.636C79.2109 66.0538 79.9962 64.8217 79.9149 64.6863C79.8743 64.6186 78.764 64.5915 77.4371 64.6186C75.2301 64.6727 74.9729 64.7134 74.3365 65.0112C72.9961 65.6476 71.0192 65.3362 69.9767 64.3478C69.584 63.9822 69.0018 63.075 69.0018 62.8313C69.0018 62.7907 71.615 62.7636 74.8104 62.7636H80.6055L80.6867 61.9783C80.7815 61.0576 80.6055 59.2839 80.3347 58.4308C79.766 56.6977 78.3172 54.8834 76.8549 54.1116C75.0406 53.1368 72.6034 52.866 70.5995 53.4075ZM74.5125 57.307C74.9187 57.4966 75.4603 57.9028 75.7853 58.2684C76.4758 59.0537 76.6383 59.4057 76.3269 59.5411C76.205 59.5953 74.5125 59.6359 72.5492 59.6359L68.9883 59.6494L69.0695 59.338C69.3267 58.5392 70.2745 57.4831 71.0192 57.1852C72.1024 56.7654 73.4564 56.8061 74.5125 57.307Z" fill="#1E1E1E"/>
<path d="M90.4639 53.2464C86.7269 53.6797 84.398 55.0472 83.6263 57.2542C83.369 57.9718 83.3555 58.378 83.3555 63.3742V68.7225H85.3188H87.282V64.6199C87.282 60.2736 87.3633 59.5289 87.9455 58.7165C88.284 58.2426 89.4755 57.6198 90.0442 57.6198C90.2744 57.6198 90.6941 57.5791 90.9784 57.5385L91.4794 57.4437V55.3857C91.4794 53.6255 91.4523 53.3005 91.2628 53.2328C91.1409 53.1922 91.0055 53.1651 90.9649 53.1651C90.9107 53.1787 90.6941 53.2193 90.4639 53.2464Z" fill="#1E1E1E"/>
<path d="M100.552 53.2587C97.8844 53.4754 95.5691 54.7752 94.188 56.8062C93.4704 57.8623 93.1455 58.7289 92.9559 60.0964C92.807 61.0577 92.8205 61.4504 92.9965 62.5065C93.3215 64.5239 94.1745 65.9862 95.7451 67.2725C97.2887 68.5317 99.0082 69.1275 101.053 69.1275C102.109 69.1275 103.964 68.8161 104.275 68.5859C104.356 68.5317 104.614 68.4234 104.857 68.3422L105.291 68.1932V68.8973C105.291 70.0617 105.061 70.6169 104.275 71.3751C103.707 71.9302 103.422 72.1063 102.867 72.2281C101.852 72.4448 100.416 72.4177 99.6175 72.1469C98.7239 71.8625 97.898 71.0772 97.7626 70.4273L97.6813 69.9399H95.5826H93.4704L93.5652 70.5086C93.6194 70.8335 93.7818 71.4834 93.9443 71.9573C94.4724 73.5956 96.219 74.9361 98.6697 75.6266C99.929 75.9651 102.461 76.0057 103.72 75.6943C105.426 75.2611 107.064 74.2726 107.958 73.1217C109.244 71.4834 109.353 70.847 109.353 64.9301C109.353 59.9068 109.299 59.3381 108.716 57.9571C108.418 57.253 107.633 56.2104 106.902 55.5064C106.157 54.8023 104.898 53.9628 104.587 53.9628C104.465 53.9628 104.329 53.9087 104.289 53.841C104.113 53.5702 101.554 53.164 100.552 53.2587ZM102.989 57.5238C103.734 57.8894 104.505 58.6476 104.912 59.4058C105.155 59.8797 105.21 60.2047 105.21 61.2067C105.21 62.2086 105.155 62.5336 104.912 63.0075C104.505 63.7792 103.734 64.5239 102.921 64.9166C102.014 65.3634 100.213 65.3769 99.3603 64.9437C96.2732 63.373 96.0972 59.3788 99.0353 57.6592C99.3738 57.4561 99.9019 57.253 100.2 57.1988C101.039 57.0499 102.312 57.1988 102.989 57.5238Z" fill="#1E1E1E" fill-opacity="0.5"/>
<path d="M118.598 53.3124C116.621 53.5155 115.01 54.3008 113.588 55.736C110.677 58.6742 110.596 63.5215 113.399 66.4596C115.145 68.3011 117.068 69.127 119.614 69.127C121.997 69.127 123.879 68.3552 125.558 66.7304C127.358 64.9567 128.13 62.6414 127.778 60.0823C127.575 58.6877 127.358 58.092 126.6 56.9275C124.921 54.3685 121.821 52.9604 118.598 53.3124ZM121.401 57.5098C123.892 58.5794 124.583 61.8831 122.741 63.9006C121.848 64.889 121.008 65.241 119.573 65.241C118.287 65.241 117.474 64.9296 116.662 64.1172C115.768 63.2236 115.524 62.6143 115.524 61.2062C115.511 60.0959 115.552 59.9199 115.917 59.2564C116.283 58.5794 116.96 57.943 117.731 57.4962C118.557 57.0359 120.318 57.0359 121.401 57.5098Z" fill="#1E1E1E" fill-opacity="0.5"/>
<path d="M133.617 54.3705C132.317 54.6819 131.911 56.1577 132.845 57.1597L133.278 57.6201H137.719H142.147L142.607 57.1597C143.014 56.7535 143.068 56.6181 143.068 55.9682C143.068 55.4943 142.986 55.1558 142.824 54.9662C142.309 54.3299 142.133 54.3028 137.99 54.2757C135.837 54.2622 133.861 54.3028 133.617 54.3705Z" fill="#1E1E1E" fill-opacity="0.5"/>
<path d="M132.922 59.5949C132.15 60.2313 132.123 61.2603 132.841 62.0321L133.274 62.4924H137.634C142.359 62.4924 142.576 62.4654 142.901 61.7477C142.996 61.5582 143.064 61.0978 143.064 60.7322C143.064 60.1771 142.996 60.0146 142.644 59.6626L142.224 59.2429H137.783H133.342L132.922 59.5949Z" fill="#1E1E1E" fill-opacity="0.5"/>
<path d="M133.495 64.1326C132.155 64.5252 131.952 66.5291 133.184 67.1655C133.536 67.355 134.226 67.3686 137.936 67.3415L142.283 67.3009L142.675 66.8541C143 66.4885 143.068 66.2989 143.068 65.6896C143.068 65.0533 143.014 64.8908 142.675 64.5523C142.432 64.3221 142.066 64.119 141.755 64.0784C140.969 63.943 133.983 63.9972 133.495 64.1326Z" fill="#1E1E1E" fill-opacity="0.5"/>
</svg>
