<svg width="141" height="43" viewBox="0 0 141 43" fill="none" xmlns="http://www.w3.org/2000/svg">
<path d="M136.718 33.0156V31.3244H139.964V29.1787H136.718V27.8174H140.21V25.6721H134.253V35.1613H140.333V33.0156H136.718ZM126.531 30.3754V25.6721H124.024V35.1613H124.887L129.652 30.4167V35.12H132.158V25.5894H131.296L126.531 30.3754ZM119.465 29.1377H116.507V25.6721H114.001V35.1613H116.507V31.3653H119.465V35.1613H121.971V25.6308H119.465V29.1377ZM108.497 31.3653H111.742V29.22H108.497V27.8587H111.988V25.7131H106.155V35.2023H112.235V33.057H108.537L108.497 31.3653ZM104.183 25.6721H101.677C101.677 27.3634 101.8 29.1377 99.623 29.3027V25.6721H97.1584V29.3027C94.9812 29.1787 95.1043 27.4047 95.1043 25.6721H92.5985C92.5985 27.6524 92.5573 29.4264 94.406 30.5817L91.859 34.7486V35.12H94.5291L96.6244 31.448C96.7887 31.4893 96.9941 31.4893 97.1584 31.4893V35.12H99.623V31.4893C99.7876 31.4893 99.9927 31.448 100.157 31.448L102.252 35.12H104.922V34.7486L102.375 30.5817C104.306 29.4264 104.183 27.6524 104.183 25.6721ZM84.3005 30.4577C84.3005 26.9921 89.0655 26.9921 89.0655 30.4577C89.0655 33.8823 84.3005 33.8823 84.3005 30.4577ZM81.8355 30.4577C81.8355 37.1003 91.5716 37.1003 91.5716 30.4577C91.5716 23.8979 81.8355 23.8979 81.8355 30.4577ZM76.4131 25.5481L72.1406 34.8723V35.2436H74.5233L76.906 29.6327L79.3709 35.2436H81.7536V34.8723L77.4811 25.5894L76.4131 25.5481ZM65.4858 30.3754V25.6721H63.0212V35.1613H63.8838L68.6491 30.4167V35.12H71.1549V25.5894H70.2923L65.4858 30.3754ZM58.2971 30.5817H56.5715V27.8174C57.1467 27.8174 57.7219 27.8174 58.2971 27.8174C59.7348 27.8587 59.6114 30.5817 58.2971 30.5817ZM58.2971 25.6721H54.1477V35.1613H56.6127V32.727H58.379C62.8566 32.7683 62.8566 25.6721 58.2971 25.6721ZM44.1654 35.1613H46.6712V27.8587H49.629V35.1613H52.1348V25.6308H44.2477L44.1654 35.1613ZM102.375 13.501H105.621V11.3143H102.375V9.95287H105.867V7.76623H99.9108V17.2967H105.99V15.1513H102.335L102.375 13.501ZM95.8849 12.5521C95.8849 16.0177 91.1196 16.0177 91.1196 12.5521C91.1607 9.16898 95.8849 9.16898 95.8849 12.5521ZM98.3495 12.5521C98.3495 5.99216 88.6138 5.99216 88.6138 12.5521C88.6138 19.1945 98.3495 19.1945 98.3495 12.5521ZM83.3556 17.338H85.7383V10.0354H88.0798V7.84873H81.0141V10.0354H83.3556V17.338ZM77.974 12.5521C77.974 16.0177 73.209 16.0177 73.209 12.5521C73.209 9.16898 77.974 9.16898 77.974 12.5521ZM80.4389 12.5521C80.4389 5.99216 70.7029 5.99216 70.7029 12.5521C70.744 19.1945 80.4389 19.1945 80.4389 12.5521ZM65.8967 11.7269L68.3614 17.338H70.744V16.9666L66.4308 7.6837H65.3627L61.0903 16.9666V17.338H63.4729L65.8967 11.7269ZM53.8191 12.5521C53.8191 9.08644 58.5845 9.08644 58.5845 12.5521C58.5845 16.0177 53.8191 16.0177 53.8191 12.5521ZM61.0903 12.5521C61.0903 5.99216 51.3545 5.99216 51.3545 12.5521C51.3134 19.1945 61.0903 19.1945 61.0903 12.5521ZM46.7947 15.4813C46.0964 15.4813 45.6443 14.945 45.6443 14.2436H43.5082C43.5082 16.389 44.7817 17.5855 46.8355 17.5855C49.3004 17.5855 50.4916 16.224 50.4916 14.5737C50.4916 13.501 50.0811 12.7584 49.1362 12.222C49.7113 11.8094 49.9576 11.1081 49.9576 10.448C49.9576 9.08644 48.8895 7.6837 46.8766 7.6837C45.1926 7.6837 43.7957 8.50885 43.878 10.2829H46.014C46.014 9.9116 46.3014 9.70534 46.8766 9.70534C47.9858 9.70534 48.027 11.3969 46.8355 11.3969H46.1783V13.3772H46.8766C48.3967 13.2534 48.3967 15.4813 46.7947 15.4813ZM28.6783 24.8468L21.8592 15.2338V9.58154H9.49422V21.5462L2.67481 26.4148V2.8153H28.7606L28.6783 24.8468ZM28.6783 40.2359H13.9718L28.6783 29.674V40.2359ZM11.7122 19.9372V11.892H19.5997V14.2849L11.7122 19.9372ZM19.5997 17.1317V23.8566H11.7122V22.7427L19.5997 17.1317ZM3.5374 28.6014L9.49422 24.3104V26.0434H21.8592V19.1945L27.8157 27.5697L11.2194 39.4105L3.5374 28.6014ZM2.67481 40.2359V31.2003L9.08334 40.2359H2.67481ZM30.9378 0.546173H0.37447V28.0647H0.333313L0.37447 28.1061V42.5048H10.6854L10.7265 42.5462L10.7677 42.5048H30.9378V28.0237H30.979L30.9378 27.9824V0.546173Z" fill="#EAB57C"/>
</svg>
