<svg width="331" height="30" viewBox="0 0 331 30" fill="none" xmlns="http://www.w3.org/2000/svg">
<g clip-path="url(#clip0_1293_61704)">
<path d="M6.6121 13.3005H4.30987V10.9983H6.6121V13.3005ZM0.560379 10.1156H2.70271V7.97324H0.560379V10.1156ZM15.6905 7.97324L12.6638 -1.27322L9.63878 7.97324H12.6638V10.9999H9.63878V7.97324H6.61373V10.9983H9.63878V14.0233H12.6638V17.0141H9.63878V14.0233H7.65798L4.74225 22.932L12.6655 17.0141L20.5887 22.932L17.4755 13.4213L24.7689 7.9716L15.6905 7.97324ZM46.5561 17.4726L42.4591 7.27L38.442 17.4726L35.0547 7.97976H32.276L38.0781 22.9304L42.4591 12.8893L46.84 22.9304L52.6616 7.97976H49.8618L46.5561 17.4726ZM67.875 12.1372C68.2405 13.0297 68.4232 14.0103 68.4232 15.079C68.4232 16.133 68.2405 17.1136 67.875 18.0208C67.5095 18.9264 66.9955 19.7112 66.3331 20.3736C65.6706 21.0361 64.8924 21.5533 63.9999 21.9253C63.1074 22.2973 62.1202 22.4833 61.0384 22.4833C59.9844 22.4833 59.0071 22.2973 58.108 21.9253C57.209 21.5533 56.4275 21.0361 55.765 20.3736C55.1026 19.7112 54.5886 18.9264 54.2231 18.0208C53.8576 17.1153 53.6749 16.1347 53.6749 15.079C53.6749 14.0103 53.8576 13.0297 54.2231 12.1372C54.5886 11.2447 55.1058 10.4713 55.7748 9.81535C56.4438 9.15943 57.2286 8.64547 58.1276 8.27345C59.0266 7.90144 59.9975 7.71544 61.0384 7.71544C62.1072 7.71544 63.0878 7.90144 63.9803 8.27345C64.8728 8.64547 65.6543 9.15943 66.3233 9.81535C66.9923 10.4713 67.5095 11.2447 67.875 12.1372ZM65.8664 15.079C65.8664 14.1049 65.6641 13.2369 65.2578 12.4716C64.8516 11.708 64.287 11.1092 63.5642 10.6768C62.8414 10.2445 61.9995 10.0275 61.0384 10.0275C60.1052 10.0275 59.2763 10.2445 58.5535 10.6768C57.829 11.1092 57.258 11.708 56.8386 12.4716C56.4193 13.2352 56.2104 14.1049 56.2104 15.079C56.2104 16.0531 56.4193 16.9178 56.8386 17.6749C57.258 18.432 57.829 19.0308 58.5535 19.4697C59.2763 19.9086 60.1052 20.1289 61.0384 20.1289C61.9848 20.1289 62.8202 19.9086 63.543 19.4697C64.2658 19.0308 64.8336 18.432 65.2464 17.6749C65.6609 16.9178 65.8664 16.0531 65.8664 15.079ZM77.5065 16.5377L81.5268 22.1799H78.6258L75.0525 16.8036H73.5743V22.1799H71.1807V7.97976H72.6002H73.5743H75.5616C76.6026 7.97976 77.5016 8.1625 78.2587 8.52799C79.0158 8.89347 79.608 9.40418 80.0339 10.0601C80.4598 10.716 80.6735 11.491 80.6735 12.3835C80.6735 13.276 80.4598 14.0543 80.0339 14.7168C79.608 15.3792 79.0158 15.8932 78.2587 16.2587C78.0254 16.3696 77.7692 16.4594 77.5065 16.5377ZM73.5743 14.8147H75.4604C76.0152 14.8147 76.4949 14.7233 76.9012 14.5406C77.3074 14.3578 77.624 14.0886 77.854 13.7296C78.0841 13.3707 78.1983 12.9416 78.1983 12.4423C78.1983 11.9283 78.0841 11.4959 77.854 11.1435C77.624 10.7927 77.3058 10.5218 76.9012 10.3326C76.4949 10.1433 76.0152 10.0487 75.4604 10.0487H73.5743V14.8147ZM94.2846 7.97976H91.3835L86.1101 13.8977V7.97976H83.6561V22.1799H86.1101V15.5473L91.6283 22.1799H94.5897L88.2818 14.6336L94.2846 7.97976ZM104.761 15.4037C104.417 15.0659 104.03 14.782 103.604 14.552C103.179 14.3219 102.749 14.1326 102.317 13.9842C101.56 13.7133 100.945 13.4506 100.472 13.1928C99.9986 12.9367 99.6494 12.6625 99.4275 12.3705C99.2039 12.0801 99.093 11.7521 99.093 11.3866C99.093 10.9803 99.248 10.6263 99.5596 10.3212C99.8713 10.0177 100.358 9.8643 101.02 9.8643C101.493 9.8643 101.909 9.95567 102.268 10.1384C102.625 10.3212 102.94 10.5643 103.211 10.8694C103.482 11.1729 103.711 11.5008 103.901 11.8533L105.828 10.7584C105.598 10.2575 105.267 9.77782 104.835 9.3177C104.402 8.85758 103.874 8.47578 103.252 8.17229C102.63 7.86718 101.899 7.71544 101.061 7.71544C100.209 7.71544 99.4487 7.87697 98.7781 8.20166C98.1091 8.52636 97.5772 8.97669 97.1856 9.55102C96.794 10.1254 96.5966 10.7927 96.5966 11.5498C96.5966 12.2122 96.7255 12.7768 96.9817 13.2434C97.2378 13.7101 97.5625 14.1016 97.9557 14.4198C98.3473 14.738 98.7601 15.0007 99.1925 15.2112C99.6249 15.4216 100.017 15.5864 100.369 15.7088C100.964 15.9258 101.491 16.1444 101.952 16.368C102.412 16.5915 102.766 16.8624 103.017 17.1789C103.267 17.4971 103.392 17.9131 103.392 18.4271C103.392 18.9949 103.19 19.455 102.784 19.8058C102.377 20.1583 101.85 20.3328 101.201 20.3328C100.674 20.3328 100.189 20.2186 99.7505 19.9886C99.3116 19.7585 98.9119 19.4403 98.5529 19.0357C98.194 18.6294 97.8595 18.1497 97.5495 17.595L95.7645 18.853C96.0761 19.5023 96.4971 20.1044 97.0322 20.6575C97.5658 21.2123 98.1891 21.6545 98.8988 21.9857C99.6086 22.3169 100.375 22.4833 101.201 22.4833C101.81 22.4833 102.394 22.3854 102.955 22.1896C103.516 21.9938 104.021 21.7165 104.466 21.3575C104.913 20.9986 105.267 20.5564 105.531 20.0294C105.796 19.5023 105.926 18.9068 105.926 18.2444C105.926 17.6227 105.819 17.0777 105.602 16.6111C105.388 16.1428 105.107 15.7414 104.761 15.4037ZM118.16 12.3803C118.16 13.2858 117.947 14.0706 117.521 14.7331C117.095 15.3955 116.503 15.9062 115.745 16.2652C114.988 16.6241 114.089 16.802 113.048 16.802H111.162V22.1782H108.769V7.97976H110.188H111.162H113.048C114.089 7.97976 114.988 8.15924 115.745 8.5182C116.503 8.87716 117.095 9.38297 117.521 10.0389C117.947 10.6948 118.16 11.4747 118.16 12.3803ZM115.786 12.3803C115.786 11.6232 115.537 11.0521 115.036 10.6654C114.535 10.2804 113.872 10.0878 113.048 10.0878H111.162V14.6923H113.048C113.872 14.6923 114.536 14.4965 115.036 14.1033C115.537 13.7133 115.786 13.139 115.786 12.3803ZM124.894 7.18842L131.851 22.1782H129.135L127.506 18.5266H122.272L120.655 22.1782H117.958L124.894 7.18842ZM124.894 11.9952L122.967 16.4985H126.834L124.894 11.9952ZM139.823 7.71544C138.782 7.71544 137.812 7.89492 136.913 8.25224C136.014 8.6112 135.232 9.11864 134.57 9.77292C133.907 10.4288 133.39 11.2071 133.018 12.1062C132.646 13.0052 132.46 13.9956 132.46 15.0774C132.46 16.1461 132.646 17.13 133.018 18.029C133.39 18.928 133.907 19.7096 134.57 20.372C135.232 21.0344 136.014 21.5419 136.913 21.8927C137.812 22.2435 138.782 22.4197 139.823 22.4197C140.864 22.4197 141.734 22.2908 142.431 22.0346C143.127 21.7785 143.765 21.4065 144.348 20.9186V18.0584C144.023 18.4516 143.645 18.7991 143.212 19.1026C142.78 19.4061 142.289 19.6476 141.742 19.8221C141.194 19.9984 140.582 20.0865 139.907 20.0865C139.04 20.0865 138.242 19.8776 137.513 19.4583C136.782 19.039 136.191 18.4548 135.738 17.7043C135.284 16.9537 135.059 16.0775 135.059 15.0774C135.059 14.0625 135.286 13.1814 135.738 12.4309C136.19 11.6803 136.782 11.0994 137.513 10.6866C138.242 10.2738 139.04 10.0682 139.907 10.0682C140.582 10.0682 141.194 10.1564 141.742 10.3326C142.29 10.5088 142.78 10.7486 143.212 11.0521C143.645 11.3556 144.023 11.6982 144.348 12.0768V9.23612C143.767 8.73684 143.127 8.35667 142.431 8.1005C141.734 7.84434 140.864 7.71544 139.823 7.71544ZM149.174 7.97976H147.694V22.1799H149.174H150.047H156.336V20.0702H150.047V15.6076H155.929V13.5387H150.047V10.0911H156.336V7.97976H150.047H149.174ZM177.137 11.336C177.752 12.3982 178.061 13.6448 178.061 15.079C178.061 16.5132 177.752 17.7598 177.137 18.822C176.522 19.8841 175.667 20.7081 174.571 21.2971C173.476 21.8862 172.203 22.1799 170.758 22.1799H168.628H167.654H166.174V7.97976H167.654H168.628H170.758C172.205 7.97976 173.476 8.27345 174.571 8.86247C175.667 9.44986 176.522 10.2755 177.137 11.336ZM175.605 15.079C175.605 14.2811 175.479 13.5779 175.23 12.9693C174.979 12.3607 174.634 11.8533 174.195 11.4486C173.756 11.0423 173.239 10.7388 172.644 10.5349C172.048 10.3326 171.399 10.2314 170.696 10.2314H168.627V19.9282H170.696C171.399 19.9282 172.048 19.8238 172.644 19.6133C173.239 19.4044 173.756 19.0993 174.195 18.7012C174.634 18.3031 174.98 17.7989 175.23 17.1903C175.481 16.5801 175.605 15.8769 175.605 15.079ZM180.799 22.1782H183.233V7.97976H180.799V22.1782ZM193.537 16.7824H197.898C197.776 17.2556 197.595 17.7027 197.35 18.122C197.107 18.5413 196.802 18.9133 196.436 19.238C196.071 19.5627 195.638 19.8124 195.137 19.9886C194.636 20.1648 194.069 20.2529 193.434 20.2529C192.501 20.2529 191.662 20.0375 190.918 19.6035C190.174 19.1711 189.587 18.5658 189.153 17.7875C188.72 17.0108 188.503 16.1069 188.503 15.079C188.503 14.038 188.723 13.1357 189.162 12.3705C189.601 11.6069 190.197 11.0113 190.947 10.5855C191.698 10.1596 192.527 9.94588 193.432 9.94588C194.419 9.94588 195.261 10.1482 195.958 10.5545C196.655 10.9608 197.198 11.5008 197.591 12.178L199.538 10.8792C199.119 10.2167 198.611 9.65219 198.017 9.18554C197.422 8.71889 196.743 8.35667 195.979 8.1005C195.216 7.84434 194.367 7.71544 193.434 7.71544C192.365 7.71544 191.378 7.89492 190.473 8.25224C189.567 8.6112 188.776 9.11864 188.098 9.77292C187.421 10.4288 186.898 11.2071 186.526 12.1062C186.154 13.0052 185.968 13.9956 185.968 15.0774C185.968 16.1591 186.15 17.1528 186.516 18.0584C186.881 18.9639 187.399 19.7487 188.068 20.4112C188.736 21.0736 189.525 21.5843 190.43 21.9433C191.336 22.3006 192.323 22.4801 193.392 22.4801C194.527 22.4801 195.536 22.2745 196.413 21.8617C197.293 21.4489 198.029 20.8843 198.624 20.1681C199.22 19.4518 199.665 18.6294 199.964 17.7027C200.261 16.7759 200.396 15.792 200.37 14.751H193.533V16.7824H193.537ZM203.234 22.1782H205.668V7.97976H203.234V22.1782ZM217.696 7.97976H207.797V10.1906H211.55V22.1782H213.944V10.1906H217.696V7.97976ZM223.234 7.18842L230.191 22.1782H227.473L225.845 18.5266H220.61L218.993 22.1782H216.296L223.234 7.18842ZM223.234 11.9952L221.307 16.4985H225.174L223.234 11.9952ZM234.613 7.97976H232.219V22.1799H240.252V20.0294H234.613V7.97976ZM254.289 7.18842L261.246 22.1782H258.528L256.9 18.5266H251.665L250.048 22.1782H247.351L254.289 7.18842ZM254.289 11.9952L252.362 16.4985H256.229L254.289 11.9952ZM277.169 7.97976L273.864 17.4726L269.767 7.27L265.75 17.4726L262.362 7.97976H259.584L265.386 22.9304L269.767 12.8893L274.148 22.9304L279.969 7.97976H277.169ZM285.243 7.18842L292.2 22.1782H289.482L287.853 18.5266H282.619L281.002 22.1782H278.305L285.243 7.18842ZM285.243 11.9952L283.316 16.4985H287.183L285.243 11.9952ZM300.554 16.5377L304.574 22.1799H301.673L298.1 16.8036H296.622V22.1799H294.228V7.97976H295.648H296.622H298.609C299.65 7.97976 300.549 8.1625 301.306 8.52799C302.063 8.89347 302.655 9.40418 303.081 10.0601C303.507 10.716 303.721 11.491 303.721 12.3835C303.721 13.276 303.507 14.0543 303.081 14.7168C302.655 15.3792 302.063 15.8932 301.306 16.2587C301.073 16.3696 300.818 16.4594 300.554 16.5377ZM296.623 14.8147H298.509C299.064 14.8147 299.544 14.7233 299.95 14.5406C300.356 14.3578 300.673 14.0886 300.903 13.7296C301.133 13.3707 301.247 12.9416 301.247 12.4423C301.247 11.9283 301.133 11.4959 300.903 11.1435C300.673 10.7927 300.355 10.5218 299.95 10.3326C299.544 10.1433 299.064 10.0487 298.509 10.0487H296.623V14.8147ZM317.668 11.336C318.283 12.3982 318.592 13.6448 318.592 15.079C318.592 16.5132 318.283 17.7598 317.668 18.822C317.053 19.8841 316.198 20.7081 315.101 21.2971C314.007 21.8862 312.734 22.1799 311.288 22.1799H309.159H308.185H306.705V7.97976H308.185H309.159H311.288C312.736 7.97976 314.007 8.27345 315.101 8.86247C316.196 9.44986 317.051 10.2755 317.668 11.336ZM316.136 15.079C316.136 14.2811 316.01 13.5779 315.761 12.9693C315.509 12.3607 315.165 11.8533 314.726 11.4486C314.287 11.0423 313.77 10.7388 313.175 10.5349C312.579 10.3326 311.93 10.2314 311.226 10.2314H309.157V19.9282H311.226C311.93 19.9282 312.579 19.8238 313.175 19.6133C313.77 19.4044 314.287 19.0993 314.726 18.7012C315.165 18.3031 315.511 17.7989 315.761 17.1903C316.01 16.5801 316.136 15.8769 316.136 15.079ZM330.315 16.6111C330.098 16.1444 329.817 15.7431 329.473 15.4037C329.129 15.0659 328.742 14.782 328.316 14.552C327.89 14.3219 327.461 14.1326 327.029 13.9842C326.272 13.7133 325.657 13.4506 325.183 13.1928C324.71 12.9367 324.361 12.6625 324.139 12.3705C323.916 12.0801 323.805 11.7521 323.805 11.3866C323.805 10.9803 323.96 10.6263 324.271 10.3212C324.583 10.0177 325.069 9.8643 325.732 9.8643C326.205 9.8643 326.621 9.95567 326.98 10.1384C327.337 10.3212 327.652 10.5643 327.923 10.8694C328.194 11.1729 328.422 11.5008 328.613 11.8533L330.54 10.7584C330.31 10.2575 329.979 9.77782 329.546 9.3177C329.114 8.85758 328.585 8.47578 327.964 8.17229C327.342 7.86718 326.611 7.71544 325.772 7.71544C324.921 7.71544 324.16 7.87697 323.49 8.20166C322.821 8.52636 322.289 8.97669 321.897 9.55102C321.506 10.1254 321.308 10.7927 321.308 11.5498C321.308 12.2122 321.437 12.7768 321.693 13.2434C321.949 13.7101 322.274 14.1016 322.667 14.4198C323.059 14.738 323.472 15.0007 323.904 15.2112C324.337 15.4216 324.728 15.5864 325.081 15.7088C325.676 15.9258 326.203 16.1444 326.663 16.368C327.123 16.5915 327.477 16.8624 327.729 17.1789C327.978 17.4971 328.104 17.9131 328.104 18.4271C328.104 18.9949 327.902 19.455 327.495 19.8058C327.089 20.1583 326.562 20.3328 325.913 20.3328C325.386 20.3328 324.901 20.2186 324.462 19.9886C324.023 19.7585 323.623 19.4403 323.266 19.0357C322.907 18.6294 322.573 18.1497 322.263 17.595L320.478 18.853C320.789 19.5023 321.21 20.1044 321.745 20.6575C322.279 21.2123 322.902 21.6545 323.612 21.9857C324.322 22.3169 325.089 22.4833 325.914 22.4833C326.523 22.4833 327.107 22.3854 327.668 22.1896C328.23 21.9938 328.734 21.7165 329.179 21.3575C329.626 20.9986 329.98 20.5564 330.245 20.0294C330.509 19.5023 330.64 18.9068 330.64 18.2444C330.64 17.6211 330.532 17.0761 330.315 16.6111Z" fill="#1C1C20"/>
</g>
<defs>
<clipPath id="clip0_1293_61704">
<rect width="331" height="29" fill="white" transform="translate(0 0.0461731)"/>
</clipPath>
</defs>
</svg>
