<svg width="173" height="116" viewBox="0 0 173 116" fill="none" xmlns="http://www.w3.org/2000/svg">
<path fill-rule="evenodd" clip-rule="evenodd" d="M46.4895 46.2337C46.459 46.3144 46.434 46.4262 46.434 46.4822C46.434 46.5382 46.3828 46.7336 46.3201 46.9165C46.2575 47.0994 46.2063 47.3094 46.2063 47.3832C46.2063 47.5083 46.2281 47.5172 46.5352 47.5172H46.8643L46.9657 47.174L47.0671 46.8307H51.6073H56.1475L56.4169 47.0023C56.565 47.0967 56.7115 47.174 56.7425 47.174C56.7736 47.174 56.9612 47.277 57.1595 47.4028C57.3578 47.5287 57.5441 47.6317 57.5735 47.6317C57.6029 47.6317 57.677 47.6708 57.7382 47.7186C57.7993 47.7665 58.1056 47.9699 58.4187 48.1707C58.7319 48.3716 59.03 48.5741 59.0812 48.6207C59.1323 48.6674 59.2598 48.7664 59.3643 48.8409C59.5304 48.9592 60.2978 49.5726 60.5498 49.7886C60.599 49.8307 60.9851 50.2067 61.4078 50.6242C62.1196 51.327 62.8145 52.1256 63.17 52.6494C63.2511 52.7689 63.4002 52.98 63.5013 53.1184C63.6024 53.2569 63.6852 53.4049 63.6852 53.4474C63.6852 53.4899 63.7103 53.5246 63.741 53.5246C63.7716 53.5246 63.8494 53.6212 63.9139 53.7392C63.9783 53.8572 64.0877 54.0491 64.157 54.1657C64.5152 54.7683 64.5961 54.9177 64.5964 54.9765C64.5965 55.0118 64.6513 55.1309 64.7183 55.241C64.7851 55.3512 64.8975 55.5958 64.9679 55.7846C65.0383 55.9734 65.1733 56.3209 65.268 56.5569C65.5047 57.1472 65.8435 58.2878 65.9052 58.7024C65.9332 58.8912 65.9943 59.2388 66.0409 59.4748C66.0875 59.7108 66.1552 60.1276 66.1913 60.401C66.2551 60.8836 66.252 60.9142 66.0855 61.4594C65.7735 62.4816 65.5605 63.2159 65.425 63.7372C65.3515 64.0204 65.2377 64.4066 65.1721 64.5954C65.1067 64.7842 65.0302 65.0545 65.0022 65.1961C64.9743 65.3378 64.8698 65.7239 64.77 66.0543C64.6702 66.3848 64.5242 66.8739 64.4455 67.1414C64.3668 67.4089 64.2625 67.7372 64.2138 67.8709L64.1252 68.114H52.5122C41.4743 68.114 40.9012 68.109 40.9406 68.0139C40.9635 67.9589 40.9951 67.7915 41.0109 67.642L41.0397 67.3703H40.7293H40.419L40.2694 67.8423C40.187 68.1019 40.1027 68.4365 40.0821 68.586L40.0444 68.8578H52.3681H64.6918L64.7657 68.5288C64.8064 68.3479 64.9386 67.8897 65.0595 67.5105C65.1804 67.1314 65.2797 66.7839 65.28 66.7382C65.2804 66.6925 65.3829 66.3344 65.5078 65.9424C65.6327 65.5505 65.7354 65.19 65.7361 65.1415C65.7368 65.0929 65.8392 64.7442 65.9637 64.3666C66.0882 63.9889 66.1901 63.6401 66.1901 63.5914C66.1902 63.5427 66.2928 63.1835 66.418 62.7932C66.5433 62.4029 66.6458 62.0437 66.6459 61.995C66.646 61.9463 66.7479 61.5974 66.8724 61.2198C66.9969 60.8422 67.0993 60.4934 67.1 60.4446C67.1007 60.396 67.2037 60.0368 67.329 59.6465C67.4542 59.2562 67.5567 58.899 67.5567 58.8527C67.5567 58.8065 67.6568 58.4448 67.7791 58.049C68.0607 57.1371 68.3541 56.1377 68.4271 55.8418C68.4582 55.7159 68.5798 55.2911 68.6975 54.8978C69.0701 53.6528 69.2799 52.9311 69.3379 52.695C69.3688 52.5692 69.4931 52.1485 69.6141 51.7602C69.7351 51.3719 69.8341 51.0106 69.8341 50.9574C69.8341 50.9042 69.9362 50.5525 70.061 50.1759C70.1858 49.7993 70.2883 49.4457 70.2887 49.3902C70.2892 49.3347 70.3921 48.9779 70.5173 48.5973C70.6426 48.2167 70.7451 47.8623 70.7451 47.8097C70.7451 47.757 70.8471 47.4058 70.9719 47.0292C71.0967 46.6525 71.1992 46.2865 71.1997 46.2156L71.2005 46.0869H58.8728H46.545L46.4895 46.2337ZM77.2701 46.1774C77.2511 46.2272 77.2356 46.3178 77.2356 46.3787C77.2356 46.4396 77.1459 46.7683 77.0363 47.109C76.9267 47.4496 76.837 47.7839 76.837 47.8517V47.975H88.7696C98.2924 47.975 100.697 47.9894 100.675 48.0465C100.659 48.0858 100.592 48.3626 100.525 48.6615C100.458 48.9605 100.303 49.6427 100.181 50.1777C99.95 51.1852 99.6534 52.4863 99.2611 54.2112C99.1359 54.7619 98.9418 55.5857 98.8297 56.042C98.7177 56.4983 98.609 56.9875 98.5884 57.1291C98.5676 57.2707 98.4539 57.7985 98.3356 58.3019C98.2173 58.8054 98.0184 59.6679 97.8937 60.2186C97.769 60.7693 97.5753 61.5931 97.4633 62.0494C97.3513 62.5057 97.2495 62.9562 97.2371 63.0506C97.2247 63.1451 97.1126 63.66 96.9881 64.1949C96.8636 64.7299 96.6619 65.6052 96.54 66.1402C96.4181 66.6751 96.2393 67.4501 96.1427 67.8623C95.884 68.9662 95.8074 68.8578 96.8455 68.8578H97.7239L97.8134 68.5486C97.8626 68.3786 97.9028 68.1841 97.9028 68.1164C97.9028 68.0487 98.0027 67.5763 98.1247 67.0667C98.2468 66.5571 98.4527 65.6767 98.5822 65.1103C98.8035 64.1428 98.9243 63.6121 99.4873 61.134C100.358 57.3022 100.619 56.1696 100.846 55.241C100.957 54.7848 101.069 54.2778 101.093 54.1144C101.117 53.9511 101.229 53.4361 101.34 52.9701C101.452 52.5042 101.648 51.6595 101.777 51.0931C101.906 50.5267 102.103 49.6899 102.215 49.2336C102.326 48.7774 102.43 48.3075 102.444 48.1895L102.47 47.975H117.626H132.783L132.964 47.769C133.064 47.6558 133.2 47.4869 133.266 47.3938C133.332 47.3007 133.46 47.143 133.55 47.0435C133.641 46.9439 133.715 46.844 133.715 46.8215C133.715 46.7989 133.791 46.6959 133.885 46.5926C133.989 46.4783 134.056 46.3424 134.056 46.2458V46.0869H105.68C79.858 46.0869 77.3016 46.095 77.2701 46.1774ZM50.9593 47.5888C50.806 48.0114 50.5331 48.9052 50.5324 48.9865C50.532 49.0438 50.4946 49.1936 50.4496 49.3195C50.4044 49.4453 50.3664 49.6191 50.365 49.7057C50.3629 49.8363 50.3868 49.863 50.5059 49.863C50.5848 49.863 50.8346 49.9308 51.061 50.0136C51.2875 50.0965 51.6136 50.2127 51.7859 50.2719C51.9581 50.3311 52.2912 50.4666 52.526 50.5732C52.7609 50.6798 53.0171 50.7949 53.0954 50.8292C53.2483 50.8961 53.8784 51.2452 54.4785 51.5955C54.6823 51.7144 54.9448 51.8882 55.0618 51.9817C55.1788 52.0751 55.3082 52.1515 55.3493 52.1515C55.3904 52.1515 55.4445 52.1838 55.4695 52.2233C55.4946 52.2629 55.7137 52.4437 55.9563 52.6252C56.199 52.8067 56.3976 52.9804 56.3976 53.0111C56.3976 53.0418 56.434 53.0669 56.4785 53.0669C56.523 53.0669 56.6472 53.1699 56.7544 53.2958C56.8616 53.4217 56.9695 53.5246 56.994 53.5246C57.064 53.5246 57.764 54.246 57.764 54.3182C57.764 54.3538 57.7932 54.3828 57.8289 54.3828C57.8646 54.3828 57.9222 54.4187 57.957 54.4625C57.9917 54.5064 58.27 54.8528 58.5753 55.2325C58.8806 55.6122 59.1304 55.9457 59.1304 55.9735C59.1304 56.0015 59.1831 56.0722 59.2476 56.1309C59.4212 56.2888 60.0578 57.3566 60.3884 58.0445C60.4565 58.1861 60.6112 58.4981 60.7322 58.7379C60.8533 58.9776 60.9523 59.2057 60.9523 59.2448C60.9523 59.284 61.0516 59.577 61.1729 59.896C61.2943 60.215 61.4389 60.6563 61.4943 60.8765C61.5497 61.0968 61.6551 61.5088 61.7286 61.792C61.8021 62.0752 61.8629 62.397 61.8637 62.5071C61.8646 62.6173 61.9037 62.9391 61.9508 63.2223C62.1252 64.273 62.1208 65.8432 61.9397 67.1714L61.9044 67.4299L63.0652 67.4144L64.2261 67.3989L64.2648 67.0842C64.2861 66.9111 64.3214 66.2932 64.3432 65.7111C64.3899 64.4622 64.3169 63.3819 64.1039 62.1753C64.0223 61.7127 63.9361 61.2049 63.9125 61.047C63.8887 60.889 63.831 60.6444 63.7842 60.5035C63.7374 60.3625 63.6433 60.0541 63.5751 59.8181C63.3868 59.1673 63.2741 58.8229 63.2288 58.7597C63.2063 58.7282 63.1338 58.5432 63.0678 58.3485C63.0017 58.1539 62.8598 57.8063 62.7524 57.5761C62.6449 57.346 62.5293 57.0933 62.4955 57.0146C62.4297 56.8617 62.0849 56.2329 61.7334 55.6247C61.615 55.4199 61.4421 55.1561 61.3491 55.0386C61.2561 54.921 61.1801 54.791 61.1801 54.7497C61.1801 54.7084 61.1464 54.654 61.1053 54.6289C61.0642 54.6037 60.9121 54.4148 60.7674 54.2091C60.6226 54.0034 60.4513 53.787 60.3866 53.7282C60.322 53.6694 60.2691 53.5909 60.2691 53.5538C60.2691 53.5167 60.1986 53.4204 60.1125 53.3398C60.0264 53.2592 59.8407 53.0592 59.6998 52.8952C59.1621 52.2696 57.9014 51.0705 57.7015 50.9948C57.6419 50.9722 57.5932 50.9304 57.5932 50.9018C57.5932 50.8733 57.4054 50.7195 57.1759 50.56C56.9464 50.4006 56.7255 50.23 56.685 50.181C56.6445 50.1319 56.5859 50.0918 56.5548 50.0918C56.5237 50.0918 56.3678 49.9956 56.2084 49.878C56.049 49.7605 55.8278 49.6161 55.7168 49.5572C55.6059 49.4984 55.4335 49.3886 55.3338 49.3133C55.2342 49.238 55.1189 49.1762 55.0776 49.1759C55.0364 49.1756 54.8415 49.0726 54.6445 48.947C54.4475 48.8215 54.2506 48.7187 54.2068 48.7187C54.163 48.7187 53.9399 48.6161 53.7109 48.4907C53.482 48.3653 53.2494 48.2623 53.1942 48.2618C53.139 48.2614 53.0493 48.2362 52.9949 48.2058C52.774 48.0825 52.3549 47.918 52.1204 47.8627C51.9834 47.8304 51.6919 47.7395 51.4727 47.6608C51.0127 47.4957 50.994 47.493 50.9593 47.5888ZM43.6144 47.932C43.4441 48.3967 43.2433 49.1337 43.2125 49.4069L43.1739 49.7495L46.2685 49.7348L49.363 49.72L49.4037 49.4806C49.426 49.349 49.5228 48.9857 49.6187 48.6733C49.7146 48.3609 49.7932 48.0502 49.7932 47.9829V47.8605H46.7169C44.3079 47.8605 43.6349 47.876 43.6144 47.932ZM49.0325 48.5614C49.016 48.6008 48.9724 48.7423 48.9356 48.8761L48.8687 49.1192H46.4002H43.9317L43.9625 48.9333C43.9795 48.831 44.005 48.6894 44.0191 48.6186L44.0449 48.4899H46.5537C48.5388 48.4899 49.0562 48.5048 49.0325 48.5614ZM76.5063 48.9122C76.4377 49.113 76.3809 49.3254 76.3801 49.3842C76.3794 49.443 76.3282 49.6431 76.2663 49.8289C76.0898 50.3592 76.0972 50.3779 76.4855 50.3779C77.368 50.3779 79.0207 50.6273 79.9969 50.9078C80.2161 50.9707 80.4211 51.042 80.4524 51.0661C80.4837 51.0903 80.6409 51.149 80.8017 51.1966C81.4893 51.4004 82.7149 52.1384 83.3272 52.7174C83.5306 52.9096 83.7104 53.0669 83.727 53.0669C83.7435 53.0669 83.8974 53.2501 84.0689 53.4739C84.2405 53.6978 84.4129 53.9148 84.452 53.9561C84.4912 53.9975 84.5232 54.063 84.5232 54.1016C84.5232 54.1402 84.5833 54.2515 84.6568 54.3489C84.8556 54.6124 85.0034 54.982 85.2424 55.8132C85.387 56.3161 85.4846 57.3771 85.4128 57.6648L85.3751 57.8156H79.6588H73.9427L73.8176 58.1932C73.6796 58.61 73.5437 59.1587 73.4965 59.4891L73.466 59.7037H79.1654C82.9245 59.7037 84.8648 59.7231 84.8648 59.7608C84.8648 59.8477 84.3839 60.8075 84.2158 61.056C84.1343 61.1765 84.0677 61.3055 84.0677 61.3428C84.0677 61.38 84.0485 61.4191 84.025 61.4296C84.0015 61.4401 83.8678 61.6032 83.7279 61.792C83.2517 62.4345 82.5319 63.2499 82.4404 63.2505C82.4065 63.2507 82.2964 63.3539 82.1957 63.4797C82.0951 63.6056 81.9764 63.7086 81.932 63.7086C81.8876 63.7086 81.8269 63.7544 81.7971 63.8103C81.7503 63.8982 81.2065 64.3099 80.5378 64.7635C80.2056 64.9889 79.2409 65.5394 79.1782 65.5394C79.1459 65.5394 78.9916 65.6152 78.8354 65.7077C78.6792 65.8003 78.4282 65.9175 78.2778 65.9683C78.1273 66.019 77.8121 66.1362 77.5772 66.2287C77.1284 66.4054 76.1159 66.6871 75.4422 66.8225C74.4952 67.013 73.0892 67.0796 71.5185 67.0085L71.2956 66.9984L71.1347 67.4847C70.9966 67.9022 70.8022 68.6796 70.802 68.8149C70.802 68.8385 71.6667 68.8571 72.7235 68.8561C74.552 68.8545 74.6809 68.8473 75.3852 68.7077C75.7923 68.627 76.3175 68.5248 76.5524 68.4805C76.7872 68.4362 77.2484 68.3099 77.5772 68.1997C77.906 68.0895 78.2647 67.97 78.3743 67.9341C78.4839 67.8983 78.7343 67.7954 78.9308 67.7055C79.1273 67.6155 79.3097 67.5419 79.336 67.5419C79.3784 67.5419 80.2639 67.0925 80.8633 66.7669C81.0845 66.6468 81.5688 66.3366 81.6195 66.2826C81.6352 66.2659 81.7121 66.2204 81.7903 66.1814C82.1606 65.997 83.4739 64.8705 84.0107 64.277C84.4836 63.754 85.2064 62.8696 85.2064 62.8138C85.2064 62.7927 85.2663 62.6957 85.3394 62.5983C85.5113 62.3695 86.1005 61.3349 86.1513 61.1729C86.1728 61.1043 86.2731 60.8769 86.3743 60.6675C86.4755 60.4582 86.5713 60.2136 86.5871 60.124C86.603 60.0344 86.6963 59.7037 86.7945 59.389C87.1752 58.1688 87.1922 55.8294 86.8281 54.7756C86.748 54.5438 86.6578 54.3095 86.6276 54.2549C86.5975 54.2003 86.5729 54.1192 86.5729 54.0747C86.5729 53.9883 86.259 53.3606 86.1705 53.27C86.1413 53.2401 86.1173 53.1758 86.1173 53.127C86.1173 53.0782 86.0596 52.9698 85.9892 52.8861C85.9188 52.8024 85.7459 52.5715 85.605 52.3729C85.3179 51.9684 84.5562 51.1894 84.1243 50.8583C83.9679 50.7385 83.84 50.62 83.84 50.595C83.84 50.57 83.7966 50.5495 83.7435 50.5495C83.6904 50.5495 83.5815 50.4881 83.5015 50.413C83.4215 50.3379 83.1767 50.1788 82.9575 50.0595C82.7383 49.9401 82.4821 49.7957 82.3882 49.7385C82.2942 49.6813 82.1868 49.6345 82.1496 49.6344C82.1123 49.6343 81.8609 49.5312 81.5911 49.4053C81.3212 49.2794 81.0629 49.1764 81.0171 49.1764C80.9712 49.1764 80.6272 49.0852 80.2525 48.9737C79.8779 48.8622 79.3597 48.7466 79.1009 48.7168C78.8422 48.6871 78.4383 48.6375 78.2035 48.6067C77.9686 48.5759 77.5187 48.5498 77.2037 48.5489L76.6309 48.5471L76.5063 48.9122ZM92.8444 49.3338C92.6193 49.7665 92.3317 50.3264 92.2051 50.5782C92.0785 50.8299 91.8585 51.2547 91.716 51.5222C91.5736 51.7896 91.3675 52.1885 91.2579 52.4086C91.1483 52.6287 91.0101 52.8773 90.9508 52.961C90.8914 53.0447 90.8429 53.1391 90.8429 53.1709C90.8429 53.2026 90.7405 53.4071 90.6152 53.6254C90.4899 53.8438 90.3875 54.0649 90.3875 54.1168C90.3875 54.1687 90.3618 54.2112 90.3305 54.2112C90.2992 54.2112 90.2731 54.2434 90.2726 54.2827C90.272 54.3221 90.1951 54.4675 90.1018 54.606C90.0084 54.7445 89.93 54.899 89.9275 54.9492C89.925 54.9996 89.8486 55.1566 89.7576 55.2983C89.6666 55.4399 89.5628 55.6201 89.5269 55.6987C89.3692 56.044 89.1642 56.4199 89.0956 56.4895C89.0546 56.5311 89.021 56.6091 89.021 56.6627C89.021 56.7164 88.983 56.8149 88.9365 56.8815C88.8901 56.9482 88.637 57.4238 88.374 57.9384C87.8062 59.0498 87.5239 59.593 86.9959 60.5905C86.3894 61.7363 86.0854 62.3259 85.8665 62.7816C85.7562 63.0112 85.6138 63.2657 85.55 63.3471C85.4863 63.4285 85.4342 63.5308 85.4342 63.5743C85.4342 63.6179 85.3317 63.823 85.2064 64.0301C85.0812 64.2374 84.9787 64.4277 84.9787 64.4531C84.9787 64.4785 84.8762 64.6811 84.7509 64.9032C84.6257 65.1253 84.5232 65.3226 84.5232 65.3418C84.5232 65.3608 84.4207 65.5528 84.2955 65.7683C84.1702 65.9838 84.0675 66.1942 84.0672 66.2359C84.0669 66.2777 83.9644 66.4738 83.8394 66.6717C83.7145 66.8696 83.6123 67.0567 83.6123 67.0873C83.6123 67.1181 83.5343 67.2779 83.4389 67.4426C83.2345 67.7957 83.2265 67.8106 82.9945 68.2643C82.6842 68.871 82.6685 68.8578 83.697 68.8578H84.5788L84.8041 68.4144C84.928 68.1706 85.1326 67.765 85.2589 67.5133C85.453 67.1263 85.7455 66.5692 86.0476 66.0114C86.086 65.9406 86.1424 65.8324 86.1731 65.771C86.2037 65.7096 86.3477 65.4328 86.4931 65.1559C86.6384 64.8791 86.8156 64.5368 86.8868 64.3952C86.958 64.2536 87.0745 64.0218 87.1457 63.8802C87.2169 63.7386 87.3222 63.5614 87.3795 63.4863C87.4369 63.4113 87.4838 63.3143 87.4838 63.2709C87.4838 63.2275 87.5618 63.0572 87.6572 62.8925C87.8861 62.497 87.8934 62.4832 88.1169 62.0356C88.2228 61.8235 88.3285 61.6497 88.3521 61.6494C88.3756 61.6492 88.3949 61.6038 88.395 61.5488C88.3951 61.4938 88.442 61.3714 88.4992 61.277C88.5979 61.1141 89.1347 60.1066 89.2377 59.8909C89.3411 59.6746 89.5566 59.2531 89.8162 58.7597C89.9652 58.4764 90.2634 57.91 90.4788 57.501C90.9655 56.577 91.3355 55.8637 91.6367 55.2696C91.7643 55.0179 91.9114 54.7347 91.9636 54.6403C92.0158 54.5459 92.1097 54.3657 92.172 54.2398C92.2344 54.1139 92.3324 53.9496 92.3897 53.8745C92.4471 53.7994 92.494 53.7041 92.494 53.6625C92.494 53.6209 92.5662 53.4635 92.6544 53.3126C92.7426 53.1617 92.9283 52.8089 93.0671 52.5284C93.2839 52.0906 93.3215 52.0421 93.3328 52.1852C93.3687 52.6388 93.5298 59.7596 93.5756 62.9233C93.6043 64.8988 93.6456 67.0421 93.6674 67.6864L93.7071 68.8578H94.5809H95.4546L95.4569 68.5574C95.4582 68.3923 95.407 65.8369 95.3432 62.879C95.1634 54.5373 95.0519 49.1169 95.0541 48.8188L95.0561 48.5471H94.1548H93.2535L92.8444 49.3338ZM110.798 48.6415C110.485 48.6862 110.108 48.7497 109.96 48.7829C109.53 48.879 108.211 49.3181 107.838 49.4892C107.24 49.7632 106.316 50.2539 106.272 50.3204C106.257 50.3442 106.154 50.4118 106.044 50.4709C105.819 50.5924 105.399 50.8995 105.371 50.9643C105.36 50.9879 105.318 51.0073 105.278 51.0073C105.237 51.0073 105.101 51.1102 104.976 51.2361C104.851 51.362 104.724 51.465 104.694 51.465C104.664 51.465 104.548 51.5679 104.435 51.6938C104.323 51.8197 104.215 51.9227 104.195 51.9227C104.175 51.9227 104.007 52.0836 103.821 52.2803C103.634 52.4769 103.392 52.7295 103.283 52.8416C103.173 52.9536 103.084 53.0714 103.084 53.1034C103.084 53.1353 103.017 53.2238 102.936 53.3001C102.811 53.4179 102.394 53.9923 102.201 54.3121C102.17 54.3642 102.068 54.5251 101.974 54.6696C101.605 55.2371 100.9 56.8155 100.805 57.2857C100.781 57.4041 100.693 57.7584 100.61 58.0731C100.312 59.195 100.283 61.4735 100.554 62.5357C100.903 63.9099 101.358 64.9157 101.981 65.6933C102.482 66.3184 103.229 67.0842 103.338 67.0842C103.359 67.0842 103.496 67.1822 103.643 67.302C104.203 67.7598 105.152 68.2565 105.874 68.469C107.278 68.8828 107.155 68.8684 109.089 68.8428C110.808 68.82 110.87 68.8152 111.396 68.6632C111.694 68.5773 112.04 68.4861 112.165 68.4604C112.419 68.4084 112.761 68.2914 112.848 68.2268C112.879 68.2036 113.085 68.1196 113.306 68.0403C113.527 67.961 113.842 67.8165 114.006 67.719C114.17 67.6216 114.331 67.5419 114.363 67.5419C114.395 67.5419 114.529 67.4691 114.66 67.3801C114.791 67.2912 115.039 67.135 115.211 67.0332C115.598 66.8042 115.97 66.5423 116.163 66.3625C116.243 66.2874 116.332 66.226 116.36 66.226C116.388 66.226 116.508 66.1295 116.627 66.0114C118.186 64.4616 118.342 64.2994 118.342 64.233C118.342 64.2068 118.445 64.0738 118.57 63.9375C118.695 63.8011 118.798 63.6666 118.798 63.6385C118.798 63.6104 118.873 63.4925 118.964 63.3763C119.055 63.2601 119.2 63.0363 119.286 62.879C119.371 62.7217 119.489 62.5316 119.546 62.4565C119.604 62.3814 119.652 62.2463 119.652 62.1561V61.9922H118.627C117.9 61.9922 117.602 62.0111 117.602 62.0571C117.602 62.1749 116.797 63.2369 116.364 63.6901C116.262 63.7966 116.138 63.9472 116.087 64.025C116.036 64.1027 115.968 64.1663 115.936 64.1663C115.903 64.1663 115.789 64.2693 115.682 64.3952C115.574 64.521 115.456 64.624 115.419 64.624C115.382 64.624 115.321 64.6741 115.283 64.7353C115.245 64.7965 115.066 64.9481 114.885 65.0723C114.704 65.1964 114.495 65.3523 114.419 65.4186C114.344 65.4851 114.257 65.5394 114.225 65.5394C114.194 65.5394 114.089 65.5994 113.992 65.6728C113.763 65.8465 112.61 66.4019 112.136 66.5667C111.303 66.8572 111.051 66.9063 109.783 67.0269C109.182 67.0841 108.812 67.0654 107.574 66.9152C106.82 66.8236 105.239 66.1583 104.747 65.7254C104.631 65.6232 104.511 65.5395 104.481 65.5395C104.41 65.5394 103.369 64.4478 103.369 64.373C103.369 64.3414 103.307 64.2498 103.231 64.1695C103.069 63.9977 102.525 62.9414 102.457 62.6678C102.431 62.5637 102.343 62.2211 102.26 61.9064C102.106 61.3182 102.005 60.1583 102.08 59.8551L102.118 59.7037H111.386H120.653L120.789 59.0028C120.953 58.151 121.013 56.4826 120.906 55.7398C120.802 55.009 120.51 53.9366 120.299 53.504C120.194 53.2882 120.107 53.085 120.107 53.0525C120.107 53.0201 120.005 52.8304 119.88 52.6311C119.754 52.4318 119.651 52.2488 119.651 52.2245C119.65 52.2001 119.56 52.0774 119.451 51.9519C119.342 51.8264 119.253 51.6995 119.253 51.6699C119.253 51.6403 119.17 51.5335 119.068 51.4325C118.966 51.3315 118.732 51.0915 118.548 50.8992C118.363 50.7069 118.197 50.5495 118.177 50.5495C118.158 50.5495 118.034 50.4466 117.901 50.3207C117.768 50.1948 117.632 50.0918 117.599 50.0918C117.566 50.0918 117.444 50.0163 117.328 49.924C117.082 49.7271 116.039 49.1764 115.913 49.1764C115.865 49.1764 115.745 49.1384 115.647 49.0919C114.649 48.6219 112.402 48.4131 110.798 48.6415ZM121.475 48.6472C121.475 48.7023 121.526 48.9501 121.588 49.198C121.651 49.4458 121.701 49.7081 121.701 49.7808C121.701 49.8535 121.804 50.333 121.929 50.8463C122.054 51.3596 122.156 51.8362 122.157 51.9053C122.157 51.9745 122.259 52.4489 122.385 52.9595C122.51 53.4702 122.612 53.946 122.612 54.0167C122.612 54.0876 122.715 54.571 122.84 55.091C122.965 55.6111 123.068 56.0932 123.068 56.1625C123.068 56.2317 123.173 56.7219 123.301 57.2517L123.534 58.2149L123.344 58.4587C123.24 58.5928 123.135 58.711 123.111 58.7215C123.087 58.732 123.068 58.7734 123.068 58.8136C123.068 58.8537 122.965 59.0036 122.84 59.1466C122.715 59.2896 122.612 59.4308 122.612 59.4605C122.612 59.4902 122.558 59.5764 122.492 59.652C122.426 59.7276 122.269 59.944 122.143 60.1328C122.017 60.3216 121.885 60.5018 121.848 60.5333C121.812 60.5647 121.732 60.6712 121.671 60.7698C121.609 60.8684 121.405 61.16 121.218 61.4178C121.03 61.6756 120.834 61.9511 120.783 62.03C120.731 62.1089 120.616 62.2655 120.527 62.3779C120.438 62.4904 120.339 62.6266 120.307 62.6807C120.15 62.9486 119.652 63.6357 119.545 63.7318C119.478 63.7917 119.424 63.8705 119.424 63.9069C119.424 63.9433 119.378 64.023 119.322 64.084C119.267 64.145 119.084 64.3945 118.917 64.6383C118.75 64.8822 118.593 65.0817 118.569 65.0817C118.545 65.0817 118.511 65.1396 118.493 65.2104C118.475 65.2813 118.37 65.4358 118.259 65.5538C118.148 65.6719 118.058 65.8058 118.058 65.8514C118.058 65.897 118.023 65.9548 117.98 65.98C117.937 66.0051 117.772 66.2206 117.614 66.4588C117.455 66.697 117.285 66.9254 117.236 66.9664C117.187 67.0075 117.147 67.0665 117.147 67.0976C117.147 67.1286 117.049 67.2736 116.93 67.4195C116.81 67.5655 116.637 67.8072 116.545 67.9566C116.453 68.106 116.361 68.2283 116.341 68.2283C116.289 68.2285 116.065 68.6717 116.065 68.7738C116.065 68.8445 116.226 68.8578 117.085 68.8578H118.104L118.358 68.4705C118.498 68.2575 118.654 68.0484 118.705 68.0058C118.756 67.9632 118.798 67.8966 118.798 67.8576C118.798 67.8187 118.9 67.6699 119.026 67.5268C119.151 67.3839 119.253 67.2531 119.253 67.2362C119.253 67.1939 119.864 66.3388 119.998 66.1937C120.058 66.1287 120.107 66.0499 120.107 66.0185C120.107 65.9872 120.153 65.9116 120.209 65.8506C120.265 65.7896 120.449 65.5401 120.618 65.2963C120.787 65.0524 120.946 64.8529 120.972 64.8529C120.997 64.8529 121.019 64.8207 121.019 64.7814C121.019 64.742 121.121 64.5811 121.246 64.4238C121.371 64.2664 121.473 64.1068 121.473 64.069C121.473 64.0313 121.509 63.9798 121.552 63.9546C121.595 63.9294 121.763 63.7112 121.925 63.4696C122.088 63.2281 122.258 62.9997 122.303 62.962C122.348 62.9244 122.385 62.8692 122.385 62.8394C122.385 62.8095 122.487 62.663 122.612 62.5137C122.738 62.3644 122.84 62.2219 122.84 62.197C122.84 62.1432 123.19 61.686 123.253 61.6585C123.276 61.648 123.296 61.611 123.296 61.5763C123.296 61.5416 123.398 61.3911 123.523 61.2419C123.649 61.0926 123.751 60.9468 123.751 60.918C123.751 60.8891 123.802 60.8067 123.864 60.7351L123.976 60.6047L124.025 60.7406C124.051 60.8154 124.156 61.2627 124.257 61.7347C124.358 62.2068 124.529 62.9802 124.637 63.4534C124.745 63.9267 124.833 64.3681 124.833 64.4342C124.833 64.5004 124.935 64.9756 125.06 65.4904C125.185 66.0051 125.287 66.4876 125.288 66.5625C125.288 66.6374 125.391 67.1199 125.516 67.6346C125.641 68.1494 125.744 68.6352 125.744 68.7142V68.8578H126.626H127.509V68.7039C127.509 68.4842 127.415 67.995 127.161 66.8951C127.039 66.3663 126.939 65.8763 126.939 65.8063C126.939 65.7364 126.837 65.2622 126.712 64.7525C126.586 64.2429 126.484 63.7616 126.484 63.683C126.484 63.6043 126.433 63.3397 126.371 63.095C126.134 62.159 126.028 61.6857 126.028 61.5588C126.028 61.4864 125.926 61.0073 125.801 60.494C125.676 59.9806 125.574 59.5 125.573 59.4258C125.573 59.3518 125.534 59.141 125.487 58.9576L125.401 58.6241L125.585 58.3486C125.686 58.1971 125.827 58.009 125.899 57.9306C125.97 57.8523 126.028 57.7698 126.028 57.7473C126.028 57.6966 126.527 57.0018 126.764 56.7216C126.86 56.6077 126.939 56.4918 126.939 56.4641C126.94 56.4365 127.006 56.3367 127.087 56.2423C127.168 56.1479 127.349 55.8969 127.49 55.6844C127.63 55.472 127.763 55.2983 127.784 55.2983C127.805 55.2983 127.855 55.2239 127.895 55.1331C127.935 55.0422 128.044 54.888 128.137 54.7903C128.23 54.6926 128.306 54.5779 128.306 54.5353C128.306 54.4926 128.359 54.4092 128.425 54.3498C128.49 54.2903 128.647 54.0804 128.774 53.8832C128.901 53.686 129.023 53.5246 129.044 53.5246C129.066 53.5246 129.12 53.4538 129.164 53.3673C129.208 53.2808 129.346 53.076 129.472 52.9123C129.763 52.533 130.013 52.1797 130.149 51.9556C130.207 51.8588 130.322 51.6991 130.405 51.6007C130.487 51.5022 130.708 51.197 130.896 50.9224C131.084 50.6478 131.296 50.3601 131.366 50.2832C131.437 50.2062 131.494 50.1223 131.494 50.0969C131.494 50.0715 131.584 49.9377 131.693 49.7995C131.802 49.6614 131.892 49.5162 131.892 49.4768C131.892 49.4375 131.914 49.4053 131.94 49.4053C132.023 49.4053 132.405 48.8014 132.405 48.6703C132.405 48.5448 132.402 48.5445 131.399 48.5601L130.393 48.5757L130.195 48.8618C130.086 49.0191 129.962 49.1684 129.92 49.1936C129.878 49.2188 129.843 49.2707 129.843 49.3091C129.843 49.3474 129.741 49.5034 129.615 49.6557C129.49 49.8081 129.388 49.9567 129.388 49.9861C129.388 50.0154 129.336 50.0956 129.272 50.1642C129.208 50.2328 129.061 50.4312 128.945 50.6052C128.828 50.7791 128.675 50.9781 128.605 51.0474C128.534 51.1167 128.477 51.2008 128.477 51.2342C128.477 51.2676 128.368 51.4342 128.235 51.6044C127.945 51.9744 127.69 52.3357 127.546 52.5763C127.489 52.6731 127.367 52.8307 127.276 52.9266C127.185 53.0225 127.11 53.1175 127.11 53.1377C127.11 53.1828 126.52 54.0247 126.377 54.1826C126.32 54.2455 126.24 54.3614 126.2 54.4401C126.159 54.5187 126.108 54.596 126.088 54.6117C126.067 54.6274 125.926 54.8205 125.774 55.0408C125.621 55.2611 125.467 55.467 125.43 55.4985C125.393 55.53 125.319 55.6329 125.266 55.7274C125.213 55.8218 125.11 55.9811 125.038 56.0815L124.906 56.264L124.844 56.0529C124.811 55.9368 124.754 55.6744 124.718 55.4699C124.682 55.2654 124.552 54.6603 124.429 54.1254C124.306 53.5904 124.205 53.1043 124.206 53.045C124.206 52.9858 124.117 52.5703 124.008 52.1218C123.899 51.6732 123.785 51.1423 123.754 50.9421C123.724 50.742 123.608 50.1981 123.497 49.7336C123.386 49.2691 123.296 48.812 123.296 48.718V48.5471H122.385C121.555 48.5471 121.474 48.556 121.475 48.6472ZM42.8522 50.5925C42.8155 50.7419 42.7198 51.0959 42.6395 51.3791C42.5592 51.6623 42.4805 51.9648 42.4646 52.0514L42.4357 52.2087H45.5384H48.641L48.7901 51.7284C48.8721 51.4642 48.9391 51.197 48.9391 51.1348C48.9391 51.0726 48.9776 50.9122 49.0245 50.7784C49.2017 50.2737 49.5108 50.3207 46.0144 50.3207H42.9189L42.8522 50.5925ZM112.935 50.4379C113.672 50.5296 114.797 50.8258 115.228 51.042C115.441 51.1488 115.64 51.2361 115.671 51.2361C115.725 51.2361 116.181 51.5171 116.236 51.5846C116.251 51.6038 116.328 51.6533 116.407 51.6946C116.681 51.8393 117.602 52.6689 117.602 52.7714C117.602 52.7963 117.681 52.8923 117.778 52.9847C117.875 53.0771 117.994 53.23 118.042 53.3244C118.091 53.4188 118.146 53.5089 118.166 53.5246C118.228 53.5747 118.513 54.0352 118.513 54.0847C118.513 54.1108 118.601 54.3124 118.709 54.5325C118.817 54.7526 118.948 55.1243 118.999 55.3586C119.051 55.5929 119.115 55.8875 119.143 56.0134C119.231 56.4092 119.306 57.3183 119.271 57.5721L119.238 57.8156H110.876C106.115 57.8156 102.515 57.794 102.515 57.7654C102.515 57.7133 102.635 57.3988 102.77 57.1005C102.812 57.0061 102.902 56.7893 102.969 56.6188C103.035 56.4484 103.139 56.2393 103.199 56.1543C103.259 56.0693 103.332 55.9385 103.361 55.8636C103.389 55.7886 103.505 55.5896 103.618 55.4213C103.731 55.2529 103.824 55.0974 103.824 55.0759C103.824 55.0543 103.926 54.9217 104.05 54.7813C104.174 54.6408 104.277 54.5054 104.278 54.4804C104.283 54.3483 105.586 53.0335 106.101 52.6417C106.305 52.4867 106.517 52.3131 106.573 52.2558C106.629 52.1984 106.708 52.1515 106.748 52.1515C106.787 52.1515 106.875 52.1004 106.941 52.038C107.076 51.9118 108.274 51.2361 108.363 51.2361C108.395 51.2361 108.596 51.1552 108.812 51.0563C109.228 50.8659 110.248 50.5928 110.912 50.4945C111.132 50.462 111.375 50.426 111.453 50.4145C111.759 50.3694 112.475 50.3807 112.935 50.4379ZM48.3324 51.0216C48.3082 51.0609 48.2747 51.1961 48.2579 51.3219L48.2275 51.5508L45.7366 51.5657C44.3666 51.5739 43.2457 51.5584 43.2457 51.5313C43.2457 51.5042 43.2736 51.3945 43.3076 51.2875C43.3417 51.1806 43.3793 51.0609 43.3913 51.0216C43.4082 50.9658 43.9588 50.95 45.8947 50.95C47.8657 50.95 48.3675 50.9647 48.3324 51.0216ZM49.3174 53.1671C49.2352 53.416 49.1613 53.7411 49.1532 53.8895L49.1384 54.1592L49.4515 54.2692C49.6238 54.3296 49.8095 54.3799 49.8643 54.381C50.1337 54.386 52.0049 55.3103 52.3738 55.6206C52.4623 55.695 52.5601 55.756 52.5911 55.756C52.6476 55.756 53.071 56.0784 53.5478 56.4844C54.0017 56.871 54.7153 57.6062 55.0619 58.0445C55.2485 58.2805 55.4204 58.4822 55.4439 58.4926C55.4674 58.5032 55.4866 58.5424 55.4866 58.5797C55.4866 58.6171 55.5642 58.7424 55.6591 58.858C55.7539 58.9736 55.8701 59.1532 55.9173 59.2572C55.9644 59.3611 56.0908 59.5878 56.1981 59.7609C56.3053 59.934 56.3941 60.1066 56.3953 60.1446C56.3965 60.1825 56.4697 60.337 56.5578 60.4878C56.9477 61.1552 57.3703 62.7343 57.5422 64.1663C57.6189 64.806 57.5738 66.0967 57.4511 66.7695C57.3196 67.491 57.2599 67.4275 58.0693 67.4275H58.7731L58.8461 67.0985C58.966 66.5587 58.9872 64.1471 58.8785 63.4225C58.7178 62.3516 58.5262 61.6018 58.1259 60.4761C57.912 59.8743 57.2342 58.5521 56.8673 58.0207C56.7655 57.8733 56.6821 57.7347 56.6819 57.7127C56.6818 57.6906 56.6063 57.5918 56.5142 57.493C56.422 57.3941 56.3 57.2397 56.243 57.1497C56.1313 56.9733 55.9397 56.7494 55.5578 56.3487C55.4247 56.2091 55.3158 56.0701 55.3158 56.0398C55.3158 56.0096 55.2813 55.9848 55.2392 55.9848C55.197 55.9848 55.0576 55.8754 54.9293 55.7417C54.5556 55.3519 53.6764 54.6117 53.5872 54.6117C53.5565 54.6117 53.4818 54.5667 53.4212 54.5116C52.9659 54.0973 50.5305 52.9244 49.907 52.819C49.7974 52.8005 49.6535 52.7694 49.5873 52.7498C49.4793 52.718 49.4514 52.7611 49.3174 53.1671ZM42.2488 52.9096C42.0454 53.4805 41.8748 54.1144 41.8445 54.4118L41.8066 54.7833H44.8878H47.9691L47.9999 54.626C48.017 54.5395 48.1114 54.1855 48.2097 53.8393C48.3081 53.4932 48.4 53.1263 48.4139 53.024L48.4392 52.8381H45.3567C42.9423 52.8381 42.2687 52.8536 42.2488 52.9096ZM47.6682 53.5473C47.6515 53.5912 47.6062 53.7328 47.5678 53.862L47.4977 54.0968H45.0315H42.5653L42.5961 53.9108C42.613 53.8086 42.6385 53.667 42.6527 53.5962L42.6785 53.4674H45.1886C47.3133 53.4674 47.6941 53.4797 47.6682 53.5473ZM41.4858 55.57C41.4491 55.7195 41.3531 56.0735 41.2724 56.3567C41.1918 56.6399 41.1132 56.9555 41.0977 57.0581L41.0696 57.2445L44.164 57.2297L47.2585 57.2149L47.4181 56.7286C47.5591 56.2989 47.6069 56.1017 47.7272 55.4556L47.7564 55.2983H44.6544H41.5525L41.4858 55.57ZM46.9431 56.0849C46.9154 56.1714 46.8787 56.3131 46.8615 56.3996L46.8304 56.5569H44.3548C42.9932 56.5569 41.8793 56.535 41.8793 56.5083C41.8793 56.4815 41.9072 56.3721 41.9412 56.2651C41.9753 56.1582 42.0129 56.0385 42.0248 55.9991C42.0417 55.9433 42.5907 55.9276 44.52 55.9276H46.9935L46.9431 56.0849ZM48.093 57.4597C47.9228 58.0017 47.9272 58.0229 48.2195 58.0631C48.3561 58.082 48.6667 58.1884 48.9099 58.2998C49.153 58.4111 49.3785 58.5022 49.411 58.5022C49.4825 58.5022 50.0416 58.8541 50.0683 58.916C50.0788 58.9401 50.13 58.9603 50.1822 58.9608C50.2344 58.9613 50.3924 59.0639 50.5333 59.1888C50.6742 59.3137 50.8122 59.4162 50.8399 59.4167C50.8676 59.4172 50.9458 59.4755 51.0138 59.5463C51.0817 59.6172 51.2127 59.741 51.305 59.8217C51.3972 59.9024 51.588 60.1038 51.7289 60.2692C51.8698 60.4347 52.0557 60.6514 52.142 60.7507C52.2282 60.8501 52.3147 60.9814 52.334 61.0426C52.3533 61.1037 52.4108 61.1992 52.4618 61.2546C52.6356 61.4435 53.2092 62.6566 53.2092 62.8351C53.2092 62.8987 53.2466 63.0407 53.2922 63.1505C53.508 63.6694 53.5794 64.1792 53.5746 65.1675C53.5705 66.035 53.5536 66.2006 53.4181 66.6987C53.3345 67.0059 53.2662 67.2955 53.2662 67.3424C53.2662 67.4106 53.3562 67.4275 53.7194 67.4275H54.1727L54.228 67.2129C54.2584 67.0949 54.3147 66.8825 54.3531 66.7409C54.4666 66.322 54.4471 63.89 54.3264 63.4225C54.1082 62.5767 53.9313 62.053 53.7179 61.6203C53.5936 61.3686 53.4925 61.1453 53.493 61.1242C53.4942 61.0718 53.031 60.3609 52.7995 60.0599C52.2356 59.3269 51.5523 58.6714 50.9685 58.3037C50.87 58.2417 50.7467 58.1516 50.6944 58.1034C50.4256 57.856 48.6061 57.0695 48.3065 57.0713C48.2434 57.0717 48.1769 57.1926 48.093 57.4597ZM40.8544 57.894C40.8544 57.9371 40.7999 58.1367 40.7333 58.3374C40.6117 58.7037 40.5328 59.0647 40.4753 59.5177L40.4444 59.7609H43.5219H46.5995L46.6587 59.5463C46.6914 59.4284 46.7182 59.2919 46.7183 59.2432C46.7185 59.1944 46.7951 58.9112 46.8885 58.6138C46.9819 58.3164 47.0588 58.0152 47.0593 57.9444L47.0603 57.8156H43.9574C41.3683 57.8156 40.8544 57.8286 40.8544 57.894ZM46.3018 58.5249C46.2851 58.5688 46.2398 58.7104 46.2013 58.8395L46.1313 59.0743H43.6651H41.1989L41.2297 58.8884C41.2466 58.7861 41.2721 58.6445 41.2863 58.5737L41.3121 58.445H43.8222C45.9468 58.445 46.3277 58.4572 46.3018 58.5249ZM40.1398 60.4904C40.1198 60.6084 40.0256 60.9624 39.9306 61.277C39.8356 61.5917 39.7456 61.933 39.7305 62.0356L39.7032 62.222L42.7976 62.2073L45.8921 62.1925L46.0516 61.7061C46.1927 61.2764 46.2405 61.0793 46.3607 60.4331L46.39 60.2758H43.2832H40.1764L40.1398 60.4904ZM45.5767 61.0625C45.549 61.149 45.5123 61.2907 45.4951 61.3772L45.464 61.5345H42.9884C41.6268 61.5345 40.5128 61.5126 40.5128 61.4858C40.5128 61.459 40.5407 61.3496 40.5748 61.2427C40.6089 61.1357 40.6465 61.016 40.6584 60.9767C40.6753 60.9209 41.2243 60.9052 43.1536 60.9052H45.627L45.5767 61.0625ZM46.8702 61.6853C46.8064 62.0729 46.8164 62.0979 47.0625 62.1645C47.189 62.1987 47.4207 62.3026 47.5774 62.3955C47.7342 62.4884 47.8837 62.5643 47.9096 62.5643C47.9556 62.5643 48.2364 62.8047 48.5548 63.1166C48.6409 63.2009 48.7114 63.3011 48.7114 63.3392C48.7114 63.3773 48.7517 63.4422 48.801 63.4832C49.0285 63.673 49.3356 64.6111 49.337 65.121C49.338 65.4626 49.1404 66.2477 48.9903 66.4989C48.9201 66.6162 48.7774 66.8316 48.6732 66.9774C48.3948 67.3668 48.4141 67.4275 48.8164 67.4275C49.2198 67.4275 49.245 67.4038 49.5707 66.7216C49.7827 66.2776 49.8173 66.1485 49.8548 65.6616C49.9769 64.0772 49.5878 63.0602 48.5217 62.1777C48.1706 61.8872 47.4716 61.5419 47.1427 61.4966L46.9065 61.4641L46.8702 61.6853ZM39.5285 62.8361C39.4489 62.9841 39.0325 64.5287 39.0325 64.6763C39.0325 64.7202 39.9405 64.7384 42.1328 64.7384H45.233L45.2923 64.5239C45.3249 64.4059 45.3517 64.2695 45.3519 64.2207C45.3521 64.1719 45.4287 63.8887 45.522 63.5914C45.6155 63.294 45.6923 62.9927 45.6928 62.9219L45.6939 62.7932H42.6228C40.9336 62.7932 39.5412 62.8125 39.5285 62.8361ZM44.9354 63.5024C44.9186 63.5463 44.8734 63.6879 44.8349 63.8171L44.7649 64.0519H42.2987H39.8325L39.8633 63.8659C39.8802 63.7636 39.9057 63.6221 39.9199 63.5513L39.9456 63.4225H42.4558C44.5804 63.4225 44.9612 63.4348 44.9354 63.5024ZM38.7758 65.4679C38.757 65.5859 38.6662 65.9305 38.5739 66.2338C38.4817 66.5369 38.4062 66.8781 38.4062 66.9918V67.1986H41.4489C43.3752 67.1986 44.5042 67.178 44.526 67.1425C44.6258 66.9802 45.0107 65.537 45.0107 65.3249C45.0107 65.2685 44.3531 65.2534 41.9103 65.2534H38.81L38.7758 65.4679ZM44.1767 66.1545C44.1603 66.2725 44.1371 66.4012 44.1251 66.4405C44.0969 66.533 39.1464 66.5464 39.1464 66.4539C39.1464 66.422 39.1783 66.2933 39.2172 66.1679L39.288 65.9399H41.7472H44.2064L44.1767 66.1545Z" fill="#1E1E1E"/>
</svg>
