<svg width="174" height="116" viewBox="0 0 174 116" fill="none" xmlns="http://www.w3.org/2000/svg">
<mask id="mask0_4001_27237" style="mask-type:luminance" maskUnits="userSpaceOnUse" x="33" y="46" width="107" height="23">
<path d="M139.692 46.0833H33.9561V68.8571H139.692V46.0833Z" fill="white"/>
</mask>
<g mask="url(#mask0_4001_27237)">
<path d="M116.852 67.0816H119.98C120.293 67.0816 120.528 66.8393 120.528 66.597C120.606 66.1933 120.293 65.8702 119.98 65.8702H117.556C117.243 65.8702 117.008 66.1125 117.008 66.3547L116.852 67.0816ZM116.539 68.7775H119.667C119.98 68.7775 120.215 68.5352 120.215 68.2929C120.293 67.8892 119.98 67.5661 119.667 67.5661H117.243C116.93 67.5661 116.695 67.8084 116.695 68.0506L116.539 68.7775ZM132.181 60.7825H118.416C118.103 60.7825 117.869 61.0247 117.869 61.267C117.791 61.6708 118.103 61.9938 118.416 61.9938H131.476C131.789 61.9938 132.024 61.7516 132.024 61.5093L132.181 60.7825ZM133.667 52.3028H119.902C119.589 52.3028 119.355 52.5451 119.355 52.7874C119.276 53.1912 119.589 53.5142 119.902 53.5142H132.962C133.275 53.5142 133.51 53.2719 133.51 53.0297L133.667 52.3028ZM133.979 59.0865H119.824C119.511 59.0865 119.276 59.3288 119.276 59.5711C119.198 59.9749 119.511 60.2979 119.824 60.2979H133.275C133.589 60.2979 133.823 60.0556 133.823 59.8133L133.979 59.0865ZM134.918 53.9988H119.589C119.276 53.9988 119.042 54.241 119.042 54.4833C118.964 54.8871 119.276 55.2101 119.589 55.2101H134.214C134.526 55.2101 134.761 54.9678 134.761 54.7256L134.918 53.9988ZM117.322 64.2551L117.243 64.7396C117.165 65.1434 117.478 65.4664 117.791 65.4664H120.215C120.528 65.4664 120.762 65.2242 120.762 64.9819C120.841 64.578 120.528 64.2551 120.215 64.2551H117.712H117.322ZM129.678 68.7775H133.353C133.667 68.7775 133.901 68.5352 133.901 68.2929C133.979 67.8892 133.667 67.5661 133.353 67.5661H130.381C130.069 67.5661 129.834 67.8084 129.834 68.0506L129.678 68.7775ZM130.46 55.6947L130.381 56.1792C130.303 56.583 130.617 56.906 130.929 56.906H135.465C135.778 56.906 136.012 56.6637 136.012 56.4215C136.091 56.0177 135.778 55.6947 135.465 55.6947H130.46ZM132.806 65.8702H129.131C128.817 65.8702 128.583 66.1125 128.583 66.3547C128.505 66.7585 128.817 67.0816 129.131 67.0816H132.103C132.415 67.0816 132.65 66.8393 132.65 66.597L132.806 65.8702ZM129.912 58.6019H135.153C135.465 58.6019 135.7 58.3597 135.7 58.1174C135.778 57.7136 135.465 57.3906 135.153 57.3906H130.617C130.303 57.3906 130.069 57.6328 130.069 57.8751L129.912 58.6019ZM130.303 62.4784H126.628C126.315 62.4784 126.08 62.7207 126.08 62.9629C126.002 63.3667 126.315 63.6897 126.628 63.6897H129.6C129.912 63.6897 130.147 63.4475 130.147 63.2052L130.303 62.4784ZM131.555 64.1743H127.879C127.566 64.1743 127.331 64.4166 127.331 64.6588C127.253 65.0626 127.566 65.3856 127.879 65.3856H130.851C131.164 65.3856 131.398 65.1434 131.398 64.9011L131.555 64.1743ZM117.478 63.6897H120.606C120.919 63.6897 121.153 63.4475 121.153 63.2052C121.231 62.8014 120.919 62.4784 120.606 62.4784H118.181C117.869 62.4784 117.634 62.7207 117.634 62.9629L117.478 63.6897Z" fill="#1E1E1E" fill-opacity="0.5"/>
<path d="M114.821 46.0828L114.039 50.5245H117.949L118.027 50.2822C118.731 45.679 114.821 46.0828 114.821 46.0828ZM94.0961 57.1466C93.6268 59.8117 95.5038 61.9114 98.3192 61.9114H103.012C104.81 61.9114 105.749 62.719 105.514 64.0111C105.358 65.0609 104.185 65.8685 102.933 65.8685H93.0794C93.3922 65.3032 93.705 64.5764 93.7832 63.9304C94.2525 61.0231 92.6102 59.0848 89.4818 59.0848H84.3202C83.1471 59.0848 82.2869 58.1965 82.5214 57.1466C82.5997 56.5006 83.3817 55.2892 84.7895 55.2892H91.9063C94.3307 55.2892 94.7999 52.3012 94.7999 52.3012H84.0074C80.801 52.3012 78.2983 54.3202 77.7509 57.1466C77.2816 59.8117 79.1586 61.9114 81.9741 61.9114H86.6664C88.4652 61.9114 89.4037 62.719 89.169 64.0111C89.0126 65.0609 87.8395 65.8685 86.5882 65.8685H77.7509L74.3879 52.3012H70.4776C70.4776 52.3012 69.0699 54.8047 68.1314 56.2583C66.0199 59.7309 68.4442 62.0729 68.4442 62.1537H64.8468L62.4223 66.4339L60.3107 62.1537C62.8916 61.5883 64.6904 59.8117 65.0813 57.3082C65.5506 54.5624 63.9082 52.3012 61.3274 52.3012H36.8487C34.3461 52.3012 33.9551 55.2892 33.9551 55.2892H41.1501L38.8821 68.7758C38.8821 68.7758 42.4796 69.0989 43.2617 64.8187C43.8091 61.8306 44.904 55.2892 44.904 55.2892H57.8864C59.7633 55.2892 60.78 56.0968 60.5454 57.4697C60.3107 58.7619 58.8248 59.8117 57.1825 59.8117H51.4734C48.8143 59.8117 48.0323 62.6382 48.0323 62.6382L46.9374 68.8566H50.6131L51.708 62.5574H56.0876L59.1376 68.8566H65.0813L67.193 65.1417H73.7623L74.4662 68.8566H104.341C107.157 68.8566 109.659 66.7569 110.128 63.9304C110.598 61.0231 108.955 59.0848 105.827 59.0848H100.665C99.4923 59.0848 98.632 58.1965 98.8667 57.1466C98.9449 56.5006 99.4142 55.9353 100.196 55.6122C100.509 55.4507 100.822 55.3699 101.056 55.3699H113.648L111.38 68.8566C111.38 68.8566 114.586 69.1797 115.524 65.6263C115.524 65.4648 115.603 65.2225 115.603 65.0609L117.793 52.3819H100.274C97.068 52.3012 94.5653 54.3202 94.0961 57.1466ZM68.5225 62.1537L71.8072 56.4198L72.9803 62.1537H68.5225Z" fill="#1E1E1E"/>
<path d="M138.048 50.6872C138.987 50.6872 139.69 51.4948 139.69 52.4639C139.69 53.433 138.987 54.2405 138.048 54.2405C137.109 54.2405 136.406 53.433 136.406 52.4639C136.328 51.414 137.109 50.6872 138.048 50.6872ZM138.048 50.9295C137.344 50.9295 136.718 51.5755 136.718 52.3831C136.718 53.1907 137.344 53.8368 138.048 53.8368C138.83 53.8368 139.378 53.1907 139.378 52.3831C139.378 51.5755 138.751 50.9295 138.048 50.9295ZM137.735 53.433H137.422V51.4948C137.579 51.4948 137.735 51.414 137.97 51.414C138.282 51.414 138.439 51.4948 138.595 51.5755C138.673 51.6563 138.751 51.8178 138.751 51.9793C138.751 52.2216 138.595 52.3831 138.361 52.4639C138.517 52.4639 138.673 52.6254 138.673 52.9484C138.751 53.2715 138.751 53.3522 138.83 53.433H138.517C138.439 53.3522 138.439 53.1907 138.361 52.9484C138.282 52.7062 138.204 52.6254 137.97 52.6254H137.735V53.433ZM137.735 52.3024H137.97C138.204 52.3024 138.439 52.2216 138.439 51.9793C138.439 51.8178 138.282 51.6563 137.97 51.6563C137.892 51.6563 137.813 51.6563 137.735 51.6563V52.3024Z" fill="#1E1E1E"/>
</g>
</svg>
