<svg width="191" height="39" viewBox="0 0 191 39" fill="none" xmlns="http://www.w3.org/2000/svg">
<path d="M69.0096 23.3462C68.1077 23.3462 67.2951 23.1673 66.5705 22.8097C65.8511 22.4471 65.2887 21.9408 64.8831 21.2911L66.4869 20.3012C66.7501 20.7093 67.0921 21.0266 67.5126 21.2533C67.9334 21.4749 68.4144 21.5857 68.9565 21.5857C69.5948 21.5857 70.0837 21.4447 70.4231 21.1626C70.7677 20.8755 70.9402 20.4902 70.9402 20.0066C70.9402 19.5331 70.7781 19.1579 70.4536 18.8808C70.1294 18.5987 69.6584 18.4577 69.0401 18.4577H67.7178V16.8333H69.0554C69.5465 16.8333 69.929 16.7073 70.2026 16.4555C70.4763 16.2036 70.6134 15.8712 70.6134 15.4581C70.6134 15.035 70.4636 14.6975 70.1647 14.4457C69.8662 14.1938 69.4327 14.0679 68.865 14.0679C68.313 14.0679 67.8341 14.1762 67.4293 14.3928C67.0237 14.6043 66.7099 14.8965 66.4869 15.2693L64.9444 14.1888C65.876 12.8388 67.2133 12.1638 68.9565 12.1638C70.1116 12.1638 71.0213 12.4258 71.6849 12.9497C72.3485 13.4684 72.6801 14.1964 72.6801 15.1332C72.6801 15.6621 72.5511 16.1432 72.2927 16.5764C72.0395 17.0096 71.6596 17.337 71.1525 17.5585C71.7607 17.7399 72.2366 18.0699 72.5816 18.5484C72.9262 19.0218 73.0983 19.5759 73.0983 20.2106C73.0983 20.8705 72.918 21.4396 72.5585 21.9182C72.2038 22.3967 71.7202 22.7543 71.1071 22.9911C70.4993 23.2278 69.8 23.3462 69.0096 23.3462Z" fill="#EAB57C"/>
<path d="M74.4888 17.7474C74.4888 17.0221 74.6256 16.322 74.8992 15.647C75.1776 14.967 75.5528 14.3726 76.0242 13.8638C76.5 13.3551 77.0777 12.9471 77.7562 12.6399C78.4354 12.3325 79.157 12.179 79.9225 12.179C80.5456 12.179 81.1408 12.2848 81.7084 12.4963C82.2754 12.7028 82.7721 12.9899 83.1974 13.3577C83.6234 13.7203 83.9929 14.1384 84.3071 14.6119C84.626 15.0803 84.867 15.5865 85.0294 16.1305C85.1963 16.6745 85.2796 17.2236 85.2796 17.7777C85.2796 18.498 85.1432 19.1956 84.8695 19.8706C84.5959 20.5405 84.2234 21.1298 83.7528 21.6386C83.2866 22.1474 82.7137 22.5553 82.0352 22.8626C81.3612 23.1648 80.6418 23.3159 79.8764 23.3159C79.2481 23.3159 78.6507 23.2152 78.083 23.0137C77.516 22.8072 77.0171 22.5251 76.5859 22.1675C76.1554 21.8098 75.7803 21.3968 75.4617 20.9283C75.142 20.4599 74.8992 19.9537 74.7319 19.4097C74.5698 18.8606 74.4888 18.3066 74.4888 17.7474ZM79.8916 21.427C80.3935 21.427 80.8519 21.3213 81.2675 21.1097C81.6828 20.8981 82.0222 20.6186 82.2854 20.271C82.549 19.9184 82.7516 19.5255 82.894 19.0924C83.0405 18.6541 83.1141 18.2058 83.1141 17.7474C83.1141 17.1027 82.9851 16.5058 82.7263 15.9567C82.4732 15.4027 82.0958 14.9518 81.5939 14.6043C81.0976 14.2567 80.5299 14.0829 79.8916 14.0829C79.3905 14.0829 78.9317 14.1888 78.5165 14.4003C78.1012 14.6119 77.7614 14.8914 77.4978 15.239C77.2346 15.5865 77.0294 15.9769 76.8826 16.4101C76.7405 16.8433 76.6699 17.2891 76.6699 17.7474C76.6699 18.3922 76.7937 18.9916 77.042 19.5457C77.2908 20.0947 77.6629 20.5455 78.1588 20.8981C78.6607 21.2507 79.2384 21.427 79.8916 21.427Z" fill="#EAB57C"/>
<path d="M94.27 23.2403V14.1283H91.0327L90.9713 15.9794C90.9364 16.9565 90.8728 17.8128 90.7817 18.5483C90.6903 19.2787 90.5613 19.9184 90.3944 20.4674C90.2315 21.0114 90.0367 21.4648 89.8092 21.8274C89.5858 22.185 89.3099 22.4747 88.9802 22.6963C88.6512 22.918 88.2917 23.0741 87.9013 23.1648C87.5162 23.2554 87.0652 23.3008 86.5485 23.3008V21.4572C86.8682 21.4572 87.1388 21.4094 87.3619 21.3136C87.5898 21.2129 87.7998 21.0341 87.9924 20.7772C88.185 20.5153 88.3419 20.1576 88.4638 19.7043C88.5906 19.2459 88.6943 18.6642 88.7753 17.959C88.8564 17.2537 88.9147 16.4 88.9504 15.3976L89.0564 12.2545H96.4054V23.2403H94.27Z" fill="#EAB57C"/>
<path d="M98.3656 17.7474C98.3656 17.0221 98.502 16.322 98.7757 15.647C99.0545 14.967 99.4296 14.3726 99.9006 13.8638C100.376 13.3551 100.954 12.9471 101.633 12.6399C102.312 12.3325 103.034 12.179 103.799 12.179C104.422 12.179 105.018 12.2848 105.585 12.4963C106.152 12.7028 106.649 12.9899 107.074 13.3577C107.5 13.7203 107.869 14.1384 108.184 14.6119C108.503 15.0803 108.743 15.5865 108.906 16.1305C109.073 16.6745 109.156 17.2236 109.156 17.7777C109.156 18.498 109.02 19.1956 108.746 19.8706C108.473 20.5405 108.1 21.1298 107.629 21.6386C107.163 22.1474 106.591 22.5553 105.912 22.8626C105.238 23.1648 104.518 23.3159 103.753 23.3159C103.125 23.3159 102.528 23.2152 101.96 23.0137C101.393 22.8072 100.894 22.5251 100.463 22.1675C100.032 21.8098 99.6571 21.3968 99.3381 20.9283C99.0188 20.4599 98.7757 19.9537 98.6087 19.4097C98.4466 18.8606 98.3656 18.3066 98.3656 17.7474ZM103.768 21.427C104.27 21.427 104.729 21.3213 105.144 21.1097C105.56 20.8981 105.899 20.6186 106.162 20.271C106.425 19.9184 106.628 19.5255 106.77 19.0924C106.917 18.6541 106.991 18.2058 106.991 17.7474C106.991 17.1027 106.862 16.5058 106.603 15.9567C106.35 15.4027 105.973 14.9518 105.471 14.6043C104.974 14.2567 104.407 14.0829 103.768 14.0829C103.267 14.0829 102.808 14.1888 102.393 14.4003C101.978 14.6119 101.638 14.8914 101.375 15.239C101.111 15.5865 100.906 15.9769 100.759 16.4101C100.617 16.8433 100.546 17.2891 100.546 17.7474C100.546 18.3922 100.671 18.9916 100.919 19.5457C101.167 20.0947 101.539 20.5455 102.036 20.8981C102.538 21.2507 103.115 21.427 103.768 21.427Z" fill="#EAB57C"/>
<path d="M119.104 14.1283H115.571V23.2403H113.442V14.1283H109.909V12.2545H119.104V14.1283Z" fill="#EAB57C"/>
<path d="M119.856 17.7474C119.856 17.0221 119.993 16.322 120.266 15.647C120.545 14.967 120.92 14.3726 121.391 13.8638C121.868 13.3551 122.445 12.9471 123.124 12.6399C123.803 12.3325 124.525 12.179 125.29 12.179C125.913 12.179 126.508 12.2848 127.076 12.4963C127.643 12.7028 128.139 12.9899 128.565 13.3577C128.991 13.7203 129.36 14.1384 129.674 14.6119C129.994 15.0803 130.235 15.5865 130.397 16.1305C130.564 16.6745 130.648 17.2236 130.648 17.7777C130.648 18.498 130.51 19.1956 130.237 19.8706C129.963 20.5405 129.591 21.1298 129.12 21.6386C128.654 22.1474 128.082 22.5553 127.402 22.8626C126.728 23.1648 126.009 23.3159 125.244 23.3159C124.616 23.3159 124.018 23.2152 123.451 23.0137C122.883 22.8072 122.384 22.5251 121.954 22.1675C121.523 21.8098 121.148 21.3968 120.829 20.9283C120.51 20.4599 120.266 19.9537 120.099 19.4097C119.937 18.8606 119.856 18.3066 119.856 17.7474ZM125.26 21.427C125.761 21.427 126.219 21.3213 126.635 21.1097C127.05 20.8981 127.39 20.6186 127.653 20.271C127.917 19.9184 128.12 19.5255 128.261 19.0924C128.408 18.6541 128.482 18.2058 128.482 17.7474C128.482 17.1027 128.352 16.5058 128.094 15.9567C127.841 15.4027 127.463 14.9518 126.961 14.6043C126.465 14.2567 125.898 14.0829 125.26 14.0829C124.758 14.0829 124.299 14.1888 123.884 14.4003C123.468 14.6119 123.129 14.8914 122.866 15.239C122.602 15.5865 122.397 15.9769 122.25 16.4101C122.108 16.8433 122.037 17.2891 122.037 17.7474C122.037 18.3922 122.161 18.9916 122.41 19.5457C122.658 20.0947 123.03 20.5455 123.527 20.8981C124.028 21.2507 124.606 21.427 125.26 21.427Z" fill="#EAB57C"/>
<path d="M137.426 11.2949C136.691 11.2949 136.106 11.1111 135.67 10.7433C135.235 10.3756 135.017 9.89961 135.017 9.31534H136.119C136.119 9.62262 136.228 9.87699 136.446 10.0784C136.668 10.2799 136.995 10.3807 137.426 10.3807C138.206 10.3807 138.649 10.0256 138.756 9.31534H139.857C139.857 9.89961 139.637 10.3756 139.196 10.7433C138.761 11.1111 138.171 11.2949 137.426 11.2949ZM132.684 23.2403V12.2545H134.812V20.2559L140.169 12.2545H142.16V23.2403H140.025V15.4278L134.735 23.2403H132.684Z" fill="#EAB57C"/>
<path d="M153.673 12.1941C154.661 12.1941 155.532 12.4107 156.287 12.8439C157.047 13.2771 157.609 13.8588 157.974 14.5892L156.317 15.7226C156.14 15.3296 155.894 15.0073 155.58 14.7554C155.266 14.4985 154.947 14.3222 154.623 14.2266C154.303 14.1308 153.967 14.083 153.612 14.083C153.095 14.083 152.627 14.1913 152.206 14.4079C151.791 14.6195 151.454 14.9015 151.195 15.2541C150.942 15.6067 150.747 15.9971 150.61 16.4252C150.473 16.8483 150.405 17.284 150.405 17.7323C150.405 18.3821 150.54 18.9891 150.808 19.5533C151.076 20.1174 151.461 20.5732 151.963 20.9208C152.464 21.2684 153.024 21.4421 153.642 21.4421C153.997 21.4421 154.344 21.3893 154.684 21.2835C155.023 21.1727 155.348 20.9888 155.656 20.7319C155.971 20.47 156.209 20.1501 156.37 19.7724L158.126 20.7772C157.908 21.3011 157.549 21.762 157.047 22.16C156.551 22.5528 156 22.8475 155.398 23.0439C154.8 23.2354 154.195 23.331 153.582 23.331C152.968 23.331 152.381 23.2253 151.818 23.0137C151.256 22.8022 150.76 22.5125 150.329 22.1448C149.904 21.7721 149.528 21.349 149.204 20.8755C148.885 20.397 148.642 19.8832 148.475 19.3342C148.308 18.78 148.224 18.226 148.224 17.6719C148.224 16.997 148.348 16.3346 148.596 15.6848C148.85 15.035 149.202 14.4507 149.653 13.9319C150.103 13.4131 150.679 12.995 151.378 12.6777C152.077 12.3553 152.842 12.1941 153.673 12.1941Z" fill="#EAB57C"/>
<path d="M162.731 12.2545H164.912L168.97 23.2403H166.758L165.733 20.5052H161.872L160.862 23.2403H158.65L162.731 12.2545ZM165.345 19.0016L163.817 14.4683L162.229 19.0016H165.345Z" fill="#EAB57C"/>
<path d="M175.315 11.2949C174.58 11.2949 173.995 11.1111 173.56 10.7433C173.124 10.3756 172.906 9.89961 172.906 9.31534H174.008C174.008 9.62262 174.117 9.87699 174.335 10.0784C174.558 10.2799 174.884 10.3807 175.315 10.3807C176.096 10.3807 176.539 10.0256 176.645 9.31534H177.747C177.747 9.89961 177.527 10.3756 177.086 10.7433C176.65 11.1111 176.06 11.2949 175.315 11.2949ZM170.573 23.2403V12.2545H172.701V20.2559L178.059 12.2545H180.049V23.2403H177.915V15.4278L172.625 23.2403H170.573Z" fill="#EAB57C"/>
<path d="M191 14.1283H187.467V23.2403H185.339V14.1283H181.805V12.2545H191V14.1283Z" fill="#EAB57C"/>
<path d="M64.8831 38.5033V33.3204H65.5136V35.5624H66.1813L67.8219 33.3204H68.5513L66.7021 35.8299L68.6784 38.5033H67.9077L66.195 36.1615H65.5136V38.5033H64.8831Z" fill="#EAB57C"/>
<path d="M68.9899 35.9118C68.9899 35.4555 69.0917 35.0266 69.2943 34.625C69.4977 34.2234 69.781 33.9001 70.1442 33.6553C70.5096 33.4083 70.91 33.2846 71.3461 33.2846C71.6182 33.2846 71.8774 33.3345 72.1238 33.4344C72.3703 33.5316 72.5859 33.6661 72.7715 33.8371C72.9585 34.0081 73.1209 34.2055 73.2574 34.4287C73.3968 34.6522 73.502 34.8922 73.573 35.1488C73.6458 35.4033 73.6823 35.66 73.6823 35.9189C73.6823 36.3775 73.5808 36.8067 73.3774 37.2057C73.1763 37.6051 72.8949 37.9269 72.5317 38.1717C72.1688 38.4165 71.7688 38.539 71.3327 38.539C70.9948 38.539 70.6773 38.4653 70.3803 38.3181C70.0836 38.1684 69.8349 37.9709 69.6338 37.7261C69.4349 37.4791 69.2776 37.1986 69.1609 36.8849C69.0471 36.569 68.9899 36.2445 68.9899 35.9118ZM71.3394 37.9474C71.5956 37.9474 71.8316 37.8889 72.0487 37.7727C72.2677 37.6539 72.448 37.4981 72.5897 37.3055C72.7335 37.1129 72.8454 36.8957 72.9254 36.6532C73.0053 36.411 73.0454 36.1637 73.0454 35.9118C73.0454 35.5575 72.9748 35.2274 72.8332 34.9208C72.6915 34.6116 72.4882 34.3624 72.2231 34.172C71.9606 33.9798 71.6662 33.8833 71.3394 33.8833C71.084 33.8833 70.8465 33.9418 70.6275 34.058C70.4082 34.1746 70.2264 34.3289 70.0825 34.5215C69.9408 34.7115 69.8293 34.9279 69.7464 35.1705C69.6665 35.4104 69.6271 35.6574 69.6271 35.9118C69.6271 36.1756 69.668 36.4312 69.7505 36.6782C69.8349 36.9229 69.9498 37.1394 70.0959 37.3271C70.2423 37.5149 70.423 37.6658 70.6375 37.7798C70.8546 37.8915 71.0885 37.9474 71.3394 37.9474Z" fill="#EAB57C"/>
<path d="M78.7037 33.3204V38.5033H78.0732V36.1436H75.33V38.5033H74.6995V33.3204H75.33V35.5624H78.0732V33.3204H78.7037Z" fill="#EAB57C"/>
<path d="M80.0398 38.5033V33.3204H80.6696V35.5624H81.3376L82.9786 33.3204H83.708L81.8585 35.8299L83.8348 38.5033H83.0641L81.3517 36.1615H80.6696V38.5033H80.0398Z" fill="#EAB57C"/>
<path d="M85.2829 38.5249V37.9687H85.5981C85.7078 37.9687 85.7911 37.9426 85.8483 37.8901C85.9078 37.838 85.974 37.743 86.0472 37.6051L86.2286 37.1949L84.1531 33.3204H84.8479L86.5164 36.5251L87.9205 33.3204H88.5849L86.5298 37.9188C86.4272 38.1423 86.3175 38.2992 86.2011 38.3893C86.0844 38.4795 85.9283 38.5249 85.7316 38.5249H85.2829Z" fill="#EAB57C"/>
<path d="M89.2526 38.5033V33.3204H91.3289C91.6092 33.3204 91.8676 33.4024 92.1025 33.5663C92.3375 33.728 92.5193 33.9359 92.6475 34.19C92.775 34.4422 92.839 34.7045 92.839 34.9779C92.839 35.2655 92.7784 35.5352 92.6576 35.7871C92.5386 36.0389 92.3654 36.2446 92.1371 36.4036C91.9111 36.5631 91.656 36.6425 91.3727 36.6425H89.8831V38.5033H89.2526ZM89.8831 36.0579H91.3356C91.591 36.0579 91.7988 35.9536 91.9586 35.7442C92.1185 35.5352 92.1981 35.2797 92.1981 34.9779C92.1981 34.6761 92.1081 34.4217 91.9282 34.2149C91.7497 34.0082 91.5382 33.905 91.2943 33.905H89.8831V36.0579Z" fill="#EAB57C"/>
<path d="M95.812 33.2917C96.241 33.2917 96.6173 33.3953 96.9388 33.6017C97.263 33.8062 97.5054 34.0797 97.6649 34.4217L97.1649 34.757C97.0939 34.6001 97.005 34.4634 96.8976 34.3468C96.7905 34.228 96.6738 34.1367 96.5485 34.0726C96.4251 34.0082 96.2994 33.9608 96.1719 33.9299C96.0462 33.899 95.9169 33.8834 95.7845 33.8834C95.5176 33.8834 95.273 33.943 95.0514 34.0618C94.8298 34.1806 94.6499 34.3375 94.5105 34.5323C94.3733 34.7249 94.267 34.9399 94.1915 35.1776C94.1164 35.4127 94.0789 35.6552 94.0789 35.9048C94.0789 36.2636 94.1532 36.6 94.3015 36.9137C94.4499 37.2247 94.6566 37.4766 94.9213 37.6692C95.1886 37.8592 95.483 37.9546 95.8053 37.9546C95.9879 37.9546 96.1656 37.9248 96.3396 37.8652C96.515 37.8037 96.6846 37.7024 96.8466 37.5623C97.011 37.4196 97.1389 37.2464 97.2299 37.0418L97.7541 37.3414C97.6538 37.5884 97.4939 37.8059 97.2749 37.9937C97.0578 38.1788 96.8188 38.3182 96.5589 38.4106C96.3005 38.5011 96.0403 38.5462 95.7778 38.5462C95.447 38.5462 95.1336 38.4691 94.8391 38.3145C94.5443 38.1598 94.2971 37.9568 94.096 37.705C93.8948 37.4531 93.735 37.1677 93.6168 36.8492C93.5 36.5285 93.4417 36.204 93.4417 35.8761C93.4417 35.6243 93.4751 35.3747 93.5413 35.1277C93.6093 34.8781 93.7112 34.6441 93.8461 34.4254C93.9807 34.2045 94.1406 34.0096 94.3253 33.8409C94.5127 33.6721 94.7343 33.5387 94.9897 33.4415C95.2481 33.3417 95.522 33.2917 95.812 33.2917Z" fill="#EAB57C"/>
<path d="M100.634 38.5033V33.3204H101.268V37.591L104.148 33.3204H104.738V38.5033H104.108V34.3114L101.261 38.5033H100.634Z" fill="#EAB57C"/>
<path d="M110.108 33.3204V38.5033H109.478V36.1436H106.734V38.5033H106.105V33.3204H106.734V35.5624H109.478V33.3204H110.108Z" fill="#EAB57C"/>
<path d="M115.037 33.905H113.318V38.5033H112.687V33.905H110.968V33.3204H115.037V33.905Z" fill="#EAB57C"/>
<path d="M119.274 37.9188V38.5033H115.893V33.3204H119.212V33.905H116.524V35.584H118.859V36.1291H116.524V37.9188H119.274Z" fill="#EAB57C"/>
<path d="M120.281 38.5033V33.3204H122.356C122.637 33.3204 122.895 33.4024 123.131 33.5663C123.366 33.728 123.547 33.9359 123.675 34.19C123.803 34.4422 123.867 34.7045 123.867 34.9779C123.867 35.2655 123.807 35.5352 123.686 35.7871C123.567 36.0389 123.393 36.2446 123.165 36.4036C122.939 36.5631 122.684 36.6425 122.401 36.6425H120.911V38.5033H120.281ZM120.911 36.0579H122.363C122.619 36.0579 122.827 35.9536 122.987 35.7442C123.147 35.5352 123.226 35.2797 123.226 34.9779C123.226 34.6761 123.136 34.4217 122.956 34.2149C122.778 34.0082 122.566 33.905 122.323 33.905H120.911V36.0579Z" fill="#EAB57C"/>
<path d="M128.796 33.3204V38.5033H128.165V36.1436H125.422V38.5033H124.791V33.3204H125.422V35.5624H128.165V33.3204H128.796Z" fill="#EAB57C"/>
<path d="M133.512 37.9188V38.5033H130.132V33.3204H133.45V33.905H130.761V35.584H133.098V36.1291H130.761V37.9188H133.512Z" fill="#EAB57C"/>
<path d="M138.112 33.905H136.392V38.5033H135.763V33.905H134.043V33.3204H138.112V33.905Z" fill="#EAB57C"/>
<path d="M138.389 36.8029V36.2184H140.458V36.8029H138.389Z" fill="#EAB57C"/>
<path d="M141.644 38.5033V33.3204H145.486V38.5033H144.856V33.905H142.273V38.5033H141.644Z" fill="#EAB57C"/>
<path d="M146.819 38.5033V33.3204H148.894C149.175 33.3204 149.433 33.4024 149.668 33.5663C149.904 33.728 150.085 33.9359 150.213 34.19C150.341 34.4422 150.405 34.7045 150.405 34.9779C150.405 35.2655 150.344 35.5352 150.223 35.7871C150.105 36.0389 149.931 36.2446 149.702 36.4036C149.476 36.5631 149.222 36.6425 148.939 36.6425H147.449V38.5033H146.819ZM147.449 36.0579H148.901C149.157 36.0579 149.365 35.9536 149.524 35.7442C149.684 35.5352 149.764 35.2797 149.764 34.9779C149.764 34.6761 149.674 34.4217 149.494 34.2149C149.315 34.0082 149.104 33.905 148.86 33.905H147.449V36.0579Z" fill="#EAB57C"/>
<path d="M151.007 35.9118C151.007 35.4555 151.109 35.0266 151.312 34.625C151.515 34.2234 151.799 33.9001 152.162 33.6553C152.527 33.4083 152.927 33.2846 153.364 33.2846C153.636 33.2846 153.895 33.3345 154.142 33.4344C154.388 33.5316 154.604 33.6661 154.789 33.8371C154.976 34.0081 155.138 34.2055 155.275 34.4287C155.414 34.6522 155.52 34.8922 155.59 35.1488C155.664 35.4033 155.7 35.66 155.7 35.9189C155.7 36.3775 155.598 36.8067 155.395 37.2057C155.194 37.6051 154.912 37.9269 154.549 38.1717C154.186 38.4165 153.786 38.539 153.35 38.539C153.012 38.539 152.695 38.4653 152.398 38.3181C152.101 38.1684 151.853 37.9709 151.651 37.7261C151.453 37.4791 151.295 37.1986 151.178 36.8849C151.064 36.569 151.007 36.2445 151.007 35.9118ZM153.357 37.9474C153.613 37.9474 153.849 37.8889 154.066 37.7727C154.285 37.6539 154.465 37.4981 154.607 37.3055C154.751 37.1129 154.863 36.8957 154.943 36.6532C155.023 36.411 155.063 36.1637 155.063 35.9118C155.063 35.5575 154.992 35.2274 154.851 34.9208C154.709 34.6116 154.506 34.3624 154.24 34.172C153.978 33.9798 153.684 33.8833 153.357 33.8833C153.101 33.8833 152.863 33.9418 152.644 34.058C152.425 34.1746 152.244 34.3289 152.1 34.5215C151.958 34.7115 151.847 34.9279 151.764 35.1705C151.684 35.4104 151.644 35.6574 151.644 35.9118C151.644 36.1756 151.685 36.4312 151.767 36.6782C151.853 36.9229 151.967 37.1394 152.114 37.3271C152.26 37.5149 152.44 37.6658 152.655 37.7798C152.872 37.8915 153.106 37.9474 153.357 37.9474Z" fill="#EAB57C"/>
<path d="M160.097 37.9188V38.5033H156.717V33.3204H160.036V33.905H157.348V35.584H159.683V36.1291H157.348V37.9188H160.097Z" fill="#EAB57C"/>
<path d="M161.105 38.5033V33.3204H161.734V35.5624H162.402L164.043 33.3204H164.773L162.923 35.8299L164.9 38.5033H164.129L162.417 36.1615H161.734V38.5033H161.105Z" fill="#EAB57C"/>
<path d="M169.407 33.905H167.688V38.5033H167.057V33.905H165.338V33.3204H169.407V33.905Z" fill="#EAB57C"/>
<path d="M169.791 35.9118C169.791 35.4555 169.892 35.0266 170.095 34.625C170.299 34.2234 170.582 33.9001 170.945 33.6553C171.31 33.4083 171.711 33.2846 172.147 33.2846C172.419 33.2846 172.678 33.3345 172.925 33.4344C173.171 33.5316 173.387 33.6661 173.572 33.8371C173.759 34.0081 173.921 34.2055 174.058 34.4287C174.197 34.6522 174.303 34.8922 174.374 35.1488C174.447 35.4033 174.483 35.66 174.483 35.9189C174.483 36.3775 174.381 36.8067 174.178 37.2057C173.977 37.6051 173.695 37.9269 173.332 38.1717C172.969 38.4165 172.569 38.539 172.133 38.539C171.795 38.539 171.478 38.4653 171.181 38.3181C170.884 38.1684 170.635 37.9709 170.434 37.7261C170.236 37.4791 170.078 37.1986 169.962 36.8849C169.848 36.569 169.791 36.2445 169.791 35.9118ZM172.14 37.9474C172.396 37.9474 172.632 37.8889 172.849 37.7727C173.069 37.6539 173.249 37.4981 173.39 37.3055C173.534 37.1129 173.646 36.8957 173.726 36.6532C173.806 36.411 173.846 36.1637 173.846 35.9118C173.846 35.5575 173.775 35.2274 173.633 34.9208C173.492 34.6116 173.289 34.3624 173.024 34.172C172.762 33.9798 172.466 33.8833 172.14 33.8833C171.885 33.8833 171.647 33.9418 171.427 34.058C171.208 34.1746 171.027 34.3289 170.883 34.5215C170.741 34.7115 170.63 34.9279 170.547 35.1705C170.468 35.4104 170.428 35.6574 170.428 35.9118C170.428 36.1756 170.469 36.4312 170.551 36.6782C170.635 36.9229 170.751 37.1394 170.897 37.3271C171.043 37.5149 171.224 37.6658 171.438 37.7798C171.655 37.8915 171.889 37.9474 172.14 37.9474Z" fill="#EAB57C"/>
<path d="M177.863 38.5033H175.5V33.3204H177.977C178.201 33.3204 178.401 33.3867 178.579 33.5197C178.758 33.6505 178.891 33.8159 178.98 34.0152C179.069 34.2127 179.114 34.4217 179.114 34.6426C179.114 34.9041 179.05 35.1456 178.922 35.3665C178.797 35.5852 178.621 35.7454 178.398 35.8478C178.683 35.9357 178.908 36.097 179.073 36.3325C179.239 36.5676 179.323 36.8459 179.323 37.1666C179.323 37.5585 179.181 37.8797 178.898 38.1289C178.617 38.3785 178.273 38.5033 177.863 38.5033ZM176.13 33.8904V35.6194H177.716C177.936 35.6194 178.12 35.5364 178.268 35.3698C178.417 35.2014 178.491 34.9969 178.491 34.757C178.491 34.5122 178.421 34.3066 178.282 34.14C178.144 33.9739 177.97 33.8904 177.761 33.8904H176.13ZM177.915 36.154H176.13V37.933H177.863C178.092 37.933 178.286 37.845 178.446 37.6692C178.606 37.4934 178.685 37.2866 178.685 37.0489C178.685 36.8064 178.611 36.5974 178.463 36.4215C178.314 36.2435 178.132 36.154 177.915 36.154Z" fill="#EAB57C"/>
<path fill-rule="evenodd" clip-rule="evenodd" d="M2.55856 35.9845L2.55855 3.10797H49.0391V35.9845H2.55856ZM0 0.546173H51.5976V38.5462H1.65893e-06L0 0.546173Z" fill="#EAB57C"/>
<path fill-rule="evenodd" clip-rule="evenodd" d="M38.3781 35.9845V25.3102H49.0388V35.9845H38.3781ZM35.8195 22.7484H51.5973V38.5462H35.8195V22.7484Z" fill="#EAB57C"/>
<path fill-rule="evenodd" clip-rule="evenodd" d="M27.7177 35.9844V14.209H49.0392V35.9844H27.7177ZM25.1592 11.6472H51.5977V38.5461H25.1592V11.6472Z" fill="#EAB57C"/>
</svg>
