<svg width="174" height="116" viewBox="0 0 174 116" fill="none" xmlns="http://www.w3.org/2000/svg">
<path fill-rule="evenodd" clip-rule="evenodd" d="M53.3232 32.6321V40.938H61.8469H70.3706V32.6321V24.3261H61.8469H53.3232V32.6321ZM104.465 32.6321V40.938H112.989H121.513V32.6321V24.3261H112.989H104.465V32.6321ZM66.9871 32.5687V37.5142H61.8469H56.7067V32.5687V27.6232H61.8469H66.9871V32.5687ZM117.999 32.5687V37.5142H112.924H107.849V32.5687V27.6232H112.924H117.999V32.5687ZM60.0901 32.5687V34.2172H61.8469H63.6037V32.5687V30.9202H61.8469H60.0901V32.5687ZM104.335 51.4631V56.0282H107.653H110.972V55.0772V54.1261H108.695H106.417V50.5121V46.898H105.376H104.335V51.4631ZM111.362 46.9636C111.362 46.9996 111.675 47.6415 112.058 48.3902C112.44 49.1387 112.941 50.1522 113.17 50.6424L113.586 51.5335L112.409 53.7208C111.762 54.9237 111.232 55.935 111.232 55.9681C111.232 56.0012 111.717 56.0282 112.309 56.0282H113.387L114.29 54.2529C115.127 52.6091 115.22 52.4776 115.554 52.4776C115.888 52.4776 115.984 52.6112 116.828 54.2529L117.74 56.0282H118.849H119.958L118.783 53.8296C118.137 52.6204 117.609 51.5652 117.609 51.4848C117.609 51.4043 118.103 50.3372 118.707 49.1135L119.806 46.8884L118.683 46.9249L117.56 46.9614L116.716 48.7747C115.937 50.4471 115.846 50.5851 115.55 50.55C115.273 50.5173 115.112 50.2623 114.385 48.705L113.541 46.898H112.451C111.852 46.898 111.362 46.9274 111.362 46.9636ZM120.862 51.4631V56.0282H121.903H122.944V54.6333V53.2384H124.547C126.935 53.2384 127.968 52.7745 128.62 51.4087C129.466 49.6389 128.452 47.5625 126.481 47.0291C126.218 46.9578 124.845 46.8992 123.432 46.8988L120.862 46.898V51.4631ZM126.406 49.2313C126.892 49.7057 126.965 50.1144 126.663 50.6839C126.386 51.2057 125.889 51.3662 124.343 51.4342L122.944 51.4957V50.1479V48.8002H124.454H125.963L126.406 49.2313ZM104.465 59.1984V60.0861H104.986H105.506V62.8759V65.6657H104.986H104.465V66.5533V67.441H106.482H108.499V66.5533V65.6657H107.979H107.458V62.8759V60.0861H107.979H108.499V59.1984V58.3108H106.482H104.465V59.1984ZM109.671 59.1964V60.0861H110.972H112.273V63.7635V67.441H113.249H114.225V63.7635V60.0861H115.598H116.97L116.931 59.2301L116.893 58.3742L113.282 58.3405L109.671 58.3067V59.1964ZM118.346 58.3954C118.298 58.4418 118.259 60.4961 118.259 62.9605V67.441H119.223H120.186L120.234 65.1901C120.288 62.6997 120.399 62.2894 121.118 61.927C121.61 61.6792 122.546 61.6801 122.91 61.9285C123.353 62.2307 123.463 62.8936 123.464 65.2535L123.465 67.441H124.45H125.435L125.393 64.7463C125.353 62.1668 125.338 62.0246 125.026 61.4185C124.535 60.4626 123.829 60.0392 122.627 59.98C121.702 59.9346 121.44 60.0008 120.309 60.5657C120.255 60.5926 120.211 60.0961 120.211 59.4626V58.3108H119.322C118.833 58.3108 118.394 58.3488 118.346 58.3954ZM135.268 58.3903C135.218 58.4395 135.176 60.4961 135.176 62.9605V67.441H136.217C137.146 67.441 137.259 67.4155 137.259 67.2046C137.259 66.9831 137.297 66.987 137.866 67.268C139.118 67.8858 141.009 67.5366 141.881 66.5266C142.64 65.6477 142.789 65.1946 142.789 63.7635C142.789 62.5264 142.762 62.3842 142.405 61.7569C141.981 61.0107 141.266 60.3915 140.535 60.1368C139.744 59.8615 138.564 59.9146 137.871 60.2566L137.268 60.5541L137.231 59.4641L137.193 58.3742L136.277 58.3374C135.773 58.3172 135.319 58.3411 135.268 58.3903ZM126.737 62.7789C126.781 65.3862 126.795 65.5051 127.115 66.1119C127.316 66.4916 127.668 66.8918 128.002 67.1208C128.469 67.4407 128.705 67.5076 129.507 67.5471C130.432 67.5925 130.694 67.5263 131.826 66.9614C131.879 66.9345 131.923 67.0315 131.923 67.1768C131.923 67.4211 131.997 67.441 132.899 67.441H133.875V63.7635V60.0861H132.899H131.923V62.2459C131.923 64.6109 131.829 65.0396 131.206 65.5175C130.728 65.8836 129.618 65.9017 129.172 65.5504C128.872 65.3136 128.864 65.2505 128.8 62.7289L128.735 60.1495L127.713 60.1122L126.692 60.0749L126.737 62.7789ZM139.986 61.9421C140.572 62.2795 140.825 62.8305 140.826 63.7698C140.826 65.1617 140.245 65.7925 138.962 65.7925C137.855 65.7925 137.259 65.0816 137.259 63.7635C137.259 62.4362 137.854 61.7346 138.98 61.7346C139.344 61.7346 139.783 61.825 139.986 61.9421ZM53.3232 82.0873V90.3933H61.8469H70.3706V82.0873V73.7814H61.8469H53.3232V82.0873ZM104.465 82.0873V90.3933H112.989H121.513V82.0873V73.7814H112.989H104.465V82.0873ZM66.9562 82.119L66.9221 87.0329H61.8469H56.7717L56.7377 82.119L56.7037 77.2052H61.8469H66.9901L66.9562 82.119ZM117.999 82.1507V87.0963H112.924H107.849V82.1507V77.2052H112.924H117.999V82.1507Z" fill="#1E1E1E"/>
</svg>
