<svg width="106" height="18" viewBox="0 0 106 18" fill="none" xmlns="http://www.w3.org/2000/svg">
<path d="M9.648 13.8519C10.08 13.5479 10.296 13.1719 10.296 12.7239C10.296 12.2759 10.064 11.8999 9.6 11.5959C9.136 11.2759 8.56 11.0359 7.872 10.8759C7.184 10.6999 6.432 10.4759 5.616 10.2039C4.8 9.93188 4.048 9.62788 3.36 9.29188C2.672 8.95588 2.096 8.45188 1.632 7.77988C1.168 7.09188 0.936 6.26788 0.936 5.30788C0.936 3.91588 1.536 2.71588 2.736 1.70788C3.952 0.699882 5.52 0.195882 7.44 0.195882C10.272 0.195882 12.464 1.22788 14.016 3.29188L11.52 5.69188C10.304 4.34788 8.896 3.67588 7.296 3.67588C5.616 3.67588 4.776 4.20388 4.776 5.25988C4.776 5.65988 5.008 5.99588 5.472 6.26788C5.936 6.53988 6.512 6.75588 7.2 6.91588C7.888 7.05988 8.64 7.26788 9.456 7.53988C10.272 7.81188 11.024 8.11588 11.712 8.45188C12.4 8.78788 12.976 9.29988 13.44 9.98788C13.904 10.6759 14.136 11.4919 14.136 12.4359C14.136 13.9559 13.528 15.2279 12.312 16.2519C11.096 17.2599 9.584 17.7639 7.776 17.7639C5.872 17.7639 4.256 17.3799 2.928 16.6119C1.6 15.8439 0.624 14.8599 0 13.6599L2.712 11.4039C3.272 12.2999 3.984 13.0039 4.848 13.5159C5.712 14.0279 6.656 14.2839 7.68 14.2839C8.56 14.2839 9.216 14.1399 9.648 13.8519ZM16.4194 17.3799V0.579882H29.2594V4.05988H20.1394V7.17988H28.6594V10.5399H20.1394V13.8999H29.4754V17.3799H16.4194ZM31.1653 8.97988C31.1653 6.54788 31.9973 4.49188 33.6613 2.81188C35.3413 1.13188 37.3973 0.291883 39.8293 0.291883C42.2453 0.291883 44.2853 1.12388 45.9493 2.78788C47.6293 4.43588 48.4693 6.49988 48.4693 8.97988C48.4693 11.4439 47.6293 13.5079 45.9493 15.1719C44.2853 16.8359 42.2453 17.6679 39.8293 17.6679C37.4133 17.6679 35.3653 16.8439 33.6853 15.1959C32.0053 13.5319 31.1653 11.4599 31.1653 8.97988ZM36.4213 5.30788C35.4933 6.25188 35.0293 7.47588 35.0293 8.97988C35.0293 10.4839 35.4933 11.7079 36.4213 12.6519C37.3653 13.5959 38.5013 14.0679 39.8293 14.0679C41.1893 14.0679 42.3253 13.6039 43.2373 12.6759C44.1493 11.7319 44.6053 10.4999 44.6053 8.97988C44.6053 7.47588 44.1253 6.25188 43.1653 5.30788C42.2213 4.36388 41.1093 3.89188 39.8293 3.89188C38.5013 3.89188 37.3653 4.36388 36.4213 5.30788ZM59.0113 0.579882V12.3879C59.0113 14.0519 58.5553 15.3399 57.6433 16.2519C56.7473 17.1479 55.5473 17.5959 54.0433 17.5959C52.8433 17.5959 51.8273 17.2999 50.9953 16.7079C50.1633 16.1159 49.5473 15.4119 49.1473 14.5959L50.4433 13.6359C50.7953 14.3079 51.2753 14.8759 51.8833 15.3399C52.5073 15.8039 53.1953 16.0359 53.9473 16.0359C55.0353 16.0039 55.8673 15.6919 56.4433 15.0999C57.0193 14.4919 57.3073 13.4919 57.3073 12.0999V0.579882H59.0113ZM60.9158 17.3799L68.2838 0.531882H69.6758L77.0438 17.3799H75.2678L73.2278 12.7719H64.6118L62.6438 17.3799H60.9158ZM68.9318 2.78788L65.3078 11.2359H72.6038L68.9318 2.78788ZM77.2451 2.16388V0.579882H90.8291V1.73188L79.1651 15.7959H91.0691V17.3799H76.7891V16.2279L88.4051 2.16388H77.2451ZM91.917 2.16388V0.579882H105.501V1.73188L93.837 15.7959H105.741V17.3799H91.461V16.2279L103.077 2.16388H91.917Z" fill="black"/>
</svg>
