 <svg class="navbar-brand-logo-inverted" xmlns="http://www.w3.org/2000/svg" width="150" height="40" viewBox="0 0 124 22" fill="none">
                                <g clip-path="url(#clip0_1597_111759)">
                                    <path d="M99.6888 22H96.6444V4.31223C96.6444 3.8882 96.1633 3.38978 95.3639 3.38978H88.93C88.1282 3.38978 87.6471 3.88572 87.6471 4.31223V22H84.6051V4.31223C84.6051 3.8882 84.1241 3.38978 83.3247 3.38978H76.8908C76.0914 3.38978 75.6079 3.88572 75.6079 4.31223V22H72.5659V3.55096C72.5659 1.6639 74.4732 0.287659 76.6162 0.287659H95.6385C97.7815 0.287659 99.6888 1.66638 99.6888 3.55096V22Z" fill="white"/>
                                    <path d="M12.8435 4.31224V21.9901H9.80146V4.31224C9.80146 3.88573 9.32037 3.38978 8.51857 3.38978H0V0.285187H22.6814V3.38978H14.1263C13.327 3.38978 12.8435 3.88573 12.8435 4.31224Z" fill="white"/>
                                    <path d="M118.764 3.39474H106.949V0.292618L119.27 0.287659C122.747 0.287659 124.134 3.06741 123.121 5.562L114.279 21.9926H110.839L119.877 5.18013C120.409 4.16097 120.244 3.39722 118.764 3.39722V3.39474Z" fill="white"/>
                                    <path d="M67.2809 15.275L70.0216 21.9926H66.654L64.0081 15.5651H65.3833C66.0588 15.5428 66.6929 15.4436 67.2809 15.275ZM57.5669 0.00247971H58.1573C60.519 0.00247971 61.5978 1.42087 62.3923 3.30049L65.1088 9.95604H61.6999L59.3868 4.33701C59.0976 3.60054 58.6846 3.11452 57.8634 3.11452C57.0421 3.11452 56.6266 3.60302 56.3375 4.33701L49.0727 21.9901H45.7051L53.3319 3.29802C54.1289 1.41839 55.2052 0 57.5694 0L57.5669 0.00247971Z" fill="white"/>
                                    <path d="M57.0983 14.6353C54.552 14.7171 53.0261 15.156 52.2656 16.9315L53.3809 14.1815C54.1195 12.3341 55.9977 10.9851 58.595 10.9033H66.7807C69.3271 10.8215 70.8553 10.3776 71.6134 8.60214L70.5006 11.3521C69.762 13.1995 67.9688 14.5534 65.3691 14.6378H57.0983V14.6353Z" fill="white"/>
                                    <path d="M29.1198 12.6912C28.318 12.6912 27.8369 13.1871 27.8369 13.6136V17.9655C27.8369 18.392 28.318 18.8855 29.1198 18.8855H44.0066V21.9901H28.8453C26.7022 21.9901 24.7949 20.6138 24.7949 18.7268V3.55096C24.7949 1.6639 26.7022 0.287659 28.8453 0.287659H44.0066V3.39226H29.1198C28.318 3.39226 27.8369 3.8882 27.8369 4.31471V8.6666C27.8369 9.09063 28.318 9.58657 29.1198 9.58657H43.7564V12.6912H29.1198Z" fill="white"/>
                                </g>
                                <defs>
                                    <clipPath id="clip0_1597_111759">
                                        <rect width="123.444" height="22" fill="white"/>
                                    </clipPath>
                                </defs>
                            </svg>  