<?xml version="1.0" encoding="UTF-8"?><svg id="a" xmlns="http://www.w3.org/2000/svg" viewBox="0 0 120 120.2"><path d="M0,.05h60.59L8.35,70.71c-2.95-3.61-4.97-6.51-6.06-8.71-1.53-3.39-2.29-7.06-2.29-11.01V.05ZM74.28.12L18.47,78.51c-2.06-.91-3.78-2.12-5.15-3.61L67.4,0l6.89.12ZM23.29,80.58L81.44.07l7-.04L28.79,82.65c-2.16-.32-3.99-1.01-5.5-2.07ZM101.61.05l-59.32,83.29-3.23.16c-1.83,0-2.97-.08-3.4-.25L95.09.09l6.52-.03ZM109.33.05h10.67v120.14h-58.6v-44.54c-1.64,1.64-3.45,3.12-5.42,4.44l-6.73,2.63L109.33.05Z" style="fill:#ad5d49;"/></svg>