<?xml version="1.0" encoding="UTF-8"?><svg id="a" xmlns="http://www.w3.org/2000/svg" viewBox="0 0 653.48 47.82"><path d="M27.36.21l.02,2.62L.07,19.23l-.07-2.03L27.36.21ZM27.38,17.29L.05,33.84l-.05-2.42L27.36,14.92l.02,2.37ZM5.94,47.68l.04-12.36L.01,38.64v-2.38s27.35-16.42,27.35-16.42v27.84H5.94ZM27.37,7.62L.02,24.25v-2.33S27.37,5.21,27.37,5.21v2.4ZM27.38,10.27l-.02,2.19L.04,29.15v-2.26S27.38,10.27,27.38,10.27Z" style="fill:#d55d3d;"/><path d="M47.72,6.92c4.45-4.61,9.96-6.92,16.52-6.92,1.05,0,2.03.04,2.93.12.9.08,1.78.18,2.64.3,1.64.28,3.22.69,4.75,1.25,2.42.87,4.34,2.02,5.74,3.44l-12.74,7.76-.08,2.08,14.11-8.48c.36.2.64.46.84.78l.42.72-15.32,9.4v2.19s16.61-9.77,16.61-9.77l.58.75.58.75-17.8,10.53.03,2.16,18.36-10.86c.32.2.54.49.65.89l.42,1.13-19.42,11.27-.03,2.12,19.85-11.59.76,2.76.18,1.17.06,2.99c0,6.61-2.4,12.26-7.2,16.95-4.8,4.69-10.42,7.04-16.86,7.04s-11.92-2.34-16.45-7.03c-2.38-2.42-4.11-5.01-5.18-7.76-1.07-2.75-1.61-5.81-1.61-9.17,0-6.68,2.23-12.33,6.68-16.94Z" style="fill:#d55d3d;"/><path d="M138.12,20.56h43.14v27.12h-20.94v-25.26h-1.5v17.52c0,2.12-1.06,3.94-3.18,5.46-2.12,1.52-4.7,2.28-7.74,2.28h-13.38v-17.04h2.04c1.04,0,1.56-.36,1.56-1.08v-9ZM181.26,18.76h-43.14v-2.22h43.14v2.22ZM138.18,6.4v-2.04h43.14v2.04h-43.14ZM138.18,10.48v-2.04h43.08v2.04h-43.08ZM138.18,14.68v-2.34h43.08v2.34h-43.08Z" style="fill:#d55d3d;"/><path d="M196.44,4.6h39.72v13.38h-20.1v2.4h13.08v9h7.02v1.8h-39.72V4.6ZM196.44,33.46l39.72.06v1.8h-39.72v-1.86ZM196.44,37.36h39.66v2.34h-39.66v-2.34ZM196.44,41.74h39.72v1.8h-39.72v-1.8ZM196.44,45.64h39.72v2.04h-39.72v-2.04Z" style="fill:#d55d3d;"/><path d="M294.96,6.4h-43.02v-2.04h43.02v2.04ZM294.96,10.6h-43.02v-2.22h43.02v2.22ZM294.96,14.38h-43.02v-2.04h43.02v2.04ZM251.94,18.46v-2.04h43.02v2.04h-43.02ZM251.94,22.78v-2.16h43.02v2.16h-10.98v24.9h-21.06v-24.9h-10.98Z" style="fill:#d55d3d;"/><path d="M384.6,4.36v18.3h-10.16l10.28,5.76v2.52s-21-12.79-21-12.79v2.54s20.99,12.66,20.99,12.66l.02,2.44-21.01-12.65v2.15s21,13.08,21,13.08v2.12s-21.02-12.59-21.02-12.59l.02,2.31,21.02,12.51v2.52l-21.01-12.52v2.05s20.93,12.9,20.93,12.9h-24.06c-5.64,0-10.49-2.12-14.55-6.36-4.06-4.24-6.09-9.34-6.09-15.3s2.01-11.11,6.03-15.33c4.02-4.22,8.89-6.33,14.61-6.33h24Z" style="fill:#d55d3d;"/><path d="M451.01,19.09l-.06-2.11-20.39-12.32h30.23c2.4,0,4.47,1.04,6.19,3.12,1.72,2.08,2.58,4.53,2.58,7.37s-.84,5.16-2.52,7.22c-1.68,2.06-3.74,3.09-6.18,3.09,2.72,0,5.07,1.09,7.05,3.27,1.98,2.18,2.97,4.8,2.97,7.84s-.91,5.61-2.73,7.81c-1.82,2.2-4.07,3.3-6.75,3.3h-31.32v-26.84l20.89,12.21-.07-1.81-20.58-12.72v-2.06s20.56,12.29,20.56,12.29l.03-2.27-20.3-12.63v-2.05s20.3,11.98,20.3,11.98l.02-1.85-20.3-12.42v-2.09s20.38,11.68,20.38,11.68Z" style="fill:#d55d3d;"/><path d="M510.72,1.53l25.08,46.15h-50.04l1.02-1.8h25.14l-.84-2.04h-23.16l.96-1.86h21.3l-1.08-2.28h-18.96l.96-1.8h17.16l-.9-2.1h-15.12l1.02-2.04h13.08l-.9-2.1h-10.98l16.26-30.13Z" style="fill:#d55d3d;"/><path d="M572.09,18.28l21.42-14.22v43.62h-43.56v-23.49l27.61,17v-2.27s-27.61-17.28-27.61-17.28l-.02-2.31,27.29,16.75v-2.29s-27.27-17.08-27.27-17.08v-2.58s27.28,17.08,27.28,17.08l.03-2.14-27.31-17.26.03-2.33,27.28,17.01v-2.27s-27.37-17.58-27.37-17.58l-.02-2.62,22.22,14.26Z" style="fill:#d55d3d;"/><path d="M653.45,11.74v2.41s-43.88,26.77-43.88,26.77l.02-2.01,43.86-27.17ZM653.46,21.63v26.05h-20.88v-10.82s-18.53,10.96-18.53,10.96h-3l42.41-26.2ZM609.6,4.6h21.12v11.8l22.74-14.16v2.36s-43.86,27.03-43.86,27.03V4.6ZM653.46,19l-43.86,26.88v-2.11s43.85-27.24,43.85-27.24v2.46ZM653.48,7.1v2.08s-43.87,27.17-43.87,27.17l.03-2.3,43.85-26.96Z" style="fill:#d55d3d;"/></svg>