<svg id="a" xmlns="http://www.w3.org/2000/svg" viewBox="0 0 455.86 176.3">
    <path
        d="M.17.04h44.66L6.33,52.06c-2.17-2.66-3.66-4.8-4.46-6.41-1.13-2.5-1.69-5.2-1.69-8.1V.04ZM54.93.08L13.79,57.8c-1.52-.67-2.78-1.56-3.79-2.65L49.85,0l5.08.08ZM17.35,59.32L60.2.05l5.16-.03L21.4,60.85c-1.59-.23-2.94-.74-4.05-1.53ZM75.07.04L31.35,61.36l-2.38.12c-1.35,0-2.19-.06-2.5-.19L70.27.06l4.81-.02ZM80.76.04h7.86v88.45h-43.2v-32.79c-1.21,1.21-2.54,2.3-3.99,3.27l-4.96,1.94L80.76.04Z"
        style="fill:#d55d3d;" />
    <path
        d="M206.36,1.13v36.92h-20.49l20.72,11.62v5.09s-42.34-25.8-42.34-25.8l-.02,5.12,42.35,25.52.03,4.91-42.37-25.5v4.34s42.36,26.38,42.36,26.38l-.02,4.27-42.36-25.39.04,4.66,42.39,25.23v5.08l-42.37-25.25-.02,4.14,42.22,26.01h-48.52c-11.37,0-21.16-4.27-29.34-12.83-8.19-8.55-12.28-18.83-12.28-30.85s4.05-22.4,12.16-30.92c8.11-8.51,17.93-12.77,29.46-12.77h48.4Z"
        style="fill:#fff;" />
    <path
        d="M282.94,29.21L326.15.52v87.97h-87.85v-47.38l55.67,34.28v-4.58s-55.67-34.85-55.67-34.85l-.04-4.66,55.03,33.79v-4.61s-55-34.44-55-34.44v-5.21s55.01,34.44,55.01,34.44l.05-4.31-55.08-34.82.06-4.7,55.02,34.3-.02-4.57L238.18,5.73l-.05-5.28,44.81,28.76Z"
        style="fill:#fff;" />
    <path
        d="M359.67,1.13h41.99v50.34h4.36V1.13h42.35v50.45h7.38v3.88h-96.07V1.13ZM359.67,59.81h96.07v3.99l-96.07-.12v-3.87ZM455.74,68.53v3.87h-96.07v-3.87h96.07ZM455.74,76.27v4.23h-96.07v-4.23h96.07ZM359.67,84.62h96.07v13.79h-41.99v-10.04l-54.09.12v-3.87Z"
        style="fill:#fff;" />
    <path
        d="M20.87,138.77h-1.93v-8.23H5.87c-.8,0-1.55-.15-2.25-.45-1.47-.65-2.53-1.72-3.17-3.22-.3-.7-.45-1.46-.45-2.28v-5.95h1.95v5.95c0,1.1.38,2.03,1.15,2.81.76.78,1.69,1.17,2.78,1.17h13.07v-9.93h1.93v20.13Z"
        style="fill:#fff;" />
    <path d="M43.79,138.77h-19.83v-20.13h19.83v1.97h-17.88v6.25h17.88v1.97h-17.88v7.95h17.88v1.97Z"
        style="fill:#fff;" />
    <path
        d="M68.49,138.77h-2.18l-6.09-9.13h-6.42l-6.08,9.13h-2.19l7.56-11.36-5.77-8.78h2.19l5.79,9.04h3.44l5.77-9.04h2.19l-5.77,8.78,7.56,11.36Z"
        style="fill:#fff;" />
    <path
        d="M84,138.77h-4.35c-1.83,0-3.49-.45-4.99-1.36s-2.69-2.12-3.59-3.64-1.34-3.21-1.34-5.07c0-1.39.26-2.69.77-3.91s1.23-2.29,2.13-3.21c.91-.91,1.96-1.63,3.15-2.16s2.48-.79,3.85-.79h4.35c1.83,0,3.49.45,4.99,1.36s2.69,2.12,3.59,3.64,1.34,3.21,1.34,5.07c0,1.39-.26,2.69-.77,3.91s-1.23,2.29-2.14,3.21c-.91.92-1.96,1.65-3.15,2.17s-2.48.78-3.85.78ZM84,136.8c1.1,0,2.13-.21,3.1-.63s1.82-1,2.54-1.73c.73-.74,1.3-1.6,1.72-2.59s.62-2.03.62-3.15c0-1.49-.36-2.85-1.08-4.07s-1.68-2.2-2.89-2.93-2.55-1.09-4.01-1.09h-4.35c-1.1,0-2.13.21-3.09.63s-1.81,1-2.54,1.74-1.3,1.6-1.71,2.58-.62,2.02-.62,3.14c0,1.49.36,2.85,1.08,4.07s1.68,2.2,2.89,2.93,2.54,1.09,4,1.09h4.35Z"
        style="fill:#fff;" />
    <path
        d="M111.93,138.77h-15v-20.13h9.16c.53,0,1.04.08,1.52.23.79.27,1.47.69,2.04,1.27s.99,1.27,1.24,2.06c.16.48.23,1,.23,1.54,0,1-.38,2.04-1.15,3.14,2.19,0,3.62.15,4.29.46s1.28.73,1.82,1.28c.54.54.96,1.17,1.26,1.89s.45,1.49.45,2.31c0,1.1-.26,2.1-.79,3s-1.23,1.62-2.12,2.15-1.87.8-2.96.8ZM106.08,126.88c.86,0,1.59-.31,2.19-.92s.91-1.35.91-2.22-.3-1.6-.91-2.21-1.34-.92-2.19-.92h-7.21v6.27h7.21ZM111.93,136.8c1.09,0,2.01-.39,2.78-1.17s1.15-1.71,1.15-2.81c0-1-.32-1.86-.95-2.59s-1.43-1.18-2.4-1.34c-.19-.03-4.74-.04-13.63-.04v7.95h13.06Z"
        style="fill:#fff;" />
    <path
        d="M133.96,138.77h-4.35c-1.83,0-3.49-.45-4.99-1.36s-2.69-2.12-3.59-3.64-1.34-3.21-1.34-5.07c0-1.39.26-2.69.77-3.91s1.23-2.29,2.13-3.21c.91-.91,1.96-1.63,3.15-2.16s2.48-.79,3.85-.79h4.35c1.6,0,3.08.35,4.44,1.06s2.5,1.67,3.43,2.89,1.44,2.11,1.56,2.69h-2.17c-.37-1.07-1.23-2.11-2.59-3.13s-2.92-1.53-4.68-1.53h-4.35c-1.1,0-2.13.21-3.09.63s-1.81,1-2.54,1.74-1.3,1.6-1.71,2.58-.62,2.02-.62,3.14c0,1.49.36,2.85,1.08,4.07s1.68,2.2,2.89,2.93,2.54,1.09,4,1.09h4.35c1.1,0,2.13-.21,3.1-.63s1.82-1,2.54-1.73c.87-.89,1.42-1.65,1.65-2.3h2.14c-.21,1.05-1.01,2.28-2.41,3.69-.91.92-1.96,1.65-3.15,2.17s-2.48.78-3.85.78Z"
        style="fill:#fff;" />
    <path
        d="M169.28,138.77h-1.77l-3.84-9.93h-15.33v9.93h-1.95v-20.13h1.95v8.24h5.43l8.9-8.24h2.58l-8.9,8.24h8.32l4.61,11.89Z"
        style="fill:#fff;" />
    <path d="M193.35,138.77h-1.95v-18.45l-16.62,18.45h-3.21v-20.13h1.95v18.45l16.62-18.45h3.21v20.13Z"
        style="fill:#fff;" />
    <path
        d="M218.27,138.77h-1.95v-18.45l-16.62,18.45h-3.21v-20.13h1.95v18.45l16.62-18.45h3.21v20.13ZM209.02,114.06h-2.76c-1,0-1.91-.25-2.74-.75s-1.49-1.17-1.97-2-.73-1.36-.73-1.56h1.95c0,.15.34.62,1.01,1.43s1.5,1.21,2.49,1.21h2.76c.99,0,1.82-.4,2.5-1.21s1.01-1.28,1.01-1.43h1.95c0,.2-.25.72-.74,1.56s-1.15,1.5-1.97,2-1.74.75-2.74.75Z"
        style="fill:#fff;" />
    <path
        d="M244.97,138.77h-4.35c-1.83,0-3.49-.45-4.99-1.36s-2.69-2.12-3.59-3.64-1.34-3.21-1.34-5.07c0-1.39.26-2.69.77-3.91s1.23-2.29,2.13-3.21c.91-.91,1.96-1.63,3.15-2.16s2.48-.79,3.85-.79h4.35c1.6,0,3.08.35,4.44,1.06s2.5,1.67,3.43,2.89,1.44,2.11,1.56,2.69h-2.17c-.37-1.07-1.23-2.11-2.59-3.13s-2.92-1.53-4.68-1.53h-4.35c-1.1,0-2.13.21-3.09.63s-1.81,1-2.54,1.74-1.3,1.6-1.71,2.58-.62,2.02-.62,3.14c0,1.49.36,2.85,1.08,4.07s1.68,2.2,2.89,2.93,2.54,1.09,4,1.09h4.35c1.1,0,2.13-.21,3.1-.63s1.82-1,2.54-1.73c.87-.89,1.42-1.65,1.65-2.3h2.14c-.21,1.05-1.01,2.28-2.41,3.69-.91.92-1.96,1.65-3.15,2.17s-2.48.78-3.85.78Z"
        style="fill:#fff;" />
    <path d="M277.23,138.77h-19.83v-20.13h19.83v1.97h-17.88v6.25h17.88v1.97h-17.88v7.95h17.88v1.97Z"
        style="fill:#fff;" />
    <path
        d="M282.29,138.77h-1.95v-20.13h15c1.09,0,2.08.27,2.96.8s1.59,1.25,2.12,2.15.79,1.9.79,3c0,.82-.15,1.6-.45,2.32s-.72,1.35-1.26,1.89c-.54.55-1.16.98-1.87,1.29s-1.47.47-2.28.47h-13.06v8.22ZM295.34,128.57c1.09,0,2.01-.39,2.78-1.17s1.15-1.71,1.15-2.81-.38-2.03-1.15-2.81-1.69-1.17-2.78-1.17h-13.06v7.95h13.06Z"
        style="fill:#fff;" />
    <path
        d="M319,138.77h-15v-20.13h9.16c.53,0,1.04.08,1.52.23.79.27,1.47.69,2.04,1.27s.99,1.27,1.24,2.06c.16.48.23,1,.23,1.54,0,1-.38,2.04-1.15,3.14,2.19,0,3.62.15,4.29.46s1.28.73,1.82,1.28c.54.54.96,1.17,1.26,1.89s.45,1.49.45,2.31c0,1.1-.26,2.1-.79,3s-1.23,1.62-2.12,2.15-1.87.8-2.96.8ZM313.16,126.88c.86,0,1.59-.31,2.19-.92s.91-1.35.91-2.22-.3-1.6-.91-2.21-1.34-.92-2.19-.92h-7.21v6.27h7.21ZM319,136.8c1.09,0,2.01-.39,2.78-1.17s1.15-1.71,1.15-2.81c0-1-.32-1.86-.95-2.59s-1.43-1.18-2.4-1.34c-.19-.03-4.74-.04-13.63-.04v7.95h13.06Z"
        style="fill:#fff;" />
    <path d="M349.11,138.77h-1.95v-18.45l-16.62,18.45h-3.21v-20.13h1.95v18.45l16.62-18.45h3.21v20.13Z"
        style="fill:#fff;" />
    <path
        d="M365.96,138.77h-4.35c-1.83,0-3.49-.45-4.99-1.36s-2.69-2.12-3.59-3.64-1.34-3.21-1.34-5.07c0-1.39.26-2.69.77-3.91s1.23-2.29,2.13-3.21c.91-.91,1.96-1.63,3.15-2.16s2.48-.79,3.85-.79h4.35c1.6,0,3.08.35,4.44,1.06s2.5,1.67,3.43,2.89,1.44,2.11,1.56,2.69h-2.17c-.37-1.07-1.23-2.11-2.59-3.13s-2.92-1.53-4.68-1.53h-4.35c-1.1,0-2.13.21-3.09.63s-1.81,1-2.54,1.74-1.3,1.6-1.71,2.58-.62,2.02-.62,3.14c0,1.49.36,2.85,1.08,4.07s1.68,2.2,2.89,2.93,2.54,1.09,4,1.09h4.35c1.1,0,2.13-.21,3.1-.63s1.82-1,2.54-1.73c.87-.89,1.42-1.65,1.65-2.3h2.14c-.21,1.05-1.01,2.28-2.41,3.69-.91.92-1.96,1.65-3.15,2.17s-2.48.78-3.85.78Z"
        style="fill:#fff;" />
    <path d="M399.26,138.77h-1.93v-9.93h-16.99v9.93h-1.95v-20.13h1.95v8.23h16.99v-8.23h1.93v20.13Z"
        style="fill:#fff;" />
    <path
        d="M417.39,138.77h-15.02v-20.13h1.95v8.24h13.07c1.08,0,2.06.27,2.95.8s1.59,1.25,2.12,2.15.79,1.89.79,2.99c0,.82-.15,1.59-.45,2.31s-.72,1.35-1.26,1.9c-.54.54-1.16.96-1.87,1.28s-1.47.47-2.27.47ZM417.38,136.8c1.09,0,2.01-.39,2.78-1.17s1.15-1.71,1.15-2.81-.38-2.03-1.15-2.81-1.69-1.17-2.78-1.17h-13.06v7.95h13.06ZM430.9,138.77h-1.95v-20.13h1.95v20.13Z"
        style="fill:#fff;" />
    <path
        d="M455.86,138.77h-1.95v-18.45l-16.62,18.45h-3.21v-20.13h1.95v18.45l16.62-18.45h3.21v20.13ZM446.62,114.06h-2.76c-1,0-1.91-.25-2.74-.75s-1.49-1.17-1.97-2-.73-1.36-.73-1.56h1.95c0,.15.34.62,1.01,1.43s1.5,1.21,2.49,1.21h2.76c.99,0,1.82-.4,2.5-1.21s1.01-1.28,1.01-1.43h1.95c0,.2-.25.72-.74,1.56s-1.15,1.5-1.97,2-1.74.75-2.74.75Z"
        style="fill:#fff;" />
    <path
        d="M24.89,172.48h-1.93v-18.6l-8.12,13.18h-4.98l-7.91-12.88v18.3H0v-20.13h3.22l7.57,12.6h3.11l7.76-12.6h3.22v20.13Z"
        style="fill:#fff;" />
    <path d="M47.88,172.48h-19.83v-20.13h19.83v1.97h-17.88v6.25h17.88v1.97h-17.88v7.95h17.88v1.97Z"
        style="fill:#fff;" />
    <path d="M63.02,172.48h-1.95v-18.16h-11.18v-1.97h24.3v1.97h-11.18v18.16Z" style="fill:#fff;" />
    <path
        d="M97.58,172.48h-1.76l-2.47-6.38h-15.5l-2.47,6.38h-1.77l7.79-20.13h8.39l7.78,20.13ZM92.59,164.12l-3.79-9.81h-6.39l-3.8,9.81h13.98Z"
        style="fill:#fff;" />
    <path d="M122.94,172.48h-2.06l-7.02-18.16h-5.66l-7.02,18.16h-2.19l7.79-20.13h8.39l7.78,20.13Z" style="fill:#fff;" />
    <path d="M148.28,172.48h-2.06l-7.02-18.16h-5.66l-7.02,18.16h-2.19l7.79-20.13h8.39l7.78,20.13Z" style="fill:#fff;" />
    <path
        d="M163.57,172.48h-4.35c-1.83,0-3.49-.45-4.99-1.36s-2.69-2.12-3.59-3.64-1.34-3.21-1.34-5.07c0-1.39.26-2.69.77-3.91s1.23-2.29,2.13-3.21c.91-.91,1.96-1.63,3.15-2.16s2.48-.79,3.85-.79h4.35c1.83,0,3.49.45,4.99,1.36s2.69,2.12,3.59,3.64,1.34,3.21,1.34,5.07c0,1.39-.26,2.69-.77,3.91s-1.23,2.29-2.14,3.21c-.91.92-1.96,1.65-3.15,2.17s-2.48.78-3.85.78ZM163.57,170.5c1.1,0,2.13-.21,3.1-.63s1.82-1,2.54-1.73c.73-.74,1.3-1.6,1.72-2.59s.62-2.03.62-3.15c0-1.49-.36-2.85-1.08-4.07s-1.68-2.2-2.89-2.93-2.55-1.09-4.01-1.09h-4.35c-1.1,0-2.13.21-3.09.63s-1.81,1-2.54,1.74-1.3,1.6-1.71,2.58-.62,2.02-.62,3.14c0,1.49.36,2.85,1.08,4.07s1.68,2.2,2.89,2.93,2.54,1.09,4,1.09h4.35Z"
        style="fill:#fff;" />
    <path d="M199.86,176.3h-1.93v-3.8h-21.44v-20.13h1.95v18.16h15.48v-18.16h1.93v18.16h4v5.77Z" style="fill:#fff;" />
    <path d="M222.77,172.48h-19.83v-20.13h19.83v1.97h-17.88v6.25h17.88v1.97h-17.88v7.95h17.88v1.97Z"
        style="fill:#fff;" />
    <path d="M246.75,172.48h-1.93v-9.93h-16.99v9.93h-1.95v-20.13h1.95v8.23h16.99v-8.23h1.93v20.13Z"
        style="fill:#fff;" />
    <path d="M261.89,172.48h-1.95v-18.16h-11.18v-1.97h24.3v1.97h-11.18v18.16Z" style="fill:#fff;" />
    <path
        d="M277.82,172.48h-1.95v-20.13h15c1.09,0,2.08.27,2.96.8s1.59,1.25,2.12,2.15.79,1.9.79,3c0,.82-.15,1.6-.45,2.32s-.72,1.35-1.26,1.89c-.54.55-1.16.98-1.87,1.29s-1.47.47-2.28.47h-13.06v8.22ZM290.87,162.27c1.09,0,2.01-.39,2.78-1.17s1.15-1.71,1.15-2.81-.38-2.03-1.15-2.81-1.69-1.17-2.78-1.17h-13.06v7.95h13.06Z"
        style="fill:#fff;" />
</svg>