<?xml version="1.0" encoding="UTF-8"?><svg id="a" xmlns="http://www.w3.org/2000/svg" viewBox="0 0 624.65 112.91">
    <style>
        .anim-line {
            stroke-dasharray: 385;
            /* длина линии (≈ 384.8) */
            stroke-dashoffset: 0;
            animation: shrink 6s ease-in-out infinite alternate;
        }

        @keyframes shrink {
            from {
                stroke-dasharray: 385 0;
                /* вся линия видна */
            }

            to {
                stroke-dasharray: 0 385;
            }
        }
    </style>
    <path
        d="M 0.6 1.5 l 26.6 0.1 L 4.2 32.5 c -1.3 -1.6 -2.2 -2.9 -2.6 -3.8 c -0.7 -1.5 -1 -3.1 -1 -4.8 l 0.1 -22.3 Z M 33.2 1.6 L 8.6 35.9 c -0.9 -0.4 -1.6 -0.9 -2.3 -1.6 L 30.1 1.6 l 3 0.1 Z M 10.7 36.8 L 36.3 1.6 h 3.1 S 13.1 37.7 13.1 37.7 c -0.9 -0.1 -1.8 -0.5 -2.4 -0.9 Z M 45.2 1.6 l -26.1 36.4 l -1.4 0.1 c -0.8 0 -1.3 0 -1.5 -0.1 L 42.3 1.6 h 2.9 Z M 48.5 1.6 h 4.7 s -0.1 52.6 -0.1 52.6 l -25.7 -0.1 l 0.1 -19.5 c -0.7 0.7 -1.5 1.4 -2.4 1.9 l -3 1.1 L 48.5 1.6 Z"
        style="fill: #d55d3d" />
    <path
        d="M 69.3 2.6 l 47.7 0.1 l 0 16.1 l -24.1 -0.1 v 2.9 s 15.7 0 15.7 0 l 0 10.8 l 8.4 0 v 2.2 s -47.7 -0.1 -47.7 -0.1 l 0.1 -31.9 Z M 69.2 37.3 l 47.7 0.2 v 2.2 s -47.7 -0.1 -47.7 -0.1 v -2.2 Z M 69.2 42 l 47.6 0.1 v 2.8 s -47.6 -0.1 -47.6 -0.1 v -2.8 Z M 69.2 47.2 l 47.7 0.1 v 2.2 s -47.7 -0.1 -47.7 -0.1 v -2.2 Z M 69.2 51.9 l 47.7 0.1 v 2.5 s -47.7 -0.1 -47.7 -0.1 v -2.5 Z"
        style="fill: #d55d3d" />
    <path
        d="M 185.6 54.7 l -51.6 -28 v -2.9 s 51.6 28 51.6 28 l 0.1 3 Z M 185.7 37.6 l -51.6 -27.9 l 0 -3 l 51.6 28.3 l 0 2.6 Z M 185.8 1.1 l -0.1 31.5 l -51.6 -28.5 l 0 -3 l 26.6 14.3 l 25 -14.3 Z M 185.7 48.7 l -51.6 -28.1 v -2.9 s 51.6 28.4 51.6 28.4 v 2.6 Z M 133.9 60 l 0.1 -30.6 l 51.6 28 l -0.1 2.6 l -25 -13.2 l -26.6 13.2 Z M 185.6 43.4 l -51.6 -28.2 v -2.9 s 51.6 28.2 51.6 28.2 l -0.1 2.9 Z"
        style="fill: #d55d3d" />
    <path
        d="M 311.5 20.2 l -0.1 -2.5 l -24.5 -14.8 h 36.3 c 2.9 0 5.4 1.3 7.4 3.7 c 2.1 2.5 3.1 5.4 3.1 8.8 s -1 6.2 -3 8.7 c -2 2.5 -4.5 3.7 -7.4 3.7 c 3.3 0 6.1 1.3 8.5 3.9 c 2.4 2.6 3.6 5.8 3.6 9.4 s -1.1 6.7 -3.3 9.4 c -2.2 2.6 -4.9 4 -8.1 4 h -37.6 V 22.3 l 25.1 14.7 l -0.1 -2.2 l -24.7 -15.3 l 0 -2.5 l 24.7 14.7 l 0 -2.7 l -24.4 -15.2 v -2.5 s 24.4 14.4 24.4 14.4 l 0 -2.2 l -24.4 -14.9 v -2.5 s 24.5 14 24.5 14 Z"
        style="fill: #d55d3d" />
    <path
        d="M 407.8 2.5 v 22 h -12.2 l 12.3 6.9 v 3 s -25.2 -15.3 -25.2 -15.3 v 3 s 25.2 15.2 25.2 15.2 l 0 2.9 l -25.2 -15.2 v 2.6 s 25.2 15.7 25.2 15.7 v 2.5 s -25.2 -15.1 -25.2 -15.1 l 0 2.8 l 25.2 15 v 3 l -25.2 -15 v 2.5 s 25.1 15.5 25.1 15.5 h -28.9 c -6.8 0 -12.6 -2.5 -17.5 -7.6 c -4.9 -5.1 -7.3 -11.2 -7.3 -18.4 s 2.4 -13.3 7.2 -18.4 c 4.8 -5.1 10.7 -7.6 17.5 -7.6 h 28.8 Z"
        style="fill: #d55d3d" />
    <path
        d="M 428.8 2.8 h 21.3 v 7.6 l 5.1 -7.6 h 25.9 l -16.4 23.6 l 13.9 9.3 v 2.4 s -33.8 -20.1 -33.8 -20.1 l 0 2.1 l 33.8 20.5 l 0 2.8 l -33.7 -20.1 v 2.5 s 33.8 20.7 33.8 20.7 v 2.7 s -33.8 -20 -33.8 -20 v 2.1 s 33.8 20.7 33.8 20.7 l 0 3 l -33.8 -20.6 l 0 2.6 l 33.8 20.5 v 2.8 s -9.9 -5.8 -9.9 -5.8 h -40 V 2.8 Z"
        style="fill: #d55d3d" />
    <path
        d="M 551.8 11.4 v 2.9 s -52.7 32.1 -52.7 32.1 l 0 -2.4 l 52.6 -32.6 Z M 551.8 23.3 v 31.3 h -25.1 v -13 s -27.6 17 -27.6 17 v -2.9 s 52.6 -32.5 52.6 -32.5 Z M 499.2 2.8 h 25.3 v 14.2 l 27.3 -17 v 2.8 s -52.6 32.4 -52.6 32.4 V 2.8 Z M 551.8 20.1 l -52.6 32.3 v -2.5 s 52.6 -32.7 52.6 -32.7 v 3 Z M 551.9 5.8 v 2.5 s -52.6 32.6 -52.6 32.6 l 0 -2.8 l 52.6 -32.4 Z"
        style="fill: #d55d3d" />
    <path
        d="M 624.5 23.3 v 31.3 h -25.1 v -13 s -27.6 17 -27.6 17 l 0 -2.8 l 52.6 -32.5 Z M 624.5 11.4 l 0 2.9 l -52.6 32.1 v -2.5 s 52.6 -32.6 52.6 -32.6 Z M 571.9 2.8 h 25.3 v 14.3 L 624.6 0 l 0 2.8 l -52.6 32.4 V 2.8 Z M 624.5 20.1 l -52.6 32.3 v -2.5 s 52.6 -32.7 52.6 -32.7 v 3 Z M 624.5 5.8 v 2.5 s -52.6 32.6 -52.6 32.6 v -2.8 s 52.6 -32.3 52.6 -32.3 Z M 602 9.2 L 616.5 0 h -14.5 l -0.1 9.1 Z"
        style="fill: #d55d3d" />
    <ellipse cx="236.2" cy="36.2" rx="31.8" ry="34.7" transform="translate(199.4,272.3) rotate(-89.8)"
        style="fill: none; stroke: #ffffff; stroke-width: 5px; stroke-linecap: round; stroke-linejoin: round" />
    <ellipse cx="236.2" cy="36.2" rx="22" ry="24" transform="translate(199.4,272.3) rotate(-89.8)"
        style="fill: none; stroke: #ffffff; stroke-width: 5px; stroke-linecap: round; stroke-linejoin: round" />
    <path
        d="M 226.8 27.5 c 5.2 -4.8 13.7 -4.7 18.9 0.1 s 5.2 12.5 0 17.3 s -13.7 4.7 -18.9 -0.1 c -5.2 -4.8 -5.2 -12.5 0 -17.3 Z"
        style="fill: none; stroke: #ffffff; stroke-width: 5px; stroke-linecap: round; stroke-linejoin: round" />
    <path class="anim-line" d="M 239.9 68 l 384.8 1"
        style="fill: none; stroke: #ffffff; stroke-width: 5px; stroke-linejoin: round" />
    <path
        d="M 16.7 108.4 h -5.1 c -2.1 0 -4.1 -0.5 -5.8 -1.6 c -1.8 -1.1 -3.1 -2.5 -4.2 -4.3 c -1 -1.8 -1.6 -3.8 -1.6 -5.9 c 0 -1.6 0.3 -3.1 0.9 -4.6 c 0.6 -1.4 1.4 -2.7 2.5 -3.8 c 1.1 -1.1 2.3 -1.9 3.7 -2.5 s 2.9 -0.9 4.5 -0.9 h 5.1 c 1.9 0 3.6 0.4 5.2 1.2 s 2.9 1.9 4 3.4 s 1.7 2.5 1.8 3.1 h -2.5 c -0.4 -1.3 -1.4 -2.5 -3 -3.7 c -1.6 -1.2 -3.4 -1.8 -5.5 -1.8 h -5.1 c -1.3 0 -2.5 0.3 -3.6 0.7 c -1.1 0.5 -2.1 1.2 -3 2 c -0.8 0.9 -1.5 1.9 -2 3 c -0.5 1.1 -0.7 2.4 -0.7 3.7 c 0 1.7 0.4 3.3 1.3 4.8 s 2 2.6 3.4 3.4 c 1.4 0.8 3 1.3 4.7 1.3 h 5.1 c 1.3 0 2.5 -0.3 3.6 -0.7 s 2.1 -1.2 3 -2 c 1 -1 1.6 -1.9 1.9 -2.7 h 2.5 c -0.3 1.2 -1.2 2.7 -2.8 4.3 c -1.1 1.1 -2.3 1.9 -3.7 2.5 c -1.4 0.6 -2.9 0.9 -4.5 0.9 Z"
        style="fill: #ffffff" />
    <path d="M 54.3 108.4 h -23.2 v -23.5 h 23.2 v 2.3 h -20.9 v 7.3 h 20.9 v 2.3 h -20.9 v 9.3 h 20.9 v 2.3 Z"
        style="fill: #ffffff" />
    <path
        d="M 60.2 108.4 h -2.3 v -23.5 h 17.5 c 1.3 0 2.4 0.3 3.5 0.9 c 1 0.6 1.9 1.5 2.5 2.5 c 0.6 1.1 0.9 2.2 0.9 3.5 c 0 1 -0.2 1.9 -0.5 2.7 c -0.3 0.8 -0.8 1.6 -1.5 2.2 c -0.6 0.6 -1.4 1.1 -2.2 1.5 c -0.8 0.4 -1.7 0.5 -2.7 0.5 h -15.3 v 9.6 Z M 75.5 96.5 c 1.3 0 2.4 -0.5 3.2 -1.4 c 0.9 -0.9 1.3 -2 1.3 -3.3 s -0.5 -2.4 -1.3 -3.3 c -0.9 -0.9 -2 -1.4 -3.2 -1.4 h -15.3 v 9.3 h 15.3 Z"
        style="fill: #ffffff" />
    <path
        d="M 103.1 108.4 h -17.5 v -23.5 h 10.7 c 0.6 0 1.2 0.1 1.8 0.3 c 0.9 0.3 1.7 0.8 2.4 1.5 c 0.7 0.7 1.1 1.5 1.4 2.4 c 0.2 0.6 0.3 1.2 0.3 1.8 c 0 1.2 -0.5 2.4 -1.4 3.7 c 2.5 0 4.2 0.2 5 0.5 c 0.8 0.4 1.5 0.9 2.1 1.5 c 0.6 0.6 1.1 1.4 1.5 2.2 c 0.3 0.8 0.5 1.7 0.5 2.7 c 0 1.3 -0.3 2.5 -0.9 3.5 c -0.6 1.1 -1.4 1.9 -2.5 2.5 c -1 0.6 -2.2 0.9 -3.5 0.9 Z M 96.3 94.6 c 1 0 1.9 -0.4 2.6 -1.1 s 1.1 -1.6 1.1 -2.6 s -0.3 -1.9 -1.1 -2.6 c -0.7 -0.7 -1.6 -1.1 -2.6 -1.1 h -8.4 v 7.3 h 8.4 Z M 103.1 106.1 c 1.3 0 2.4 -0.5 3.2 -1.4 c 0.9 -0.9 1.3 -2 1.3 -3.3 c 0 -1.2 -0.4 -2.2 -1.1 -3 c -0.7 -0.8 -1.7 -1.4 -2.8 -1.6 c -0.2 0 -5.5 -0.1 -15.9 -0.1 v 9.3 h 15.3 Z"
        style="fill: #ffffff" />
    <path d="M 138.3 108.4 h -2.3 v -21.5 l -19.4 21.5 h -3.8 v -23.5 h 2.3 v 21.5 l 19.4 -21.5 h 3.8 v 23.5 Z"
        style="fill: #ffffff" />
    <path
        d="M 157.9 108.4 h -5.1 c -2.1 0 -4.1 -0.5 -5.8 -1.6 c -1.8 -1.1 -3.1 -2.5 -4.2 -4.3 c -1 -1.8 -1.6 -3.8 -1.6 -5.9 c 0 -1.6 0.3 -3.1 0.9 -4.6 c 0.6 -1.4 1.4 -2.7 2.5 -3.8 c 1.1 -1.1 2.3 -1.9 3.7 -2.5 s 2.9 -0.9 4.5 -0.9 h 5.1 c 1.9 0 3.6 0.4 5.2 1.2 s 2.9 1.9 4 3.4 s 1.7 2.5 1.8 3.1 h -2.5 c -0.4 -1.3 -1.4 -2.5 -3 -3.7 c -1.6 -1.2 -3.4 -1.8 -5.5 -1.8 h -5.1 c -1.3 0 -2.5 0.3 -3.6 0.7 c -1.1 0.5 -2.1 1.2 -3 2 c -0.8 0.9 -1.5 1.9 -2 3 c -0.5 1.1 -0.7 2.4 -0.7 3.7 c 0 1.7 0.4 3.3 1.3 4.8 c 0.8 1.4 2 2.6 3.4 3.4 c 1.4 0.8 3 1.3 4.7 1.3 h 5.1 c 1.3 0 2.5 -0.3 3.6 -0.7 s 2.1 -1.2 3 -2 c 1 -1 1.6 -1.9 1.9 -2.7 h 2.5 c -0.3 1.2 -1.2 2.7 -2.8 4.3 c -1.1 1.1 -2.3 1.9 -3.7 2.5 c -1.4 0.6 -2.9 0.9 -4.5 0.9 Z"
        style="fill: #ffffff" />
    <path d="M 196.8 108.4 h -2.3 v -11.6 h -19.8 v 11.6 h -2.3 v -23.5 h 2.3 v 9.6 h 19.8 v -9.6 h 2.3 v 23.5 Z"
        style="fill: #ffffff" />
    <path
        d="M 218 108.4 h -17.5 v -23.5 h 2.3 v 9.6 h 15.3 c 1.3 0 2.4 0.3 3.4 0.9 c 1 0.6 1.9 1.5 2.5 2.5 c 0.6 1.1 0.9 2.2 0.9 3.5 c 0 1 -0.2 1.9 -0.5 2.7 c -0.3 0.8 -0.8 1.6 -1.5 2.2 c -0.6 0.6 -1.4 1.1 -2.2 1.5 c -0.8 0.4 -1.7 0.5 -2.6 0.5 Z M 218 106.1 c 1.3 0 2.4 -0.5 3.2 -1.4 c 0.9 -0.9 1.3 -2 1.3 -3.3 s -0.5 -2.4 -1.3 -3.3 c -0.9 -0.9 -2 -1.4 -3.2 -1.4 h -15.3 v 9.3 h 15.3 Z M 233.8 108.4 h -2.3 v -23.5 h 2.3 v 23.5 Z"
        style="fill: #ffffff" />
    <path
        d="M 262.9 108.4 h -2.3 v -21.5 l -19.4 21.5 h -3.8 v -23.5 h 2.3 v 21.5 l 19.4 -21.5 h 3.8 v 23.5 Z M 252.1 82.6 h -3.2 c -1.2 0 -2.2 -0.3 -3.2 -0.9 c -1 -0.6 -1.7 -1.4 -2.3 -2.3 c -0.6 -1 -0.9 -1.6 -0.9 -1.8 h 2.3 c 0 0.2 0.4 0.7 1.2 1.7 c 0.8 0.9 1.8 1.4 2.9 1.4 h 3.2 c 1.1 0 2.1 -0.5 2.9 -1.4 s 1.2 -1.5 1.2 -1.7 h 2.3 c 0 0.2 -0.3 0.8 -0.9 1.8 c -0.6 1 -1.4 1.8 -2.3 2.3 s -2 0.9 -3.2 0.9 Z"
        style="fill: #ffffff" />
    <path
        d="M 307.2 108.4 h -2.3 v -21.7 l -9.5 15.4 h -5.8 l -9.2 -15 v 21.4 h -2.3 v -23.5 h 3.8 l 8.8 14.7 h 3.6 l 9.1 -14.7 h 3.8 v 23.5 Z"
        style="fill: #ffffff" />
    <path d="M 334 108.4 h -23.2 v -23.5 h 23.2 v 2.3 h -20.9 v 7.3 h 20.9 v 2.3 h -20.9 v 9.3 h 20.9 v 2.3 Z"
        style="fill: #ffffff" />
    <path d="M 351.7 108.4 h -2.3 v -21.2 h -13.1 v -2.3 h 28.4 v 2.3 h -13.1 v 21.2 Z" style="fill: #ffffff" />
    <path
        d="M 392.1 108.4 h -2 l -2.9 -7.5 h -18.1 l -2.9 7.5 h -2.1 l 9.1 -23.5 h 9.8 l 9.1 23.5 Z M 386.2 98.7 l -4.4 -11.4 h -7.5 l -4.4 11.4 h 16.3 Z"
        style="fill: #ffffff" />
    <path d="M 421.7 108.4 h -2.4 l -8.2 -21.2 h -6.6 l -8.2 21.2 h -2.6 l 9.1 -23.5 h 9.8 l 9.1 23.5 Z"
        style="fill: #ffffff" />
    <path d="M 451.3 108.4 h -2.4 l -8.2 -21.2 h -6.6 l -8.2 21.2 h -2.6 l 9.1 -23.5 h 9.8 l 9.1 23.5 Z"
        style="fill: #ffffff" />
    <path
        d="M 469.1 108.4 h -5.1 c -2.1 0 -4.1 -0.5 -5.8 -1.6 c -1.8 -1.1 -3.1 -2.5 -4.2 -4.3 c -1 -1.8 -1.6 -3.8 -1.6 -5.9 c 0 -1.6 0.3 -3.1 0.9 -4.6 c 0.6 -1.4 1.4 -2.7 2.5 -3.8 c 1.1 -1.1 2.3 -1.9 3.7 -2.5 s 2.9 -0.9 4.5 -0.9 h 5.1 c 2.1 0 4.1 0.5 5.8 1.6 s 3.1 2.5 4.2 4.3 c 1 1.8 1.6 3.8 1.6 5.9 c 0 1.6 -0.3 3.1 -0.9 4.6 c -0.6 1.4 -1.4 2.7 -2.5 3.8 c -1.1 1.1 -2.3 1.9 -3.7 2.5 c -1.4 0.6 -2.9 0.9 -4.5 0.9 Z M 469.1 106.1 c 1.3 0 2.5 -0.3 3.6 -0.7 s 2.1 -1.2 3 -2 c 0.8 -0.9 1.5 -1.9 2 -3 c 0.5 -1.1 0.7 -2.4 0.7 -3.7 c 0 -1.7 -0.4 -3.3 -1.3 -4.8 c -0.8 -1.4 -2 -2.6 -3.4 -3.4 c -1.4 -0.8 -3 -1.3 -4.7 -1.3 h -5.1 c -1.3 0 -2.5 0.3 -3.6 0.7 c -1.1 0.5 -2.1 1.2 -3 2 c -0.8 0.9 -1.5 1.9 -2 3 c -0.5 1.1 -0.7 2.4 -0.7 3.7 c 0 1.7 0.4 3.3 1.3 4.8 c 0.8 1.4 2 2.6 3.4 3.4 c 1.4 0.8 3 1.3 4.7 1.3 h 5.1 Z"
        style="fill: #ffffff" />
    <path d="M 511.5 112.9 h -2.3 v -4.4 h -25 v -23.5 h 2.3 v 21.2 h 18.1 v -21.2 h 2.3 v 21.2 h 4.7 v 6.7 Z"
        style="fill: #ffffff" />
    <path d="M 538.3 108.4 h -23.2 v -23.5 h 23.2 v 2.3 h -20.9 v 7.3 h 20.9 v 2.3 h -20.9 v 9.3 h 20.9 v 2.3 Z"
        style="fill: #ffffff" />
    <path d="M 566.3 108.4 h -2.3 v -11.6 h -19.8 v 11.6 h -2.3 v -23.5 h 2.3 v 9.6 h 19.8 v -9.6 h 2.3 v 23.5 Z"
        style="fill: #ffffff" />
    <path d="M 584 108.4 h -2.3 v -21.2 h -13.1 v -2.3 h 28.4 v 2.3 h -13.1 v 21.2 Z" style="fill: #ffffff" />
    <path
        d="M 602.5 108.4 h -2.3 v -23.5 h 17.5 c 1.3 0 2.4 0.3 3.5 0.9 c 1 0.6 1.9 1.5 2.5 2.5 c 0.6 1.1 0.9 2.2 0.9 3.5 c 0 1 -0.2 1.9 -0.5 2.7 c -0.3 0.8 -0.8 1.6 -1.5 2.2 c -0.6 0.6 -1.4 1.1 -2.2 1.5 c -0.8 0.4 -1.7 0.5 -2.7 0.5 h -15.3 v 9.6 Z M 617.8 96.5 c 1.3 0 2.4 -0.5 3.2 -1.4 c 0.9 -0.9 1.3 -2 1.3 -3.3 s -0.5 -2.4 -1.3 -3.3 c -0.9 -0.9 -2 -1.4 -3.2 -1.4 h -15.3 v 9.3 h 15.3 Z"
        style="fill: #ffffff" />
</svg>